<svg xmlns="http://www.w3.org/2000/svg" width="165.781" height="139.88"><path d="M35.854 31.82c-.2-1.66-.179-1.88.658-3.04a6.873 6.873 0 0 0 .89-1.69 3.1 3.1 0 0 1 2.643-1.81 6.568 6.568 0 0 1 1.083.03 1.706 1.706 0 0 0 1.027-.35.645.645 0 0 0 .059-1.02c-.289-.23-.618-.41-.907-.65a.418.418 0 0 1-.046-.36.423.423 0 0 1 .238-.25 2.133 2.133 0 0 1 1.711.51 14.268 14.268 0 0 0 3.934 1.42 3.155 3.155 0 0 0 1.968.11.917.917 0 0 1 1.026.19c.308.34.518.14.778-.06a.7.7 0 0 1 .98.22.968.968 0 0 1 .235 1.09 3.439 3.439 0 0 1-1.037 1.85 1.234 1.234 0 0 0-.6.95 8.521 8.521 0 0 1-.6 2.32 1 1 0 0 0 .266 1.09 7.9 7.9 0 0 1 1.326 1.37 1.043 1.043 0 0 0 .586.44 6.911 6.911 0 0 1 2.861 1.69 2.08 2.08 0 0 0 .624.39 4.564 4.564 0 0 1 2.412 1.69 1.912 1.912 0 0 0 1.627.76 1.487 1.487 0 0 0 1.567-1.08 32.365 32.365 0 0 0 1.374-5.01 3.918 3.918 0 0 0-.046-1.4 8.092 8.092 0 0 1 .042-3.2 1.924 1.924 0 0 0 .069-.6c-.248-2.05.885-3.57 1.6-5.25a1.3 1.3 0 0 1 .217-.32.569.569 0 0 1 .646-.22.606.606 0 0 1 .354.41c.079 1.74.967 3.16 1.458 4.74.235.76.369 1.56.541 2.34.208.94.278 1.01 1.2 1.17a3.019 3.019 0 0 1 2.4 2.38c.136.66.234 1.32.331 1.98a4.449 4.449 0 0 0 .719 2.04 5.1 5.1 0 0 1 .8 2.64 4.111 4.111 0 0 0 2.454 3.86 20.006 20.006 0 0 1 2.963 1.92 1.206 1.206 0 0 1 .492.57c.416 1.62 1.757 2.77 1.786 4.57a.471.471 0 0 0 .649.48 1.845 1.845 0 0 1 1.209.28 1.052 1.052 0 0 1 .8.98 4.437 4.437 0 0 0 2.111 3.74 11.583 11.583 0 0 1 1.835 2.21.572.572 0 0 0 .937.05.355.355 0 0 1 .614.3 5.119 5.119 0 0 1-.075.99 15.88 15.88 0 0 0-.155 3.83 1.44 1.44 0 0 0 .108.78c1.069 1.28.346 2.94.789 4.35a1.837 1.837 0 0 1-.1.98c-.449 1.41-.383 2.94-.937 4.31a1.26 1.26 0 0 0-.1.6c.235 1.8-.667 3.24-1.271 4.76a3.153 3.153 0 0 1-.788 1.08 6.667 6.667 0 0 0-1.59 2.67c-.285.74-.555 1.49-.793 2.25a11.894 11.894 0 0 1-1.342 3.29 3.735 3.735 0 0 0-.5 1.71c-.125 1.14-.3 2.27-.4 3.4a1.779 1.779 0 0 1-1.181 1.62 3.413 3.413 0 0 1-1.6.33 3.353 3.353 0 0 0-2.66 1.05c-.753.67-1.5 1.36-2.2 2.1a.648.648 0 0 1-.954.16 5.941 5.941 0 0 1-1.332-1.04 2.2 2.2 0 0 0-1.439-.69 1.559 1.559 0 0 0-1.821.48 1.814 1.814 0 0 1-2.78.22 4.113 4.113 0 0 0-1.86-.76 11.019 11.019 0 0 1-2.578-.95 4.024 4.024 0 0 1-2.5-3.82 6.288 6.288 0 0 0-.673-2.48c-.452-.92-.944-1.51-1.993-1.14-.413.15-.673-.25-.541-.75a3.619 3.619 0 0 0 .122-2.35.665.665 0 0 0-.406-.31.369.369 0 0 0-.283.2c-.12.31-.175.64-.294.95a1.472 1.472 0 0 1-1.741 1.07.463.463 0 0 1-.309-.61 3.217 3.217 0 0 1 .437-.62 1.65 1.65 0 0 0 .505-1.05 6.778 6.778 0 0 1 .923-3.02 1.951 1.951 0 0 0 .084-.78.267.267 0 0 0-.119-.14.237.237 0 0 0-.169 0c-.649 1.53-2.106 2.18-3 3.43a6.764 6.764 0 0 0-.594 1.01c-.162.34-.1.88-.584.9a1.554 1.554 0 0 1-1.351-1.38 4.11 4.11 0 0 0-.231-1.57 5.5 5.5 0 0 0-1.226-1.98 2.526 2.526 0 0 1-.978-1.4 1.74 1.74 0 0 0-.975-1.13c-.318-.19-.657-.33-.989-.5-1.233-.66-2.687-.68-3.8-1.71a1.807 1.807 0 0 0-1.417-.23c-1.142.12-2.292.2-3.43.36a3.783 3.783 0 0 0-1.373.49 8.278 8.278 0 0 1-4.363 1.14 3.915 3.915 0 0 0-2.417.69 11.587 11.587 0 0 1-1.474.78 4.013 4.013 0 0 0-2.271 2.17 1.764 1.764 0 0 1-1.777 1.15c-1.272.01-2.538 0-3.812.01-.725 0-1.449.05-2.175.06a1.851 1.851 0 0 0-1.6.78 1.73 1.73 0 0 1-.854.72 4.246 4.246 0 0 0-1.854 1.21 2.157 2.157 0 0 1-2.186.66 13.509 13.509 0 0 0-1.437-.21c-1.557-.22-2.565-1.43-3.615-2.53a1.409 1.409 0 0 1 .053-1.68 2.91 2.91 0 0 0 .942-1.88c-.039-1.46.431-2.95-.24-4.38-.26-.53-.425-1.12-.672-1.66a7.339 7.339 0 0 1-.827-3.47 4.264 4.264 0 0 0-.511-1.9 17.376 17.376 0 0 1-1.4-3.93 3.2 3.2 0 0 0-.767-1.58 9.317 9.317 0 0 1-.584-.78 1.2 1.2 0 0 1-.007-1.76 1.426 1.426 0 0 0 .213-.52c.473-.14.55.5.909.52a.318.318 0 0 0 .269-.16 1.482 1.482 0 0 0-.111-.57C1.31 59.22.931 58.3.53 57.39A2.918 2.918 0 0 1 .5 54.7a4.1 4.1 0 0 0 .39-2.14 4.586 4.586 0 0 1 .155-1.8c.182-.49.36-1.1 1.025-.55.181.15.341 0 .482-.13 1.21-1.12 2.69-1.79 3.857-2.99a1.909 1.909 0 0 1 1.492-.65c1.521.15 2.819-.67 4.179-1.17a15.848 15.848 0 0 1 1.912-.57 18.994 18.994 0 0 0 2.27-.69 3.291 3.291 0 0 0 1.585-1.3c.567-.78 1.078-1.61 1.617-2.42a1.837 1.837 0 0 0 .182-1.36 2.514 2.514 0 0 1 .836-2.31c.632-.65.891-.63 1.421.18.106.15.178.35.289.5a.315.315 0 0 0 .478.11.474.474 0 0 0 .17-.33c-.015-.34-.1-.66-.124-.99-.057-.69.138-1.11.772-1.01.119.02.243.03.36.05a.714.714 0 0 0 .828-.61 6.175 6.175 0 0 1 1.667-2.84 6.953 6.953 0 0 1 3.791-2.45 1.856 1.856 0 0 1 1.794.77c.246.3.463.62.7.93a1.237 1.237 0 0 0 1.262.62 5.154 5.154 0 0 1 1.964.27zm47.873-11.68c-.194.26-.365.53-.577.77a.97.97 0 0 1-1.171.3 13.943 13.943 0 0 0-4.224-1.06 2.587 2.587 0 0 1-1.574-.9c-.983-1.18-2.224-2.09-2.983-3.5a1.59 1.59 0 0 0-.666-.65c-.832-.41-1.68-.75-2.528-1.11a1.127 1.127 0 0 0-1.057.04c-.913.59-1.97 1.01-2.045 2.52a1.427 1.427 0 0 1-1.564 1.33 19.675 19.675 0 0 1-2.168-.19 1.234 1.234 0 0 1-1.145-1.32c-.076-.8-.031-1.61-.1-2.42a29.59 29.59 0 0 1-.058-4.81 15.478 15.478 0 0 0-.136-2.81 24.131 24.131 0 0 1-.089-4.02c.036-.7.383-.95.984-.74.4.14.791.31 1.19.47 1.422.57 2.838 1.15 4.264 1.69a17.821 17.821 0 0 1 3.553 2.38 1.952 1.952 0 0 1 .71.9 4.289 4.289 0 0 0 2.765 2.39c.4.18.825.25 1.2.44a1.082 1.082 0 0 1 .092 1.98c-.092.08-.218.11-.31.19a.752.752 0 0 0-.2 1.04 1.108 1.108 0 0 0 .224.31 7.751 7.751 0 0 1 2.2 2.88.773.773 0 0 0 .356.44c.973.27 1.512 1.23 2.314 1.77a1.527 1.527 0 0 1 .6.41c.47.96 1.361 1.01 2.156 1.3zm48.283 94.35a6.759 6.759 0 0 1-1.722.49 2.606 2.606 0 0 0-1.743 2.12c-.131 1.09-.633 2.04-.858 3.08-.465 2.15-2.03 3.07-3.58 3.99a1.4 1.4 0 0 1-1.065.1 6.18 6.18 0 0 1-1.891-.68 3.862 3.862 0 0 0-2.043-.75 1.8 1.8 0 0 1-.7-.21 1.073 1.073 0 0 1-.512-1.34c.548-1.4.884-2.96 2.12-3.91a.472.472 0 0 0 .121-.14c.765-1.32 1.633-2.5 3.131-2.82 1.32-1.17 2.66-2.33 3.957-3.53a3.175 3.175 0 0 0 .832-1.76 3.139 3.139 0 0 1 .99-1.88 2.552 2.552 0 0 0 .841-1.5 5.93 5.93 0 0 1 .294-.95c.438-1.05.887-1.15 1.623-.37a2.1 2.1 0 0 1 .373.44.7.7 0 0 0 1.207.27 1.17 1.17 0 0 1 .512-.19.832.832 0 0 1 .928.75 4.838 4.838 0 0 1-.727 3.61c-.6.76-1.042 1.66-1.649 2.4a2.043 2.043 0 0 0-.41 2.37.888.888 0 0 1-.029.41zm-.138-29.41a9.545 9.545 0 0 0 2.1 1.39 3.488 3.488 0 0 1 1.6 2.34c.21.71.336 1.44.518 2.15a2.809 2.809 0 0 0 .336.91.748.748 0 0 0 .772.41c.3-.09.111-.45.172-.69a.36.36 0 0 1 .225-.26.409.409 0 0 1 .322.15 1.868 1.868 0 0 1 .383 1.1 2.8 2.8 0 0 0 2.336 2.46 1.216 1.216 0 0 0 1.05-.11 10.408 10.408 0 0 1 .953-.58.915.915 0 0 1 1.4.93 3.769 3.769 0 0 1-.531 2.49 3.334 3.334 0 0 0-.407.89.647.647 0 0 1-.667.5c-1.174.11-1.365.31-1.431 1.54a5.043 5.043 0 0 1-.38 1.74 16.9 16.9 0 0 1-2.273 3.87 1.438 1.438 0 0 1-2.337-.37.886.886 0 0 1-.029-.57 8.722 8.722 0 0 1 .4-.9c.614-1.45.478-2.02-.68-2.87a15.99 15.99 0 0 1-1.343-1.03 1.071 1.071 0 0 1-.042-1.72c1.269-.88 1.263-2.37 1.639-3.68a2.4 2.4 0 0 0-.288-1.74 24.191 24.191 0 0 0-1.807-3.48 16.52 16.52 0 0 1-2.113-4.22.566.566 0 0 1 .122-.65zm-53.9 22.2a5.633 5.633 0 0 1-1.622 4.08c-.42.48-.855.95-1.232 1.47a1.247 1.247 0 0 1-.926.85 1.948 1.948 0 0 1-1.77-.83 11.212 11.212 0 0 1-1.642-3.56c-.2-.92-.486-1.81-.727-2.71a5.5 5.5 0 0 1-.21-.97c-.1-1.18.422-1.67 1.405-1.31a2 2 0 0 1 .657.33 2.844 2.844 0 0 0 3.26.31c.4-.15.778-.37 1.178-.51a1.006 1.006 0 0 1 1.393.86c.138.65.154 1.32.232 1.99zm3.536-96.61a5.624 5.624 0 0 1-3.135-1.32.456.456 0 0 1-.1-.55.5.5 0 0 1 .254-.25c.353-.07.712-.08 1.071-.12a3.105 3.105 0 0 0 1.242-.19c.641-.41 1.188-.91 1.869-.08a.641.641 0 0 0 .666-.08c.7-.6 1.586-1.02 1.844-2.11a1 1 0 0 1 .313-.47.819.819 0 0 1 .854-.16.8.8 0 0 1 .539.73 3.117 3.117 0 0 1-.72 2.41 5.811 5.811 0 0 1-4.701 2.19zm31.031 34.83a1.823 1.823 0 0 1 .509.1 5.082 5.082 0 0 1 1.867 1.55 6.031 6.031 0 0 0 2.174 2.07 1.919 1.919 0 0 1 .31.21c.79.62 1.2 1.34.872 1.52a1.49 1.49 0 0 1-1.5-.4 11.024 11.024 0 0 1-4.138-3.8 1.454 1.454 0 0 1-.307-.91.987.987 0 0 1 .209-.34zm30.268-5.09a6.761 6.761 0 0 1-.9-.23.827.827 0 0 1-.568-.69.963.963 0 0 1 .313-.88 2.04 2.04 0 0 1 1.5-.5 1.28 1.28 0 0 1 1.024 1.38.709.709 0 0 1-.371.63 7.537 7.537 0 0 1-1.002.29zM39.04 22.86c.2-.03.376-.07.56-.08a.569.569 0 0 1 .59.34.811.811 0 0 1-.171.91 1.039 1.039 0 0 1-.972.39c-.473-.07-.946-.16-1.416-.26a.5.5 0 0 1-.366-.59.809.809 0 0 1 .39-.63 3.435 3.435 0 0 1 1.381-.08zm55.057-11.04a.93.93 0 0 1-.5-.24 36.776 36.776 0 0 1-1.475-2.46.727.727 0 0 1 .149-.51.3.3 0 0 1 .33-.02 6.971 6.971 0 0 1 2.121 2.35.655.655 0 0 1-.629.88zm10.281 5.42c.4.56.779 1.05 1.139 1.56a.425.425 0 0 1-.258.6 3.939 3.939 0 0 1-1.916-.33.821.821 0 0 1-.493-.76.61.61 0 0 1 .433-.56c.372-.18.745-.34 1.091-.51zm40.387 19.87a2.373 2.373 0 0 1-.446-.45.535.535 0 0 1 .205-.68 4.39 4.39 0 0 1 1.828-.79.514.514 0 0 1 .7.4.737.737 0 0 1-.266.88c-.663.27-1.362.43-2.025.64zM52.923 89.67a4.908 4.908 0 0 1-.817-.18.557.557 0 0 1-.277-.45.724.724 0 0 1 .223-.48 1.723 1.723 0 0 1 1.155-.43 1.378 1.378 0 0 1 1.346.75c.167.35-.443.74-1.232.79h-.4zM86.691 3.5a4.162 4.162 0 0 1 1.512 1.09 1.541 1.541 0 0 1 .481 1.25.661.661 0 0 1-.382.62.445.445 0 0 1-.6-.29c-.229-.54-.424-1.11-.661-1.65a9.465 9.465 0 0 0-.459-.87zm9.665 10.26a.51.51 0 0 1 .166-.02 9.624 9.624 0 0 1 2.22 1.31c.485.43.759 1.04.518 1.11a1.1 1.1 0 0 1-.923-.48c-.66-.46-1.324-.93-1.97-1.41a.64.64 0 0 1-.106-.36.418.418 0 0 1 .091-.15zm6.713 1.51a.639.639 0 0 1-.281.18 3.755 3.755 0 0 1-1.993-1.29.472.472 0 0 1-.06-.37.277.277 0 0 1 .436-.15A6.975 6.975 0 0 1 103 14.89a.876.876 0 0 1 .065.38zm62.712 14.22a.632.632 0 0 1-.261.22 3.08 3.08 0 0 1-1.879-.61.633.633 0 0 1-.229-.49.379.379 0 0 1 .569-.27 17.527 17.527 0 0 1 1.654.82.7.7 0 0 1 .146.33zm-58.757-11.38a.908.908 0 0 1-.363.22.455.455 0 0 1-.324-.13 3.611 3.611 0 0 1-1.012-2.07.588.588 0 0 1 .159-.32.154.154 0 0 1 .171.01 9.428 9.428 0 0 1 1.369 2.29zm12.1 14.79a.572.572 0 0 1-.4.59.65.65 0 0 1-.5-.06 1.613 1.613 0 0 1-.441-1.42.314.314 0 0 1 .254-.19 1.194 1.194 0 0 1 1.084 1.08zM86.584 3.65a6.534 6.534 0 0 1-2.814-1.64.377.377 0 0 1-.049-.33.3.3 0 0 1 .3-.11 10.607 10.607 0 0 1 2.67 1.94zm34.765 121.53a1.024 1.024 0 0 1-.975 1.18.413.413 0 0 1-.221-.26 1.405 1.405 0 0 1 .41-1.24.334.334 0 0 1 .481-.07 2.025 2.025 0 0 1 .302.39zM107.357 20.24a1.215 1.215 0 0 1 1.156.79.493.493 0 0 1-.024.37.367.367 0 0 1-.3.18 1.319 1.319 0 0 1-1.1-.9.27.27 0 0 1 0-.2 1.9 1.9 0 0 1 .265-.24zm-30.282 81.03a1.591 1.591 0 0 1 .785 1.79.27.27 0 0 1-.29.11 2.263 2.263 0 0 1-.78-1.7.782.782 0 0 1 .282-.2zm20.8-88.85a.856.856 0 0 1-.252.35 1.525 1.525 0 0 1-1.532-1.3.321.321 0 0 1 .232-.21 3.48 3.48 0 0 1 1.552 1.16zm-46.2 16.71a.679.679 0 0 1 .664.75.519.519 0 0 1-.418.56.6.6 0 0 1-.642-.54.64.64 0 0 1 .393-.77zm32.079-8.97c-.307-.57-.624-1.14-.915-1.72a.405.405 0 0 1 .156-.32.35.35 0 0 1 .33-.01 2.711 2.711 0 0 1 .834 1.49c.1.27-.218.42-.429.54zm37.558 12.11a.837.837 0 0 1 .308.22 1.2 1.2 0 0 1 .022.57 2.2 2.2 0 0 1-.323.68.785.785 0 0 1-.446-.24.584.584 0 0 1 .024-.87c.129-.14.284-.24.412-.36zm34.493 82.41a.53.53 0 0 1-.357.58c-.293.08-.547-.31-.537-.82a.406.406 0 0 1 .449-.46c.379.03.435.35.442.7zm-35.644-79.2a.661.661 0 0 1-.228.23.734.734 0 0 1-.666-.94.315.315 0 0 1 .279-.18.874.874 0 0 1 .612.89zm-51.732 65.79a.406.406 0 0 1-.287.47c-.3.04-.346-.28-.346-.54s.049-.56.376-.53c.181.03.244.25.254.6zm20.046-78.65a1.229 1.229 0 0 1 .965.7.374.374 0 0 1-.127.28.907.907 0 0 1-.949-.66.791.791 0 0 1 .108-.32zm70.145 25.53a.664.664 0 0 1-.162.27.493.493 0 0 1-.6-.25.261.261 0 0 1 .218-.4.523.523 0 0 1 .541.38zM58.058 36.48a.632.632 0 0 1-.227-.25.429.429 0 0 1 .434-.5.3.3 0 0 1 .341.35.484.484 0 0 1-.551.4zm58.5 103.04a.871.871 0 0 1 .238-.38c.194-.11.332.07.32.27a.645.645 0 0 1-.2.45c-.184.1-.319-.06-.365-.34zM74.914.38a.365.365 0 0 1-.465.19.28.28 0 0 1-.119-.46.386.386 0 0 1 .5-.06.224.224 0 0 1 .077.33zm7.171 1.19a.319.319 0 0 1-.261-.4.271.271 0 0 1 .395-.21.4.4 0 0 1 .2.28.3.3 0 0 1-.338.33zm61.782 40.52a.548.548 0 0 1 .152.25.364.364 0 0 1-.515.28.161.161 0 0 1-.1-.14.386.386 0 0 1 .456-.39z" fill="#ef5b5b" fill-rule="evenodd"/></svg>