<svg xmlns="http://www.w3.org/2000/svg" width="117.969" height="156.84"><path d="M43.116 115.13c.344-.03.649-.23 1.006-.25a.359.359 0 0 1 .413.3 6.752 6.752 0 0 1 .253.82.684.684 0 0 0 .564.55c.1.04.225.07.262-.07a.358.358 0 0 0-.117-.4 1.969 1.969 0 0 0-.248-.07.481.481 0 0 1-.3-.37 1.392 1.392 0 0 0-.237-.85.153.153 0 0 1 .085-.23.625.625 0 0 0 .551-.51.144.144 0 0 1 .171-.1 1.975 1.975 0 0 0 1.343-1.24.233.233 0 0 0-.073-.3 4.237 4.237 0 0 1-.849-1.56 2.651 2.651 0 0 1-.247-1.24 1.772 1.772 0 0 0-.26-.74c-.1-.24-.182-.49-.308-.73a3.522 3.522 0 0 1-.364-1.93c0-.18.031-.37-.156-.43a.905.905 0 0 1-.512-.87 2.576 2.576 0 0 1-.213.94.488.488 0 0 1-.494.41.716.716 0 0 0-.7.49c-.263.51-.717.83-1 1.32a.788.788 0 0 1-.329.27 2.163 2.163 0 0 0-.752.45.382.382 0 0 1-.439.09 1.248 1.248 0 0 0-.725-.18.265.265 0 0 1-.1-.02c-.327-.54-.957-.65-1.305-1.16a1.023 1.023 0 0 1-.243-.89c.063-.23.037-.52.384-.48a1.324 1.324 0 0 0 .383-.71c-.017-.11-.113-.2-.176-.16-.247.16-.655-.02-.767.43a.12.12 0 0 1-.166.09.192.192 0 0 1-.109-.19 1.953 1.953 0 0 1 .226-.98.4.4 0 0 0 .014-.55.464.464 0 0 1 .02-.58c.068-.11.145-.21.209-.31 0-.18-.151-.14-.223-.21a.488.488 0 0 1-.094-.73c.1-.18.146-.26-.043-.41a.888.888 0 0 1-.229-.99 1.22 1.22 0 0 0 .016-.83.869.869 0 0 1 .107-.77.341.341 0 0 0-.035-.45.652.652 0 0 1 .006-.9.723.723 0 0 0 .094-.2c.094-.48.093-.48.493-.54.1-.01.2-.03.31-.05.077-.1-.043-.17-.043-.25-.018-.37.074-.45.387-.35s.317.09.312-.27a.4.4 0 0 1 .277-.42 1.153 1.153 0 0 1 .608-.07.429.429 0 0 0 .435-.05c-.016-.19-.152-.13-.238-.15a.441.441 0 0 1-.31-.47.357.357 0 0 1 .3-.41.477.477 0 0 0 .484-.4.628.628 0 0 1 .326-.27.206.206 0 0 0 .065-.32c-.162-.34-.143-.45.062-.54s.327 0 .42.33a1.209 1.209 0 0 1 .019.17.308.308 0 0 0 .278-.3.846.846 0 0 0-.165-.66c-.172-.16-.146-.23.02-.33a2.284 2.284 0 0 0 .312-.2c.116-.08.234-.13.3.03a3.823 3.823 0 0 1 .508.46c.037.11.138.09.225.04.139-.07.276-.13.457-.22a.519.519 0 0 1 .128-.85.33.33 0 0 0 .1-.19 4.769 4.769 0 0 1 1.057-1.81c.1-.16.222-.11.367-.04.276.15.364.06.317-.27a1.455 1.455 0 0 0-.079-.27.5.5 0 0 1 .051-.45c.37-.37.47-1.12 1.251-.99-.4-.34-.378-.33-.231-.73a4.666 4.666 0 0 1 .554-1.16.366.366 0 0 0-.016-.55.3.3 0 0 1 .059-.49c.329-.18.266-.72.655-.84.052-.01.029-.09.024-.15a1.768 1.768 0 0 1 .46-1.6.367.367 0 0 0 .147-.22.581.581 0 0 1 .413-.59.7.7 0 0 0 .421-.67 2.081 2.081 0 0 1 .383-1.03.347.347 0 0 1 .552-.22c.056.03.121.11.162 0a.49.49 0 1 0-.15-.45c-.139.09-.288.19-.411 0a.688.688 0 0 1 .247-.71 1 1 0 0 0 .887-.75.316.316 0 0 1 .1-.12c.307-.39.37-.38.571.1a.146.146 0 0 0 .155.11 5.21 5.21 0 0 0-.09-.83.4.4 0 0 1 .2-.52c.213-.15.182-.29.024-.45l.266-.3a.463.463 0 0 0 .206-.42.948.948 0 0 1 .348-.79c.124-.2.323-.04.5-.09.046-.21.1-.43.166-.77a1.177 1.177 0 0 1-.74.44c-.211.03-.328-.08-.247-.28a1.508 1.508 0 0 0 .048-.48 1.116 1.116 0 0 1 .348-.86 3.169 3.169 0 0 0 .377-.47.323.323 0 0 1 .539.04c.137.18.188.47.507.3.064-.04.135.09.178.18a.567.567 0 0 0 .323.4 1.2 1.2 0 0 0-.558-.81c-.181-.07-.216-.17-.1-.39a3.971 3.971 0 0 1 .548-.66.821.821 0 0 0 .182-.83c-.1-.33-.016-.41.286-.39a2.726 2.726 0 0 1 .76.34c.142.06.107.21.071.35-.112.42-.106.42.248.67a2.436 2.436 0 0 0 .353-.56.253.253 0 0 1 .266-.13.257.257 0 0 1 .172.25 1.2 1.2 0 0 1 .023.57 1.019 1.019 0 0 0 .013.57.758.758 0 0 0 .11-.51 1.913 1.913 0 0 1 .361-.76c.066-.08.189-.2.26-.11.224.29.218.05.242-.11a.307.307 0 0 1 .124-.26 1.666 1.666 0 0 1 .587.59c.207-.52.209-.52-.126-.83a.594.594 0 0 1-.221-.49c0-.23 0-.34.3-.37.355-.02.606-.03.716.42.078-.14.266-.12.2-.37-.1-.39-.078-.41.289-.41.236 0 .3-.1.236-.32a.144.144 0 0 0-.188-.13c-.136.03-.273.04-.408.07a.26.26 0 0 1-.326-.2c-.188-.43-.2-.44.195-.7a.906.906 0 0 1 .377-.17c.5-.1.669.04.714.67a.507.507 0 0 1 .7.35 2.528 2.528 0 0 0-.088-.72.3.3 0 0 1 .1-.35.288.288 0 0 1 .32.13 3.086 3.086 0 0 1 .239.44c.261-.15.4-.31.192-.62a.269.269 0 0 1 .074-.4.936.936 0 0 0 .208-.32.408.408 0 0 1 .709-.01c.145.21.269.41.542.2a.232.232 0 0 1 .325.08.334.334 0 0 1 0 .33 2.991 2.991 0 0 1-.37.62 1.778 1.778 0 0 0-.342 1 1.351 1.351 0 0 1-.226.81.215.215 0 0 0 0 .29.914.914 0 0 0 .266-.47 16.189 16.189 0 0 1 1.341-2.71.3.3 0 0 1 .327-.23.378.378 0 0 1 .217.37.69.69 0 0 1-.013.38 2.249 2.249 0 0 0-.008 1.14.158.158 0 0 0 .209-.1 13.687 13.687 0 0 0 .744-2.2c.016-.19.087-.28.274-.2a.346.346 0 0 0 .2.03.347.347 0 0 1 .474.04 1.114 1.114 0 0 1 .324.5.728.728 0 0 1-.573.8.166.166 0 0 0 .084.19.4.4 0 0 1 .165.64.5.5 0 0 0-.071.16.152.152 0 0 0 .143.19.128.128 0 0 0 .181-.14 3.735 3.735 0 0 1 .06-.91.6.6 0 0 1 .667-.62.36.36 0 0 1 .383.3.353.353 0 0 0 .466.34.72.72 0 0 1 .674.32c.248.31.6.49.843.81a.477.477 0 0 1-.053.8c-.058.05-.129.07-.176.12a1.624 1.624 0 0 1-2.031.54 1.621 1.621 0 0 0 .779.7.493.493 0 0 1 .342.44c.037.33.3.41.514.17a.451.451 0 0 1 .377-.12 1.945 1.945 0 0 1 1.088.55c-.029-.44.389-.58.364-.98a.124.124 0 0 1 .193-.11 1.34 1.34 0 0 1 .334.15 2.389 2.389 0 0 0 .8.5.366.366 0 0 1 .231.5.488.488 0 0 1-.477.43 3.033 3.033 0 0 1-.6-.22 3.049 3.049 0 0 0 1.111.76.444.444 0 0 1 .305.27.231.231 0 0 0 .322.2 2.168 2.168 0 0 1 1.5.21.99.99 0 0 0 .542.05.946.946 0 0 1 .8.14 4.524 4.524 0 0 1 .839.57 21.905 21.905 0 0 1 1.686 1.61 3.5 3.5 0 0 1 .715.98c.043.12.133.28.267.15.188-.21.284-.04.367.09a2 2 0 0 0 .495.59c.162.12.3.49.573.12.05-.07.165.02.218.1.113.14.213.3.318.45a1.708 1.708 0 0 0 .746.81.76.76 0 0 1 .378.64 6.549 6.549 0 0 0 .365 1.61.951.951 0 0 1-.029.67c-.592 2-2.273 3.48-4.352 3.11a1.232 1.232 0 0 1-.612-.28 1.507 1.507 0 0 0-.764-.34 5.03 5.03 0 0 1-2.2-.89.519.519 0 0 0-.438-.13.343.343 0 0 1-.484-.27c-.023-.07-.079-.17-.139-.15a1.111 1.111 0 0 1-.9-.26 1.458 1.458 0 0 1-.945-.91.477.477 0 0 0-.638-.36c.256.53.484 1.04.743 1.53a1.336 1.336 0 0 0 .625.58.465.465 0 0 1 .311.19 2.133 2.133 0 0 0 1.047 1 1.763 1.763 0 0 1 .537 1.08 1.717 1.717 0 0 1-.294 1.55.343.343 0 0 0-.053.46c.206.37.217.8.394 1.19a2.288 2.288 0 0 1 .065.85 1.1 1.1 0 0 0 .208.63.426.426 0 0 0 .534.23.41.41 0 0 1 .5.19 1.573 1.573 0 0 1 .131.18 2.874 2.874 0 0 0 1.56 1.15.728.728 0 0 0 .908-.84c-.013-.09-.036-.19-.053-.28-.1-.47-.1-.49-.5-.36a.408.408 0 0 1-.538-.19c-.234-.36-.472-.7-.681-1.08a.476.476 0 0 1 .082-.7.828.828 0 0 0 .237-.5.287.287 0 0 1 .439-.23 1.549 1.549 0 0 1 .705.47 2.308 2.308 0 0 0 1.179.73 1.944 1.944 0 0 1 .622.29.978.978 0 0 0 1.032.31c.243-.09.517.19.865.14a5.716 5.716 0 0 0-.661-1.62 2.992 2.992 0 0 1-.486-1.38.6.6 0 0 1 .3-.66 1.565 1.565 0 0 0 .655-.72.55.55 0 0 1 .384-.36 2.44 2.44 0 0 0 1.5-1.39c.048-.07.078-.17.126-.25.177-.27.27-.31.5-.1a1.083 1.083 0 0 0 .612.27.927.927 0 0 1 .807.63c.1.32.52.28.5.71a.416.416 0 0 0 .123-.48 1.4 1.4 0 0 1 .127-1.11 3.57 3.57 0 0 0 .246-1.56.551.551 0 0 0-.377-.62.652.652 0 0 1-.43-.8 3.167 3.167 0 0 1 .117-.68 9.656 9.656 0 0 0 .279-2.44.957.957 0 0 0-.339-.84 3.907 3.907 0 0 1-.707-.76.209.209 0 0 1-.016-.26.16.16 0 0 1 .195-.03.7.7 0 0 1 .14.06 2.547 2.547 0 0 0 1.789.4 2.072 2.072 0 0 1 .815.13.809.809 0 0 1 .561.61.805.805 0 0 0 .46.64.357.357 0 0 1 .174.33c.032.19.055.38.092.57.117.58.117.58-.377.71a1.491 1.491 0 0 1-.359.07 1.4 1.4 0 0 0-1.086.94.478.478 0 0 0 .074.58 4.4 4.4 0 0 1 .922 1.44.324.324 0 0 0 .5.22.2.2 0 0 1 .289.02c.092.12.172.04.276.03a1.089 1.089 0 0 0 1.079-1.37 1.646 1.646 0 0 1 .081-.39 1.115 1.115 0 0 1 .968-1.19.274.274 0 0 0 .252-.25.7.7 0 0 1 .425-.51 10.924 10.924 0 0 0 1.944-1.52.717.717 0 0 1 .113-.12c.525-.27 1.049-.55 1.581-.82a.371.371 0 0 1 .507.25c.043.09.1.18.2.09a.25.25 0 0 0 .065-.26c-.038-.16-.276-.24-.147-.45a3.276 3.276 0 0 1 .384-.46c.194-.19.306-.13.313.16a.349.349 0 0 0 .073.13c.14 0 .146-.1.15-.2a.961.961 0 0 1 .662-.92c.371-.16.773-.08 1.227-.26a1.042 1.042 0 0 1-.812.54 1.225 1.225 0 0 1 .046.94 3.2 3.2 0 0 0 .088 1.14.188.188 0 0 0 .224.18.467.467 0 0 1 .367.18c.211.2.329.16.347-.17a1.19 1.19 0 0 1 .608-1 7.612 7.612 0 0 0 .851-.4c.4.18.843-.02 1.243.17.367.17.357.16.6-.2a3.44 3.44 0 0 1 1.471-1.3c.435-.18.441-.18.659.28a1.891 1.891 0 0 0 .166.29.556.556 0 0 1 0 .84.67.67 0 0 0 .1.91.307.307 0 0 0 .384-.01.535.535 0 0 0 .207-.55 1.461 1.461 0 0 1-.053-.28.368.368 0 0 1 .3-.45 1.126 1.126 0 0 0 .85-1.64 4.3 4.3 0 0 0-.34-.96 1.984 1.984 0 0 1-.257-1.08.715.715 0 0 1-.943-.5c-.042-.13-.2-.18-.26.04-.048.18-.172.24-.249.07-.2-.42-.478-.78-.65-1.23a1.647 1.647 0 0 1 .26-1.43c.107-.21.3-.23.419-.03.432.73 1.133 1.18 1.545 1.92.114.21.251.41.4.66a.838.838 0 0 1 .393-.29.648.648 0 0 1 .449.11 1.811 1.811 0 0 0 1.044.28 4.274 4.274 0 0 1 1.862.59 2.391 2.391 0 0 1 1.019.65 1.21 1.21 0 0 1 .3.82 3.725 3.725 0 0 1 0 .41 2.7 2.7 0 0 0 .352 1.71 1.555 1.555 0 0 1 .064 1.42 2.028 2.028 0 0 0-.178.72.578.578 0 0 0 .626.68c.491-.04.567.04.6.6.014.25.025.49.015.75a1.268 1.268 0 0 1-.527 1.06.752.752 0 0 0-.355.52 1.73 1.73 0 0 1-.726 1.08q-.4.285-.8.54a1.629 1.629 0 0 0-.826 1.18 1.908 1.908 0 0 1-.716 1.22 11.182 11.182 0 0 0-2.161 2.54 1.335 1.335 0 0 1-1.419.83.28.28 0 0 0-.362.3 12.8 12.8 0 0 1-.64 3.13 2.2 2.2 0 0 0-.011 1.03 1.767 1.767 0 0 1-.121 1.22c-.1.2-.16.43-.248.63a.364.364 0 0 0 .08.46.813.813 0 0 1 .2.74 3.665 3.665 0 0 1-.081.51 3.113 3.113 0 0 0 .07 1.81 2.62 2.62 0 0 1 .135.96.446.446 0 0 1-.347.54c-.2.02-.19.21-.137.35a2.6 2.6 0 0 0 .229.46 1.727 1.727 0 0 1 .037 1.97 3.68 3.68 0 0 1-.737 1.02.47.47 0 0 0-.165.46.932.932 0 0 1-.013.46.436.436 0 0 0 .111.46c.149.19.272.4.433.58a2.491 2.491 0 0 1 .56 1.57 1.712 1.712 0 0 1-.377 1.1 7.15 7.15 0 0 1-.709.92 3.29 3.29 0 0 0-.707 1.19c-.142.44-.272.87-.39 1.31a2.987 2.987 0 0 0-.061 1.14c.1.8.441 1.08 1.14.94.919-.18 1.127.06.986 1.09-.02.13-.041.26-.064.39a1.008 1.008 0 0 1-1.608.8l-.039-.03c-.19-.12-.379-.35-.6-.13a.635.635 0 0 0 0 .7 5.168 5.168 0 0 0 .214.64 1.292 1.292 0 0 0 1.154.72.606.606 0 0 0 .445-.27 1.944 1.944 0 0 1 .939-.57c.282-.12.445.03.409.36a2.678 2.678 0 0 1-.685 1.81 3.824 3.824 0 0 0-.64 1.04.625.625 0 0 0-.071.44c.112.55.227 1.09.338 1.63a.34.34 0 0 0 .438.34 1.761 1.761 0 0 1 .513-.01.491.491 0 0 1 .489.49 1.683 1.683 0 0 0 .976 1.28 1.947 1.947 0 0 0 .89.42.419.419 0 0 1 .325.55 1.386 1.386 0 0 1-1.263 1.35.464.464 0 0 1-.4-.08c-.253-.26-.4-.12-.58.12a.452.452 0 0 1-.727.12 1.452 1.452 0 0 0-.434-.17.72.72 0 0 1-.493-.47c-.207-.51-.451-.63-.891-.35a.8.8 0 0 1-.941.04.96.96 0 0 0-1.075.36c-.074.08-.127.18-.2.27a.6.6 0 0 1-.8.16 3.062 3.062 0 0 1-.838-.66.636.636 0 0 0-.132.49.244.244 0 0 1-.171.25.193.193 0 0 1-.225-.19c-.117-.78-.778-1.1-1.135-1.67a.538.538 0 0 0-.531-.15.979.979 0 0 1-.944-.33c-.146-.21-.359-.15-.547.02-.421.39-.424.38-.883.08a.453.453 0 0 0-.726.12 2.677 2.677 0 0 1-1.13.98.534.534 0 0 0-.348.37 1.124 1.124 0 0 1-.562.57c-.362.27-.368.28-.258.74.029.12.063.23.086.34a.754.754 0 0 1-.613.88.394.394 0 0 1-.38-.33 2.272 2.272 0 0 0-.446-.77c-.213-.23-.325-.22-.379.1a1.877 1.877 0 0 1-.377.85 1.164 1.164 0 0 0-.159 1.13.622.622 0 0 1-.136.77 1.078 1.078 0 0 0-.247.62.412.412 0 0 0 .236.55.685.685 0 0 1 .383.63.441.441 0 0 0 .509.5c.141 0 .274 0 .417.01a.421.421 0 0 1 .333.13 2.289 2.289 0 0 1 .677 1.95.4.4 0 0 1-.437.38.169.169 0 0 0-.168.18.171.171 0 0 0 .128.16.485.485 0 0 1 .4.46 1.35 1.35 0 0 1-.324.77.337.337 0 0 1-.594-.11c-.042-.08-.072-.17-.113-.25a.23.23 0 0 0-.117-.18 7.2 7.2 0 0 1-.907 2.39 4.718 4.718 0 0 0-.2.47.422.422 0 0 0 .145.62 1.922 1.922 0 0 1 .477.74c.058.13.035.36.294.24.094-.04.148.15.141.26a3.061 3.061 0 0 1-.094.56 1.736 1.736 0 0 0 .178 1.27c.3.52.548 1.06.826 1.6a.614.614 0 0 1-.17.71c-.149.19-.308.36-.461.54a.583.583 0 0 1-.98-.1 2.709 2.709 0 0 0-1.121-1.07 1.158 1.158 0 0 1-.8-.88.623.623 0 0 0-.487-.37 1.152 1.152 0 0 0-1.28-.1.427.427 0 0 1-.61-.1c-.024-.03-.048-.05-.076-.08a2.5 2.5 0 0 0-2.031-.91 3.2 3.2 0 0 1-1.595-.45.9.9 0 0 0-.945-.06.311.311 0 0 1-.381-.07 2.541 2.541 0 0 1-.567-.58 2.2 2.2 0 0 0-.828-.77 3.273 3.273 0 0 1-1.116-.7.272.272 0 0 0-.189-.09.734.734 0 0 1-.629-.51.917.917 0 0 0-.18-.28c-.18-.13-.324-.44-.6-.05a.62.62 0 0 1-.734.11.748.748 0 0 0-.821.22q-.666.45-1.316.93a.639.639 0 0 1-.554.06.475.475 0 0 1-.365-.58c.01-.15.023-.31.023-.45a.441.441 0 0 0-.227-.43 3.39 3.39 0 0 0-.741-.38c-.266-.05-.3-.24-.079-.44a2.175 2.175 0 0 1 1.307-.81.888.888 0 0 0-.973-.18c-.514.22-.874-.25-1.319-.33a1.346 1.346 0 0 0-.312-.64.226.226 0 0 0-.14-.15 1.288 1.288 0 0 0-.885.4 3.5 3.5 0 0 0-.374.61 1.1 1.1 0 0 1-.587.68.685.685 0 0 0-.381.69c.007.15 0 .31 0 .46a.874.874 0 0 1-.478.93 2.8 2.8 0 0 0-.657.64.752.752 0 0 0-.129.54 4.242 4.242 0 0 1-.063.97.651.651 0 0 1-.408.55.643.643 0 0 0-.434.69.617.617 0 0 1-.2.56.4.4 0 0 0-.081.55 3.163 3.163 0 0 1 .431 1.21.607.607 0 0 0 .384.45c.2.1.406.19.619.28a.308.308 0 0 1 .248.32.393.393 0 0 1-.259.38.648.648 0 0 1-.455.03 1.5 1.5 0 0 0-1.605.5 12.347 12.347 0 0 0-.987.93c-.094.12-.244.27-.4.12a.411.411 0 0 1-.02-.48 1.487 1.487 0 0 1 .144-.26 2.558 2.558 0 0 0-1.342-.7c-.305-.07-.416-.01-.484.32-.038.19-.079.35-.279.32-.218-.03-.205-.21-.168-.39a.612.612 0 0 0-.045-.15 7.859 7.859 0 0 0-.729.43 1.67 1.67 0 0 1 .574.74.834.834 0 0 1-.488-.11.607.607 0 0 0 .085.34.233.233 0 0 1-.053.2 1.592 1.592 0 0 0-.578.09.454.454 0 0 1-.255-.27 1.56 1.56 0 0 0-.659-.66.548.548 0 0 0-.1.58 2.675 2.675 0 0 0 .371.88 2.122 2.122 0 0 1 .448.94.926.926 0 0 0 .677.65.737.737 0 0 1 .549.6 1.747 1.747 0 0 0 .654.71 6 6 0 0 0 .5.64.136.136 0 0 1-.016.2.177.177 0 0 1-.139.04.251.251 0 0 1-.141-.06 6.708 6.708 0 0 0-1.15-.91c-.007.03-.017.08-.024.13-.024.66-.021.66-.508.33a.57.57 0 0 0-.231-.12.241.241 0 0 0-.318.1.285.285 0 0 0 .106.3c.047.05.109.1.154.15a.26.26 0 0 1-.078.42.591.591 0 0 0-.436.32 1.816 1.816 0 0 0 .107.56 2.951 2.951 0 0 1 0 .97c-.012.12-.047.24-.184.23a.233.233 0 0 1-.2-.23.587.587 0 0 0-.194-.61c-.105-.02-.117.1-.152.18-.047.1-.089.22-.218.19a.3.3 0 0 1-.149-.22 4.179 4.179 0 0 0-.147-.43.136.136 0 0 0-.218-.06c-.344.18-.532.07-.578-.32a.715.715 0 0 1 .011-.28.519.519 0 0 0-.209-.59.77.77 0 0 1-.029-1.25c.061-.06.181-.03.185-.22-.425.11-.6-.16-.75-.54a10.355 10.355 0 0 0-.967-1.76.477.477 0 0 0 0 .28.178.178 0 0 1-.225.17.65.65 0 0 1-.278-.83c.083-.12.18-.23.025-.31a1.377 1.377 0 0 1-.52-1.72 7.1 7.1 0 0 1 .117-1.42.227.227 0 0 0-.058-.21 6.468 6.468 0 0 0-1.842-1.74 1.383 1.383 0 0 0-1.224-.3.263.263 0 0 1-.152.01.2.2 0 0 1-.221-.19.172.172 0 0 1 .183-.16c.05-.01.1 0 .155-.01.12-.02.285-.05.273-.2a.248.248 0 0 0-.359-.21 1.207 1.207 0 0 1-1.143-.58c-.207-.16-.395-.41-.6-.61a.813.813 0 0 1-.375-.86.228.228 0 0 0-.1-.24 1.169 1.169 0 0 1-.309-.66.292.292 0 0 0-.312-.31c-.206.03-.12.23-.128.36a.16.16 0 0 1-.071.15.255.255 0 0 1-.215-.2c-.052-.08-.1-.17-.2-.1-.319.21-.428-.06-.548-.3a1.414 1.414 0 0 1-.131-1.27.721.721 0 0 0-.679.1 3.915 3.915 0 0 1-.566.27c-.3.12-.379.29-.207.56a.772.772 0 0 1 .06.69 1.258 1.258 0 0 0 .548 1.6 4.066 4.066 0 0 1 .808.61 1.187 1.187 0 0 1 .341.63c.1.32.215.64.315.97a3.562 3.562 0 0 0 1.293 1.53.754.754 0 0 0 .555.03 3.712 3.712 0 0 0 .463-.04.372.372 0 0 1 .345.6c-.172.3-.083.44.147.51a19.442 19.442 0 0 1 1.926 1.11 2.318 2.318 0 0 1 .89 1.22.54.54 0 0 1-.1.48.194.194 0 0 1-.318.06.416.416 0 0 1-.183-.19 2.173 2.173 0 0 0-.975-.8.173.173 0 0 0-.142-.06.775.775 0 0 0-.53.58.562.562 0 0 0 .03.73 2.809 2.809 0 0 1 .353.34.8.8 0 0 1-.149 1.2.578.578 0 0 0-.305.54.543.543 0 0 1-.2.45 1.381 1.381 0 0 0-.35.49c-.2.37-.347.42-.668.2-.146-.1-.217-.08-.285.05a1.425 1.425 0 0 0-.228 1.29.72.72 0 0 1 .036.29c-.036.59-.368.81-.851.55a1.924 1.924 0 0 1-.339-.26 1.013 1.013 0 0 0-.239-.22c-.695-.15-1.155-.83-1.842-1.01a.7.7 0 0 1-.323-.91.281.281 0 0 1 .159-.21c.4.1.79-.31 1.187-.01a.952.952 0 0 0 .8.16 15.536 15.536 0 0 0 1.759-.45.318.318 0 0 0 .255-.25.731.731 0 0 1 .342-.66.2.2 0 0 0 .041-.21c-.094-.61-.438-1.12-.554-1.73a.156.156 0 0 0-.119-.09.977.977 0 0 1-.88-.86.256.256 0 0 0-.236-.26 1 1 0 0 1-.839-.64.912.912 0 0 0-.9-.53.675.675 0 0 1-.608-.23 4.024 4.024 0 0 1-.6-.65c-.266-.43-.715-.66-.962-1.11a.157.157 0 0 0-.121-.1c-.5.08-.511-.47-.749-.72a1.708 1.708 0 0 1-.536-.95 7.745 7.745 0 0 0-.348-1.15.337.337 0 0 0-.064-.15 4.626 4.626 0 0 0-1.459-.83.677.677 0 0 0-.714.47 1.184 1.184 0 0 1-.913.67 2.147 2.147 0 0 0-1.079.84.936.936 0 0 1-1.412.31c-.587-.32-1.244-.25-1.833-.52a.315.315 0 0 0-.335.09c-.191.13-.381.26-.578.38a.581.581 0 0 0-.3.66 3.118 3.118 0 0 0 .172.89 1.268 1.268 0 0 1-.361 1.26 6.869 6.869 0 0 1-2.062 1.29.973.973 0 0 0-.584.53c-.346.59-.72 1.17-1.092 1.75a.988.988 0 0 0 .147 1.51.366.366 0 0 1 .037.55.712.712 0 0 1-.189.19 2.036 2.036 0 0 0-.8 1.3.526.526 0 0 1-.467.45 1.074 1.074 0 0 0-.89.84.752.752 0 0 1-.735.57c-.572.09-1.134-.02-1.7.02a2.053 2.053 0 0 0-1.037.29 3.234 3.234 0 0 0-.97.71.653.653 0 0 1-1-.21 3.267 3.267 0 0 1-.43-.85.877.877 0 0 0-1.221-.68 3.416 3.416 0 0 1-1.577.15c-.4.01-.519-.15-.39-.56a5.791 5.791 0 0 0 .112-1.55.292.292 0 0 0-.142-.32c-.831-.44-.831-.96-.437-1.77a13.563 13.563 0 0 0 .74-3.1 3.554 3.554 0 0 0-.173-1.24 1.242 1.242 0 0 1-.059-.51 1.92 1.92 0 0 0-.317-1.45c-.255-.49-.178-.81.294-1a1.411 1.411 0 0 1 .355-.06.414.414 0 0 0 .363-.27.737.737 0 0 1 1.069-.44 3.212 3.212 0 0 0 1.218.24.464.464 0 0 0 .205-.01 2.523 2.523 0 0 1 1.671.1 5.29 5.29 0 0 0 1.588.09 7.6 7.6 0 0 1 1.64.15 3.366 3.366 0 0 0 .777.02.5.5 0 0 0 .5-.47c.081-.49.172-.98.23-1.48.071-.67.124-1.34.165-2a6.771 6.771 0 0 1 0-1.13.486.486 0 0 0-.311-.54 2.312 2.312 0 0 1-.954-1.09.322.322 0 0 1-.06-.32c.124-.3-.094-.35-.229-.53a6.554 6.554 0 0 0-1.452-.92.749.749 0 0 0-.74-.15.694.694 0 0 1-.679-.65.557.557 0 0 0-.125-.47.363.363 0 0 1 .086-.57 1.494 1.494 0 0 1 .81-.36 1.58 1.58 0 0 0 .583-.19.651.651 0 0 1 .863.07.764.764 0 0 0 .805.22 1.76 1.76 0 0 1 .731-.07 2.3 2.3 0 0 0-.256-1.34l-.025-.05a.608.608 0 0 1 .025-.74.793.793 0 0 1 .826.23 1.363 1.363 0 0 0 1.275.52.347.347 0 0 0 .329-.31 1 1 0 0 1 .779-.88 2.408 2.408 0 0 0 .751-.38.615.615 0 0 0 .243-.6 1.142 1.142 0 0 1 0-.33 1.074 1.074 0 0 1 .944-1.23 10.118 10.118 0 0 0 1.467-.83.61.61 0 0 1 .314-.26c.181.02.209-.07.1-.23a.172.172 0 0 1 .064-.24 3.939 3.939 0 0 0 1.075-2.75.826.826 0 0 1 .408-.66.316.316 0 0 1 .015.35.609.609 0 0 0-.039.27 1.352 1.352 0 0 1 .147 1.21.558.558 0 0 0 .105.22 2.978 2.978 0 0 1 .195-.6.63.63 0 0 0 .013-.54.88.88 0 0 1 .744-1.32 3.523 3.523 0 0 1 1.021-.1.316.316 0 0 0 .294-.2.868.868 0 0 1 1.346-.25c.236.17.337.09.418-.16a.6.6 0 0 1 .148-.3.621.621 0 0 0 .154-.92.471.471 0 0 1 .034-.57.287.287 0 0 0 .016-.36 2.868 2.868 0 0 1-.274-1.44.654.654 0 0 0-.425-.76.272.272 0 0 1-.2-.34c.013-.4-.068-.8-.093-1.2a5.426 5.426 0 0 1 .408-2.12.812.812 0 0 1 .7-.53 1.167 1.167 0 0 0 1-.71 1.748 1.748 0 0 1 .822-.67c.148-.09.249-.01.224.17a2.194 2.194 0 0 0 .058.74.824.824 0 0 1-.118.6 2.537 2.537 0 0 0-.188 1.12.3.3 0 0 0 .331.39.358.358 0 0 1 .458.26.623.623 0 0 1-.233.65.8.8 0 0 1-.368.2.189.189 0 0 0-.13.06 5.266 5.266 0 0 1-.793 1.33c-.145.32 0 .69-.132 1.03a.673.673 0 0 1 .213.04c.388.16.431.27.278.72a1.279 1.279 0 0 0 .151.79 3.219 3.219 0 0 0 .889.2c.268-.09.4.18.275.47a.737.737 0 0 0-.225.42.913.913 0 0 0 .83-.28.6.6 0 0 1 .268-.17 1.192 1.192 0 0 0 .68-.49.352.352 0 0 1 .541-.14c.289.23.414.1.5-.23a.253.253 0 0 1 .289-.26.478.478 0 0 1 .412.37.653.653 0 0 1-.442.81.667.667 0 0 1 .619.53c.189.35.289.32.607.1a3.524 3.524 0 0 1 1.329-.73 2.7 2.7 0 0 0 1.234-.67 3.912 3.912 0 0 1 2.237-.96.885.885 0 0 1 .812.29c.113.13.209.3-.009.42a.221.221 0 0 0-.071.33.238.238 0 0 0 .3.16 1.221 1.221 0 0 0 1.234-1.08.417.417 0 0 1 .408-.43.777.777 0 0 0 .631-.43 1.93 1.93 0 0 0 .354-1.4c-.039-.36-.081-.73-.1-1.09a3.5 3.5 0 0 1 .314-1.94 2.914 2.914 0 0 0 .225-.7 1.573 1.573 0 0 1 1.374-1.36.245.245 0 0 1 .268.12 10.269 10.269 0 0 1 .85 1.3.535.535 0 0 0 .625.39.667.667 0 0 0 .551-.66 1.95 1.95 0 0 0 .009-.35 11.051 11.051 0 0 1 .126-1.89.326.326 0 0 0-.047-.38.48.48 0 0 1-.552.07.989.989 0 0 1-.561-.89c-.026-.37-.05-.75-.094-1.13a.568.568 0 0 1 .238-.65c.46-.16.822-.53 1.3-.69a1.874 1.874 0 0 0 1.274-.41.18.18 0 0 1 .148-.03 5.172 5.172 0 0 1 1.292.38 1.686 1.686 0 0 0 .945.2c.477 0 .477 0 .56-.55.025-.19.071-.34.294-.29a1.033 1.033 0 0 0 .871-.32.866.866 0 0 1 .984-.25c.113.03.266.07.3-.11a.283.283 0 0 0-.224-.33.525.525 0 0 0-.3 0 1.052 1.052 0 0 1-.99-.35.731.731 0 0 1-.262-1.01 1.265 1.265 0 0 1-.61.35 3.553 3.553 0 0 1-1.217 0 .4.4 0 0 0-.248.05c-.727.24-1.441.52-2.149.83-.66.27-1.338.51-2.019.75a.991.991 0 0 0-.457.21.19.19 0 0 1-.281.05c-.088-.08 0-.17.014-.25a.4.4 0 0 0-.094-.42c-.115-.1-.166.08-.25.13a.341.341 0 0 1-.435-.04c-.126-.12 0-.25.038-.36a.479.479 0 0 0-.1-.62c-.344-.15-.6-.47-.939-.58a.6.6 0 0 1-.373-.54 7.3 7.3 0 0 1 .16-2.03 3.557 3.557 0 0 0-.189-1.27 1.2 1.2 0 0 1-.111-.6 2.027 2.027 0 0 0-.116-.9 1.58 1.58 0 0 1 .263-1.6 1.244 1.244 0 0 0 .483-.75.3.3 0 0 1 .372-.24.533.533 0 0 0 .514-.21 5.508 5.508 0 0 0 .692-.93 10.872 10.872 0 0 1 1.228-1.92 3.639 3.639 0 0 0 .8-1.32 1 1 0 0 1 .722-.86c.35-.11.373-.19.309-.59a1.445 1.445 0 0 1 0-.45 1.311 1.311 0 0 0-.21-.87 7.7 7.7 0 0 0-.75-.86.438.438 0 0 0-.484-.22.424.424 0 0 1-.559 0 .469.469 0 0 0-.5.02.466.466 0 0 1-.57.04.386.386 0 0 0-.58.25 1.6 1.6 0 0 1-.8 1.04.362.362 0 0 0-.188.47 1.127 1.127 0 0 1-.247 1.12.813.813 0 0 0-.031.94 1.777 1.777 0 0 0 .182.28.555.555 0 0 1-.138.84 1.356 1.356 0 0 0-.347.41 3.34 3.34 0 0 1-1.492 1.82.385.385 0 0 0-.065.09 5.521 5.521 0 0 0-1.147.86 3.112 3.112 0 0 0-.471.49 2.215 2.215 0 0 1-.891 1.2.3.3 0 0 0-.076.27.678.678 0 0 1-.643.71 1.231 1.231 0 0 1 .094 1.08 1.583 1.583 0 0 0-.018.74.342.342 0 0 1-.177.47.289.289 0 0 0-.183.36c.041.63.048 1.26.15 1.89a.83.83 0 0 0 .651.77.45.45 0 0 1 .373.34.957.957 0 0 0 .236.29 5.82 5.82 0 0 1 .709 1.21.575.575 0 0 1-.053.54 1.693 1.693 0 0 1-.7.89.235.235 0 0 0 .218.05.165.165 0 0 1 .149.27 2.275 2.275 0 0 1-.889 1.07 9.111 9.111 0 0 0-.966.61.606.606 0 0 0-.361.64c.007.68-.131 1.36-.181 2.04a7.394 7.394 0 0 1-.142 1.12 2.993 2.993 0 0 0-.116 1.1 2.038 2.038 0 0 0 .352-.81.669.669 0 0 1 .437-.59c-.135.9-.43 1.69-.623 2.49a.116.116 0 0 1-.022.05c-.064.11-.1.29-.246.26s-.124-.21-.116-.34a.552.552 0 0 0-.021-.43c-.076.22-.149.41-.213.61-.17.53-.17.54-.7.53-.2-.01-.413-.02-.62-.02a.986.986 0 0 0-.92 1.02c0 .8 0 .8-.727.83a3.164 3.164 0 0 1-.814.11c-.223-.05-.426-.09-.334-.43a.147.147 0 0 0-.069-.19.2.2 0 0 0-.235.07.241.241 0 0 0-.032.31.372.372 0 0 1 .062.42 2.034 2.034 0 0 0-.443 1.3.867.867 0 0 1-.1.26c-.026.07-.075.15-.151.12a2.211 2.211 0 0 1-1.109-.34c-.068-.08-.162-.16-.266-.04-.179.18-.253.02-.286-.13a2.918 2.918 0 0 1 0-.48 1.184 1.184 0 0 1-1.181-1.11c-.069-.08-.084-.15-.099-.22zm37.062 18.73a.148.148 0 0 0-.225-.08 4.8 4.8 0 0 1-1.053.26 2.143 2.143 0 0 0-.724.26 3.578 3.578 0 0 0-.839.53 1.775 1.775 0 0 0-.922.24.988.988 0 0 0-.692.45.88.88 0 0 1-.606.55c-.065-.01-.053.06-.058.12a1.251 1.251 0 0 0 .159 1.02.359.359 0 0 0 .33.22 1.766 1.766 0 0 0 .55-.08 1.184 1.184 0 0 1 .991-.07.85.85 0 0 0 1.1-.29 4.409 4.409 0 0 1 .625-.91c.32-.31.307-.36-.04-.63a.356.356 0 0 1-.087-.06.4.4 0 0 1-.232-.41.387.387 0 0 1 .4-.29.61.61 0 0 0 .351-.06 3.592 3.592 0 0 1 .9-.64.4.4 0 0 0 .072-.13zm-22.747-18.27c-.1.2-.206.39-.307.58a.164.164 0 0 0 .076.23c.1.06.228.06.25-.07a1.01 1.01 0 0 0-.019-.74zm-5.463-10.81c.256.14.509.3.773.42.1.06.263.12.311-.05s-.107-.22-.223-.24c-.284-.02-.563-.1-.861-.13zm55.316-64.05c.41-.2.425-.21.3-.61a.941.941 0 0 1 .133-.81.39.39 0 0 1 .571-.21 1.324 1.324 0 0 0 .544.15.529.529 0 0 1 .613.54 1.83 1.83 0 0 0 1.369-.61.406.406 0 0 1 .426-.15c.45.32.707-.09 1-.3a1.07 1.07 0 0 1 .678-.47.279.279 0 0 0 .2-.24.268.268 0 0 1 .314-.22c.251.04.307-.18.266-.37a1.1 1.1 0 0 1 .571-1.23 1.154 1.154 0 0 0 .489-.48.289.289 0 0 1 .255-.17.779.779 0 0 0 .426-.19 1.538 1.538 0 0 1 2.33 1.07c.043.19.092.38.145.55a.648.648 0 0 1-.052.6.3.3 0 0 0 .008.44.278.278 0 0 1-.087.4 2.462 2.462 0 0 0-.555.82.835.835 0 0 0-.131.79.432.432 0 0 1-.131.06.773.773 0 0 0-1.055.31 3.089 3.089 0 0 1-2.048 1.07.647.647 0 0 0-.424.19 8.215 8.215 0 0 1-1.812 1.44.325.325 0 0 1-.232.12c-.4-.18-.512.17-.714.42a2.286 2.286 0 0 1-.88.76 1.843 1.843 0 0 0-.75.76c-.144.24-.306.47-.45.71a1.336 1.336 0 0 1-1.379.63c-.071.11.012.17.071.24a.4.4 0 0 1 0 .6 1.329 1.329 0 0 0-.4.78.265.265 0 0 1-.194.25c-.362.08-.4.34-.3.72a4.246 4.246 0 0 1-.958-.49 3.866 3.866 0 0 1-.011.88c-.185.45-.237.5-.581.14a.735.735 0 0 0-.092-.06.252.252 0 0 0 .051.29 1.284 1.284 0 0 1-.227 1.55.616.616 0 0 0-.233.39c-.01.2-.164.23-.306.12a.948.948 0 0 1-.336-.42 1.045 1.045 0 0 0-.189-.41.461.461 0 0 0 .034.62 1.482 1.482 0 0 1 .311 1.05.433.433 0 0 1-.2.43c-.2.08-.272-.11-.36-.24a.16.16 0 0 0-.2-.1 2.757 2.757 0 0 1 .336.81.476.476 0 0 1-.613.44 1 1 0 0 1-.2 1.23.561.561 0 0 1-.794.21.75.75 0 0 1 .22 1.05 1.124 1.124 0 0 0-.095.56.52.52 0 0 1-.181.46 2.488 2.488 0 0 0-.643 1.35 2.349 2.349 0 0 0-.165 1.57.456.456 0 0 1 .018.23 4.74 4.74 0 0 0 .061 1.97 2.057 2.057 0 0 0 .286 1.04 2.111 2.111 0 0 1 .284.74 2.551 2.551 0 0 0 .844 1.4 3.4 3.4 0 0 0 .909.76.324.324 0 0 1 .1.52 6.223 6.223 0 0 1-.526.63.177.177 0 0 1-.284 0c-.1-.1-.2-.22-.3-.32a.128.128 0 0 0-.213 0 .574.574 0 0 1-.861.03c-.253-.26-.43-.27-.632.04-.118.19-.264.14-.4.02-.054-.05-.107-.11-.153-.16a.773.773 0 0 0-.894-.44.668.668 0 0 1-.7-.72.717.717 0 0 1 .42-.93.138.138 0 0 0-.077-.16.971.971 0 0 1-.729-.92c-.038-.28-.122-.41-.412-.34-.364.09-.328-.27-.389-.53a.7.7 0 0 0-.312.34.742.742 0 0 1-1.074-.34 3.14 3.14 0 0 1-.141-2.13.524.524 0 0 1 .572-.47.541.541 0 0 0 .649-.59 3.274 3.274 0 0 1 .259-.87.745.745 0 0 0-.135-.87.637.637 0 0 1 .071-1.08 1.046 1.046 0 0 1 .259-.19.613.613 0 0 0 .329-.64 1.218 1.218 0 0 1 1.317-1.29 3.773 3.773 0 0 1 .2-1.3 1.35 1.35 0 0 1-.793-.73c-.1-.2-.132-.39.144-.5.37-.15.571-.6.965-.74a.457.457 0 0 0 .1-.26 1.092 1.092 0 0 1 .339-.56.384.384 0 0 0 .144-.15.479.479 0 0 1 .489-.54 1 1 0 0 0-.035-.15c-.089-.14-.341-.19-.246-.44.086-.22.3-.14.466-.17a.441.441 0 0 0 .269-.14.993.993 0 0 1-.471-.69c-.033-.23-.01-.43.271-.43a2.7 2.7 0 0 0 .682-.28c-.115-.28-.292-.17-.452-.17-.288.02-.37-.13-.253-.42.048-.12.118-.23.164-.35.054-.16.16-.37-.148-.33a.176.176 0 0 1-.176-.17 1.313 1.313 0 0 1 .018-.9.332.332 0 0 1 .62-.08c.071.1.084.28.243.24a.422.422 0 0 0 .335-.24 2.1 2.1 0 0 0 .188-.4.663.663 0 0 1 .757-.53c.518.05.69-.13.737-.72a1.077 1.077 0 0 1 .617-1.09.3.3 0 0 0 .227-.27 1.547 1.547 0 0 1 1.028-1.18 1.216 1.216 0 0 0 .838-.85.725.725 0 0 1 .372-.38.416.416 0 0 1 .479-.11c.213.12.063.32.053.51zM51.935 14.52c.483-.37.491-.37.828.01a5.051 5.051 0 0 1 .684.94.727.727 0 0 1 .106.65c-.135.36-.131.76-.265 1.11a.815.815 0 0 0 .134.77c.1-.24.025-.51.114-.76.166-.47.348-.53.675-.18a.448.448 0 0 1 .121.18 3.9 3.9 0 0 1 .346 2.06 1.4 1.4 0 0 0-.037.22c-.018.36.043.51.339.53a1.034 1.034 0 0 1 .91.94 1.142 1.142 0 0 0 .4.57 2.426 2.426 0 0 0 1.463.77.275.275 0 0 1 .172.11 1.446 1.446 0 0 1-.19 1.48.378.378 0 0 1-.248.06 1.364 1.364 0 0 0-1.3.46.943.943 0 0 0-.58.77.5.5 0 0 1-.292.31.613.613 0 0 0-.261.58c.029.65-.139 1.29-.111 1.95.01.38-.03.41-.4.4-.257 0-.273.12-.267.36a14.113 14.113 0 0 1-.156 2.63c-.076.49-.073.49-.509.59-.149.04-.286.1-.225.31a.413.413 0 0 1-.186.47.812.812 0 0 0-.242.56 79.23 79.23 0 0 0-.059 1.54 1.12 1.12 0 0 1-.159.71 1.236 1.236 0 0 0-.193.93 1.547 1.547 0 0 1-.051.68.651.651 0 0 1-.983.39.3.3 0 0 1-.1-.25 1.185 1.185 0 0 0-.516-1.01c-.6-.5-.53-.9.258-1.13a.15.15 0 0 0 .167-.1.386.386 0 0 0-.471-.08c-.416.09-.8.14-.947-.46a.552.552 0 0 0-.423-.31 1.239 1.239 0 0 1-.63-.71 4.025 4.025 0 0 1-.327-1.71.615.615 0 0 1 .343-.54.329.329 0 0 1 .454.15c.039.06.065.14.154.1a1.674 1.674 0 0 1 1.2.1.916.916 0 0 0 .186.01.411.411 0 0 0-.379-.25 1.641 1.641 0 0 1-.728-.26c-.235-.21-.222-.44.054-.56a2.818 2.818 0 0 1 1.1-.45.655.655 0 0 0 .442-.38 1.262 1.262 0 0 1-.75-.02c-.117-.08-.224.04-.314.13a1.394 1.394 0 0 1-.95.4 2.176 2.176 0 0 0-.655.12.328.328 0 0 1-.507-.28 18.22 18.22 0 0 1-.152-1.43c-.03-.44.094-.59.484-.62.366-.04.679-.28 1.044-.29a.248.248 0 0 0 .189-.18 1.768 1.768 0 0 1 .65-.86.226.226 0 0 0 .081-.19.74.74 0 0 1 1.023-.56.451.451 0 0 0 .585-.05c-.113-.39-.734-.3-.616-.91-.243.18-.423.31-.6.44a.279.279 0 0 1-.446-.08 1.436 1.436 0 0 1-.3-1.03.756.756 0 0 1-.465-.09c-.09-.15-.092-.33-.178-.51a.335.335 0 0 0-.117.34 3.172 3.172 0 0 0 .117 1.58.246.246 0 0 1-.217.39c-.279-.02-.3.15-.355.37a.99.99 0 0 1-1.606.57.365.365 0 0 1-.118-.35.435.435 0 0 0-.254-.55 1.244 1.244 0 0 1-.36-.68.269.269 0 0 1 .174-.36 3.118 3.118 0 0 1 .334-.07.262.262 0 0 0-.234-.15 2.135 2.135 0 0 1-1.242-1.36.574.574 0 0 1 .023-.5.478.478 0 0 0-.112-.61 1.844 1.844 0 0 1-.255-.36.237.237 0 0 1 0-.31.2.2 0 0 1 .287 0 1.346 1.346 0 0 0 .548.31.2.2 0 0 0 .206-.04 1.357 1.357 0 0 0-.313-.24 1.033 1.033 0 0 1-.282-1.2c.082-.14.082-.4.16-.59-.178-.06-.186.08-.224.18-.064.13-.108.28-.173.41a.332.332 0 0 1-.331.24.325.325 0 0 1-.237-.33 2.779 2.779 0 0 0-.217-.89 2.231 2.231 0 0 1-.231-1.16 1.273 1.273 0 0 0-.094-.56.351.351 0 0 1 .114-.49.266.266 0 0 0 .066-.39 1.21 1.21 0 0 1-.1-.56.227.227 0 0 1 .119-.23.171.171 0 0 1 .218.1c.053.09.1.18.173.31a1.043 1.043 0 0 0-.059-.51.329.329 0 0 1 .124-.4.768.768 0 0 0 .37-.35c.149-.21.257-.18.4.06a1.622 1.622 0 0 0 .337.6.933.933 0 0 0 .021-.57.309.309 0 0 1 .151-.33c.148-.07.2.07.264.19.183.36.3.4.6.19.165-.11.3-.27.468-.36a.471.471 0 0 1 .665-.05.938.938 0 0 1 .177.86.654.654 0 0 1-.507.51 1.1 1.1 0 0 1-.255-.02.4.4 0 0 0-.353.2 1.268 1.268 0 0 1-.626.62.348.348 0 0 0 .438-.02.819.819 0 0 1 .453-.11c.272.02.376.14.254.4a.358.358 0 0 0 .137.54 2.3 2.3 0 0 1 .441.94c-.048-.35-.106-.71-.146-1.06a1.456 1.456 0 0 1 .046-.8 7.939 7.939 0 0 0 .607-1.45c.066-.23.193-.27.4-.16a1.655 1.655 0 0 1 .871 1.33 9.2 9.2 0 0 1 .127 1.14c0 .64.257 1.24.211 1.88a.246.246 0 0 0 .023.17 6.191 6.191 0 0 1 .745 1.62.2.2 0 0 0 .069.05.457.457 0 0 0-.061-.36 9.264 9.264 0 0 1-.578-3.25c-.047-.67-.1-1.34-.166-2a2.184 2.184 0 0 1 .232-1.39 1.483 1.483 0 0 0 .126-.72 1.008 1.008 0 0 1 .288-.71.242.242 0 0 1 .435.05 1.134 1.134 0 0 1 .231.62c.019.17.029.34.035.58zM23.979 127.89a.541.541 0 0 1 .247-.47 8.245 8.245 0 0 0 1.234-1.55 1.063 1.063 0 0 1 1.125-.64.677.677 0 0 0 .846-.54c-.1-.07-.152.04-.212.09-.389.32-.453.32-.83-.05a.312.312 0 0 0-.3-.18.533.533 0 0 1-.648-.21c-.1-.13-.215.02-.317.07a.454.454 0 0 1-.693-.44.338.338 0 0 1 .21-.35c.284-.19.573-.35.845-.56a1.012 1.012 0 0 0 .289-1.31c-.081-.17-.2-.09-.306-.04s-.212.09-.279-.04a.279.279 0 0 1 .1-.3c.065-.08.138-.17.208-.26a.384.384 0 0 0 .072-.58.162.162 0 0 1-.023-.21.15.15 0 0 1 .228 0c.4.34.834.01 1.252.07.112.01.13-.12.153-.24a5.569 5.569 0 0 1 .142-1.18.153.153 0 0 0-.119-.21 1.069 1.069 0 0 1-.6-1.6c.041-.1.081-.21.166-.41a5.766 5.766 0 0 1-1.058.42.574.574 0 0 1-.523.06.126.126 0 0 0-.144.01c-.118.12-.237.28-.373.06a.772.772 0 0 1-.129-.75 2.775 2.775 0 0 1 .236-.51 1.726 1.726 0 0 0 .072-1.51c-.029-.11-.089-.17-.189-.13a.191.191 0 0 0-.151.25c.028.08.122.14.157.22.14.35 0 .6-.352.57-.132-.01-.132.07-.174.15-.059.12-.134.25-.273.19a.3.3 0 0 1-.1-.4 2.956 2.956 0 0 1 .174-.54.368.368 0 0 0-.142-.49 1.136 1.136 0 0 0-.312.45.282.282 0 0 1-.319.23.37.37 0 0 1-.331-.32.321.321 0 0 1 .218-.35 2.527 2.527 0 0 0 .785-.61 2.861 2.861 0 0 0 .4-.87.251.251 0 0 0-.318.19.7.7 0 0 1-.693.4c-.1 0-.252-.09-.2-.2a2.894 2.894 0 0 1 .409-1.19c.362-.34.3-.65-.172-.83a2.913 2.913 0 0 1-.691-.74.246.246 0 0 1 .006-.27.94.94 0 0 1 .5-.53c.244-.06.241.3.327.49a.832.832 0 0 0 .416.58 1.538 1.538 0 0 1-.071-1.26.09.09 0 0 1 .009-.05c.569-.42.438-1.23.82-1.76a.64.64 0 0 1 .772-.4 3.393 3.393 0 0 0 1.227-.12c.2-.04.43-.13.557.12a.665.665 0 0 1-.092.75 3.181 3.181 0 0 1-.761.85c-.106.06-.243.2-.165.31.177.25-.006.41-.136.72a3.9 3.9 0 0 1 2.325-.27.544.544 0 0 1 .474.86 13.306 13.306 0 0 1-1.022 2.36.253.253 0 0 0-.06.27c.19.37 0 .47-.283.53a.257.257 0 0 0-.221.14c.008.13.109.13.188.11a1.324 1.324 0 0 1 1.292.63 2.31 2.31 0 0 1 .6 1.53 2.936 2.936 0 0 0 .427 1.1.261.261 0 0 0 .189.18 1.768 1.768 0 0 1 1 1.24 1.844 1.844 0 0 0 .2.47.822.822 0 0 1 .226.87.332.332 0 0 0 .1.31.722.722 0 0 1-.016.98c-.065.09-.149.2-.027.3.081.07.164.01.23-.06a1.019 1.019 0 0 1 .876-.24.983.983 0 0 1 .8.86 1.749 1.749 0 0 1-.347 1.5 1.317 1.317 0 0 1-.555.57.507.507 0 0 0-.152.22c-.208.38-.18.46.2.51a.364.364 0 0 0 .1.01.328.328 0 0 1 .38.22.481.481 0 0 1-.2.49 2.241 2.241 0 0 1-1.65.7 3.911 3.911 0 0 1-1.18.07c-.094-.04-.1.08-.125.14a.3.3 0 0 1-.514.15.616.616 0 0 0-.629 0 .738.738 0 0 1-.988-.06.622.622 0 0 0-.86.31c-.236.59-.236.58-.8.46a.791.791 0 0 0-.949.24.726.726 0 0 1-1.035.25zM2.327 91.28a1.018 1.018 0 0 0 .8-.26.4.4 0 0 0 .167-.21c.086-.26-.346-.15-.235-.42.061-.15.185-.28-.027-.42a.937.937 0 0 1-.366-.67.318.318 0 0 0-.365-.29 1.8 1.8 0 0 0-1.162.13.24.24 0 0 1-.386-.14.326.326 0 0 1 .165-.47 13.14 13.14 0 0 0 1.364-.51 1.741 1.741 0 0 1 .684-.01.3.3 0 0 0-.07-.11c-.461-.22-.484-.39-.109-.74a1.265 1.265 0 0 0 .381-.37.6.6 0 0 1-.477-.27.494.494 0 0 0-.748-.06 3.663 3.663 0 0 1-.65.35.422.422 0 0 1-.446 0 .662.662 0 0 0-.548-.07c-.137.05-.289.06-.3-.18a.391.391 0 0 1 .321-.43.621.621 0 0 0 .305.05.43.43 0 0 0-.117-.4c-.084-.29-.064-.32.218-.3a.717.717 0 0 0 .147.01.622.622 0 0 0 .047-.45.507.507 0 0 1 .13-.55c.247-.37.528-.45.721-.08a1.509 1.509 0 0 0 .739.53.236.236 0 0 0-.075-.32 2.754 2.754 0 0 1-.614-.81.449.449 0 0 1-.012-.53c.073-.16.222-.12.365-.09a2.435 2.435 0 0 1 1.215.89 3.49 3.49 0 0 0 .269.34 1.1 1.1 0 0 1 .366 1.41.3.3 0 0 0 .014.32.686.686 0 0 1 .166.41.177.177 0 0 0 .158.19.2.2 0 0 0 .188-.22c.007-.06.007-.13.018-.18.1-.44.184-.47.6-.22a1.484 1.484 0 0 0 .064-.95.644.644 0 0 1 .09-.73c.307-.18.425.21.6.39a4.19 4.19 0 0 0 .4.65.617.617 0 0 0 .078-.1 1.023 1.023 0 0 1 .726-1.17.21.21 0 0 1 .343.1 3.783 3.783 0 0 1 .378.77.579.579 0 0 0 .006-.49.393.393 0 0 1 .08-.37.315.315 0 0 1 .39 0 .871.871 0 0 1 .306.3c.138.21.279.17.351-.03.129-.33.281-.43.6-.27.282.14.447-.01.477-.37a1.35 1.35 0 0 0-.005-.29.41.41 0 0 1 .24-.54.369.369 0 0 1 .568.16 4.468 4.468 0 0 1 .325.44c.159.42.167.41.526.22a1.538 1.538 0 0 0 .282-.25.5.5 0 0 1 .373-.17.222.222 0 0 1 .22.11.212.212 0 0 1-.079.25 1.475 1.475 0 0 0-.473.77c.5.11.538.16.485.74-.019.19-.049.36.194.36a.223.223 0 0 1 .256.22c.033.17.1.25.245.11s.224-.03.286.1a1.376 1.376 0 0 1 .2 1.04c-.034.12-.056.22.084.27a.392.392 0 0 1 .156.61 1.783 1.783 0 0 1-.744 1.06.284.284 0 0 0-.138.28 2.07 2.07 0 0 1-.795 1.29.191.191 0 0 1-.276.03c-.1-.08-.185-.18-.286-.28a9.119 9.119 0 0 1-1.156 1.24.807.807 0 0 1-.448.28A2.484 2.484 0 0 0 8.426 93a1.532 1.532 0 0 1-1.758.37 2.808 2.808 0 0 0-.841-.29.816.816 0 0 1-.587-.32 1.8 1.8 0 0 0-1.783-.64 2.831 2.831 0 0 0-.821.05c-.208.07-.337-.06-.349-.3a1.118 1.118 0 0 1 .04-.59zm54.626-74.24c-.3-.59-.2-.84.366-.91.272-.04.553-.04.828-.07a.238.238 0 0 0 .259-.23.258.258 0 0 0-.289-.25 5.328 5.328 0 0 0-2.4.59.326.326 0 0 1-.385.04.566.566 0 0 0-.451-.09.746.746 0 0 1-.694-.42 5.288 5.288 0 0 1-.428-.98.3.3 0 0 1 .09-.31c.142-.17.277-.34.421-.51.267-.3.264-.43-.065-.65a5.747 5.747 0 0 0-.558-.3c-.147-.09-.372-.12-.347-.36a.538.538 0 0 1 .431-.51 2.678 2.678 0 0 1 .565-.04.347.347 0 0 0 .39-.41 3.226 3.226 0 0 1 .048-.57c.066-.33.246-.39.5-.21a1.135 1.135 0 0 1 .306.52.414.414 0 0 0 .236.32 3.926 3.926 0 0 0 .117-.82.2.2 0 0 0-.2-.26.333.333 0 0 1-.345-.4.8.8 0 0 1 .3-.69.245.245 0 0 1 .33.07 6.921 6.921 0 0 1 1.179 1.36.721.721 0 0 1 .084.44c-.006.41.094.46.432.26a2.445 2.445 0 0 1 .36-.23c.343-.15.53-.04.578.38a5.32 5.32 0 0 0 .218 1.06.221.221 0 0 0 .193.18c.009-.59.1-1.17.059-1.75a1.935 1.935 0 0 1 .3-1.41.544.544 0 0 1 1 .19 1.74 1.74 0 0 1-.19 1.58.6.6 0 0 0-.159.41c.009.2-.071.46.2.52a.377.377 0 0 0 .428-.32c.119-.32.243-.64.366-.96l.084-.21c.247-.59.3-.6.784-.27a.437.437 0 0 0 .185.09c.2-.04.241.09.231.26a.379.379 0 0 0 .37.44c.535.13 1.074.28 1.612.41a1.447 1.447 0 0 1 .748.49.918.918 0 0 1 .23.83 2.472 2.472 0 0 0-.034 1.35.463.463 0 0 1-.248.57.794.794 0 0 0-.41.48 1.783 1.783 0 0 1-.725.94.492.492 0 0 0-.22.62 1.868 1.868 0 0 1-.82 1.77.63.63 0 0 1-.3.05.834.834 0 0 0-1 .68 1.042 1.042 0 0 1-1.357.56 1.606 1.606 0 0 1-.824-1.24c-.085-.39-.3-.57-.615-.4a.639.639 0 0 1-.585.03.63.63 0 0 0-.588.07c-.263.2-.415.14-.529-.18a.557.557 0 0 0-.385-.39 1.83 1.83 0 0 1-.913-1.04.3.3 0 0 1 .071-.36.383.383 0 0 1 .419-.14.714.714 0 0 1 .3.22.38.38 0 0 0 .446.11zM19.6 120.81a1.349 1.349 0 0 1-.981-.3.458.458 0 0 1-.094-.75 3.452 3.452 0 0 1 .225-.32c-.017-.2-.2-.12-.276-.21s-.185-.18-.1-.29c.147-.19.175-.45.306-.65a.356.356 0 0 1 .343-.21c.119.01.241.01.36.03.659.14.659.15 1.143-.43-.016-.13-.125-.1-.2-.13-.342-.16-.357-.19-.127-.51a.888.888 0 0 0 .185-.34 1.049 1.049 0 0 1 .791-.81 1.918 1.918 0 0 0 .631-.22.326.326 0 0 1 .456.15.339.339 0 0 0 .364.11.9.9 0 0 1 1.146.88.864.864 0 0 0 .232.54.78.78 0 0 1 0 1.03 4.539 4.539 0 0 1-.585.56.344.344 0 0 0-.138.48 7 7 0 0 1 .195 2.02 1.14 1.14 0 0 1-.129.5 3.631 3.631 0 0 0-.2.94.327.327 0 0 1-.4.38 1.792 1.792 0 0 0-1.287.42 5.343 5.343 0 0 1-1.581.95 3.232 3.232 0 0 1-.915.13.663.663 0 0 1-.544-.35 1.806 1.806 0 0 0-.271-.39.2.2 0 0 1-.025-.26.246.246 0 0 0-.078-.4c-.151-.11-.029-.35.131-.39a.658.658 0 0 0 .585-.78 10.267 10.267 0 0 1 .838-1.38zm38.472-93.8a1.368 1.368 0 0 0 1.663-.58 4.051 4.051 0 0 0 .469.59.663.663 0 0 1-.015.99.441.441 0 0 0-.043.57c.165.25.341.48.516.72s.347.26.517.03.31-.18.471 0a8.835 8.835 0 0 0 .669.87.176.176 0 0 1-.123.29 1.5 1.5 0 0 0-1.187 1.24 1.369 1.369 0 0 1-.867.99.521.521 0 0 0-.306.29c-.22.38-.33.44-.553.3-.266-.16-.184-.37-.1-.63a1.447 1.447 0 0 0 .022-1.16 1.016 1.016 0 0 1-1.016.61c-.181 0-.37.09-.553.1a.49.49 0 0 1-.516-.69.347.347 0 0 1 .062-.16c.514-.47.365-1.24.66-1.82a.46.46 0 0 0-.124-.61 1.8 1.8 0 0 1-.435-.63.508.508 0 0 1 .11-.78c.093-.09.189-.16.354-.3a.626.626 0 0 1-.779-.55 3.488 3.488 0 0 1-.13-.44 1.256 1.256 0 0 0-.367-.79c-.218-.19-.18-.34.072-.47a1.724 1.724 0 0 0 .944-.73.364.364 0 0 1 .041-.03.293.293 0 0 1 .339-.07c.289.37.775-.12 1.033.32a2.344 2.344 0 0 0 .174.28.453.453 0 0 1 .029.72 1.537 1.537 0 0 0-.194.83.465.465 0 0 1-.454.5.44.44 0 0 0-.384.2zM91.344 11a.618.618 0 0 0-.361-.27.307.307 0 0 1-.132-.29.27.27 0 0 1 .194-.24c.03-.01.067-.01.1-.02.1-.04.3.06.278-.13-.019-.21-.207-.14-.339-.12-.159.03-.353.28-.459.07-.131-.25.147-.38.289-.52a2.049 2.049 0 0 1 .461-.37c.464-.3.472-.3.837.17a.307.307 0 0 0 .559 0 3.628 3.628 0 0 0 .37-.69c.152-.36.11-.43-.24-.58a.5.5 0 0 1-.275-.76 3.54 3.54 0 0 1 1.4-1.42.606.606 0 0 1 .777.52c.018.11 0 .23.02.34.043.35.12.46.423.43a.931.931 0 0 1 .707.28.508.508 0 0 1 .088.79 2.683 2.683 0 0 1-1.711 1.27.914.914 0 0 0-.3.1.39.39 0 0 0-.277.46c.028.66-.2.84-.793.71-.448-.1-.6.03-.637.54-.017.25-.066.5-.075.74a.93.93 0 0 1-.62.94c-.13.05-.252.13-.379.19a.283.283 0 0 1-.384-.01.426.426 0 0 1-.03-.43.836.836 0 0 1 .367-.59c.131-.08.059-.21-.058-.24a.587.587 0 0 0-.633.28c-.287.35-.442.32-.664-.09a3.006 3.006 0 0 1-.145-.3.688.688 0 0 1 .142-.96c.278-.3.348-.3.608.02.239.31.361.34.891.18zm14.081-2.58a3.534 3.534 0 0 1 .473-1.6.618.618 0 0 1 1.007-.16.292.292 0 0 0 .374.07 3.431 3.431 0 0 0 1.133-.53.546.546 0 0 1 .885.3 2.594 2.594 0 0 1-.277 2.39c-.289.44-.606.84-.9 1.27a.465.465 0 0 1-.672.21c-.078-.03-.164-.06-.243-.09a.922.922 0 0 0-.9-.04.278.278 0 0 1-.414-.1 1.52 1.52 0 0 1-.425-1.07 3.3 3.3 0 0 0-.042-.65zm-4.138-1.84c.275.47.267.51-.172.73a4.927 4.927 0 0 0-.522.24 1.244 1.244 0 0 1-1.6-.36.47.47 0 0 1 .168-.81 3.13 3.13 0 0 1 1.329-.3c-.3-.23-.557-.4-.8-.6a.992.992 0 0 1-.018-1.36.215.215 0 0 1 .325.03c.208.21.422.4.62.62a.372.372 0 0 0 .548.1.528.528 0 0 1 .716.1c.213.19.429.38.69.61a.757.757 0 0 0-.3-.51c-.212-.2-.417-.39-.625-.6a.215.215 0 0 1-.071-.25.223.223 0 0 1 .209-.15 1.346 1.346 0 0 1 .409.05 3.725 3.725 0 0 1 1.522.94c.153.18.328.34.484.52a.4.4 0 0 1 0 .64 1.4 1.4 0 0 1-.267.27.51.51 0 0 0-.268.54 1.231 1.231 0 0 1-.756.93.335.335 0 0 1-.362-.15c-.188-.22-.378-.45-.57-.67a2.213 2.213 0 0 0-.3-.31 3.185 3.185 0 0 0-.39-.25zm12.183-1.19a2.667 2.667 0 0 1-1.751 2.38c-.368.09-.751.11-1.125.18a.414.414 0 0 1-.453-.2c-.713-.98-.684-.92-.112-1.87a1.089 1.089 0 0 1 .924-.64.472.472 0 0 0 .446-.4c.1-.31.188-.62.295-.92.228-.65.656-.76 1.14-.34a2.311 2.311 0 0 1 .635 1.81zm-9.145 6.1c.384.39.445.61.2.94-.449.61-.663.72-1.127.45a3.935 3.935 0 0 1-.349-.23.7.7 0 0 1-.976.61 2.925 2.925 0 0 1-.718-.09.36.36 0 0 1-.2-.61 1.114 1.114 0 0 0 .17-.91 1.688 1.688 0 0 1-.01-.46.44.44 0 0 1 .325-.46 1.964 1.964 0 0 1 1.016-.12c.081.02.176.09.24-.01a.311.311 0 0 0-.013-.32c-.047-.1-.119-.19-.173-.29-.133-.24-.1-.32.141-.42a2.578 2.578 0 0 1 2.666.97.446.446 0 0 1 .1.47.333.333 0 0 1-.42.12c-.582-.05-.582-.05-.873.36zM43.064 143.57a4.221 4.221 0 0 1-.319 1.35.452.452 0 0 0 .081.56 1.952 1.952 0 0 1 .419 1.33c0 .55 0 1.11-.027 1.67-.017.41 0 .88-.567.89a.411.411 0 0 0-.223.22c-.3.33-.5.31-.75-.08a1.672 1.672 0 0 1-.208-1.22 4.467 4.467 0 0 0 .055-.79 1.014 1.014 0 0 0-.212-.75.692.692 0 0 1-.155-.53c.013-.16.054-.3.254-.26a.979.979 0 0 0 .874-.59.211.211 0 0 0-.06-.3 2.4 2.4 0 0 1-.532-1.58.672.672 0 0 1 .331-.71 1.044 1.044 0 0 0 .6-.59.128.128 0 0 1 .173-.09.2.2 0 0 1 .116.18 10.428 10.428 0 0 0 .149 1.29zm47.927-136a.516.516 0 0 0-.231.47 1.707 1.707 0 0 1-.43.95c-.18.23-.368.46-.537.7a1.175 1.175 0 0 1-.507.38.312.312 0 0 1-.505-.18.878.878 0 0 0-.362-.39c-.215-.16-.435-.31-.644-.48a.606.606 0 0 1-.382-.43.555.555 0 0 1 .494-.42 1 1 0 0 1 .5-.14 2.236 2.236 0 0 0 1.28-.55 1.214 1.214 0 0 0 .438-.62.656.656 0 0 1 .756-.45 4.058 4.058 0 0 1 .9.25.843.843 0 0 1 .5.56 4.431 4.431 0 0 1 .173 1.07c.008.37-.1.45-.408.32a1.248 1.248 0 0 1-.877-.88.2.2 0 0 0-.159-.16zM51.843 75.42l-.266.3a2.464 2.464 0 0 0-.724.58c-.165.14-.229.36-.479.19a.169.169 0 0 0-.185.08 1.553 1.553 0 0 1-1.393.5.254.254 0 0 0-.187.08c-.333.52-1.046.53-1.3 1.17a.342.342 0 0 1-.151.15c-.124.05-.237-.01-.2-.16a1.386 1.386 0 0 1 .571-1.14.192.192 0 0 0 .124-.1.727.727 0 0 1 .967-.42.134.134 0 0 0 .144-.04 5.028 5.028 0 0 1 1.146-.76.3.3 0 0 0 .117-.27c-.3.14-.543-.2-.859-.06-.1.03-.145-.18-.125-.32a.956.956 0 0 1 .624-.81c.183-.07.094-.39.283-.29a.777.777 0 0 1 .32.55c.01.04.023.08.053.19a1.4 1.4 0 0 0 .118-.9.636.636 0 0 1 .135-.64 1.493 1.493 0 0 0 .307-.52.209.209 0 0 1 .261-.13.253.253 0 0 1 .209.28 1.167 1.167 0 0 1-.2.76.8.8 0 0 0-.065 1 1.1 1.1 0 0 0 .262-.58c.006-.2.094-.29.266-.23s.366.18.272.33a1.817 1.817 0 0 0-.047.98c-.006.07.001.16.001.23zm39.709-1.37a2.968 2.968 0 0 1 .4-1.7.742.742 0 0 1 1.319-.16 1.325 1.325 0 0 0 .765.62 1.227 1.227 0 0 1 .312.97.138.138 0 0 1-.142.13.5.5 0 0 0-.517.39 2.742 2.742 0 0 1-1.052.88.609.609 0 0 1-.3.02c-.225.03-.356-.44-.625-.14a.426.426 0 0 1-.144-.22 2.079 2.079 0 0 1-.017-.79zM46.264 26.8c0 .17.018.27-.088.32a.276.276 0 0 1-.244-.06.643.643 0 0 1-.211-.38 1.994 1.994 0 0 0-.779-1.23 1.023 1.023 0 0 1-.4-.77 3.732 3.732 0 0 0-.407-1.41 1.011 1.011 0 0 1-.086-.62c.01-.14 0-.33.175-.36a.315.315 0 0 1 .348.19 4.028 4.028 0 0 1 .555 1.4 2.227 2.227 0 0 0 .633 1.53.652.652 0 0 1 .246.48c.017.35.288.62.257.91zm57.805-24.87c-.079-.02-.2-.04-.311-.08-.39-.17-.773-.33-1.149-.51s-.377-.3-.1-.63a2.762 2.762 0 0 1 .344-.34c.612-.53.814-.52 1.353.08a4.315 4.315 0 0 1 .353.42.656.656 0 0 1 .154.68.727.727 0 0 1-.645.38zM62.4 156.84a.422.422 0 0 1-.33-.14 1.512 1.512 0 0 0-1.1-.4c-.393 0-.472-.08-.447-.36a.448.448 0 0 1 .526-.46.4.4 0 0 1 .25.02c.5.5 1.153.21 1.711.41a1.43 1.43 0 0 0 .993.19c.084-.03.139.11.116.2a.376.376 0 0 1-.286.37 11.54 11.54 0 0 0-1.433.17zm8.417-143.63a.281.281 0 0 1-.314-.24.292.292 0 0 1 .213-.34c.19-.08.388-.16.585-.23a4.208 4.208 0 0 0 1.313-.65.427.427 0 0 1 .616.01.241.241 0 0 1 .015.39.5.5 0 0 1-.086.07 7.2 7.2 0 0 1-2.195.97.7.7 0 0 0-.15.02zm-47.51 94.98a1.921 1.921 0 0 1-.487.97l-.091.06c-.175.11-.269.46-.535.28a1.457 1.457 0 0 1 .012-1.18c.206-.15.333-.39.541-.52a.488.488 0 0 1 .427-.16c.198.09.068.3.126.55zm44.92-85.92a.576.576 0 0 1-.81.39.524.524 0 0 0-.42-.28 1.092 1.092 0 0 0-.589.32c-.143.17-.308.32-.474.09s.012-.35.155-.51c.207-.24.507-.29.708-.55.147-.18.354.03.516.12.251.11.433.44.776.23.075-.05.13.08.135.19zm29.785 43.05a1.75 1.75 0 0 0-.02.74.167.167 0 0 1-.1.18.132.132 0 0 1-.167-.1c-.088-.22-.177-.45-.256-.68a.967.967 0 0 0-.5-.69.315.315 0 0 1-.2-.41.365.365 0 0 1 .425-.24 1.126 1.126 0 0 1 .815 1.2zM22.388 96.74a1.483 1.483 0 0 1 .277-.03.241.241 0 0 1 .213.36 1.848 1.848 0 0 1-.131.31.552.552 0 0 0-.051.76.2.2 0 0 1-.067.29.186.186 0 0 1-.253-.12.856.856 0 0 1-.095-.27.464.464 0 0 0-.464-.43c-.309-.03-.315-.14-.17-.45a.6.6 0 0 1 .738-.42zm13.021 51.72c-.014.49-.4.72-.766.45a1.3 1.3 0 0 0-.367-.17c-.236-.08-.269-.26-.1-.48a1.653 1.653 0 0 1 .744-.48.736.736 0 0 1 .486.68zm-6.049-46.85a2.054 2.054 0 0 1 .312 1.69.539.539 0 0 1-.331.45.309.309 0 0 1-.1-.33.785.785 0 0 0 0-.27c-.535-.26-.094-.74-.2-1.1a.408.408 0 0 1 .316-.44zm26.722-80.76a.409.409 0 0 1 .461-.47.829.829 0 0 1 .654.63.626.626 0 0 1-.658.5.616.616 0 0 1-.46-.66zM19.551 66.5a.133.133 0 0 1-.114-.2.879.879 0 0 1 .289-.39 2.876 2.876 0 0 0 .7-.75.391.391 0 0 1 .246-.2.233.233 0 0 1 .307.3.846.846 0 0 1-.391.64 3.259 3.259 0 0 0-.938.57.109.109 0 0 1-.102.03zm44.506-43.35c.015-.05.031-.15.061-.23.07-.18.188-.24.312-.07a5.049 5.049 0 0 1 .431.7.4.4 0 0 1-.125.55.283.283 0 0 1-.43-.16 1.9 1.9 0 0 1-.252-.79zm-9.463-11.93a.683.683 0 0 1-.371.57.717.717 0 0 1-.547-.52.612.612 0 0 1 .388-.59.67.67 0 0 1 .527.54zm8.612 54.91a.468.468 0 0 1-.464-.5.962.962 0 0 1 .514-.41.683.683 0 0 1 .459.56.438.438 0 0 1-.515.35zm.811 82.63a.67.67 0 0 1 .5.63.187.187 0 0 1-.136.15.824.824 0 0 1-.847-.21.212.212 0 0 1-.02-.26.76.76 0 0 1 .5-.31zm-37.272-42.32a2.018 2.018 0 0 0 .032-.23.474.474 0 0 1 .152-.45c.188-.1.266.1.359.22a1.069 1.069 0 0 0 .321.17.144.144 0 0 1 .082.18.141.141 0 0 1-.15.13.31.31 0 0 0-.475.23.163.163 0 0 1-.23.04.234.234 0 0 1-.094-.29zm30.372 44.82a.315.315 0 0 0 .146.35.222.222 0 0 1 0 .34c-.124.11-.232.04-.318-.07a.348.348 0 0 1-.1-.18.9.9 0 0 0-.234-.64c-.145-.16 0-.32.127-.42s.218-.01.289.12a.512.512 0 0 1 .087.5zm8.86 3.74c-.161-.03-.171-.18-.151-.34a.915.915 0 0 1 .611-.61.16.16 0 0 1 .2.18.814.814 0 0 1-.663.77zM55.244 49.63a1.367 1.367 0 0 1-.038.14.307.307 0 0 1-.251.25c-.177.03-.172-.14-.2-.27-.016-.07-.05-.13-.074-.21a.324.324 0 0 1 .081-.4.249.249 0 0 1 .325-.08.48.48 0 0 1 .154.57zM56 69.86a.873.873 0 0 1-.467-.89.1.1 0 0 1 .171-.05 2.211 2.211 0 0 1 .5.56.242.242 0 0 1-.204.38zm1.2-.44c-.037.15.029.42-.23.39a.385.385 0 0 1-.332-.44.361.361 0 0 1 .337-.41c.156.01.234.16.225.46zm18.967 18.6a.361.361 0 0 1-.149.36c-.17.08-.241-.08-.317-.2a.469.469 0 0 1-.079-.52.252.252 0 0 1 .327-.09.443.443 0 0 1 .22.45zM25.7 118.21a.511.511 0 0 1-.121.36c-.132.15-.3.35-.475.19s.017-.34.094-.49a.989.989 0 0 1 .165-.22.186.186 0 0 1 .225-.08.289.289 0 0 1 .112.24zm37.114 34.55c.191.03.331-.03.384.15a.38.38 0 0 1-.03.33.254.254 0 0 1-.374.03.359.359 0 0 0-.144-.05.2.2 0 0 1-.17-.24.226.226 0 0 1 .21-.21 1.053 1.053 0 0 1 .127-.01zm.872-2.59a.277.277 0 0 1 .233.33.368.368 0 0 1-.238.44.126.126 0 0 1-.131-.05.941.941 0 0 1-.072-.61.173.173 0 0 1 .211-.11zm-2.45-84.01a.365.365 0 0 1-.307-.38.246.246 0 0 1 .231-.25.345.345 0 0 1 .325.36.259.259 0 0 1-.246.27zm3.39 89.78a1.443 1.443 0 0 0 .395-.7.138.138 0 0 1 .146-.13.151.151 0 0 1 .072.06 1.118 1.118 0 0 1-.035.65.487.487 0 0 1-.575.12zm-28.141-8.09a.21.21 0 0 1-.171.24.389.389 0 0 1-.407-.34.231.231 0 0 1 .218-.2.307.307 0 0 1 .363.3zM21.9 110.23a.3.3 0 0 1-.282-.31c.016-.2.2-.21.355-.21a.2.2 0 0 1 .2.25.258.258 0 0 1-.273.27zm31.8 1.37a3.8 3.8 0 0 1-.166-1.29 2.027 2.027 0 0 1 .62-1.22.493.493 0 0 1 .282-.11c.28-.05.431.11.326.37a1.778 1.778 0 0 0-.124.89.279.279 0 0 1-.03.16c-.264.44-.622.78-.908 1.2zm4.787-2.63a1.168 1.168 0 0 0-.131-.97.442.442 0 0 1 .26-.65 1.613 1.613 0 0 1 .915-.32.609.609 0 0 1 .426.15c.259.24.266.4-.022.61a1.32 1.32 0 0 1-.751.46.385.385 0 0 0-.256.26.74.74 0 0 1-.439.46zm1.376-2.62a.473.473 0 0 1-.3.37.575.575 0 0 1-.922-.25.157.157 0 0 1 .03-.2 3.017 3.017 0 0 1 .6-.43.566.566 0 0 1 .594.51zm-3.609-3.71a.786.786 0 0 0-.034.58.126.126 0 0 1-.154.16.847.847 0 0 1-.523-.41 1 1 0 0 1 .173-.74.216.216 0 0 1 .291 0 .424.424 0 0 1 .249.41zm-6.587 13.86a.418.418 0 0 1-.436-.4c0-.17.016-.36.226-.36a.489.489 0 0 1 .393.44.245.245 0 0 1-.181.32zm12.479-28.6a.274.274 0 0 1 .279.21.472.472 0 0 1-.4.37.256.256 0 0 1-.254-.29.337.337 0 0 1 .377-.29z" fill="#ef5b5b" fill-rule="evenodd"/></svg>