<svg xmlns="http://www.w3.org/2000/svg" width="51" height="37"><path d="M50.98 4.263l-5.439 6.783 2.076 5.814zm.02-.008l-7.543 4.562L37.63 6.28zM10.744 33.684A19.694 19.694 0 0 0 21.736 37C32.37 37 40.99 28.717 40.99 18.5a17.884 17.884 0 0 0-.327-3.383c-5.338 6.9-18.291 21.57-29.919 18.567zm29.143-21.36A19.225 19.225 0 0 0 21.736 0C11.102 0 2.482 8.283 2.482 18.5a17.836 17.836 0 0 0 .495 4.177C1.519 22.891 0 21.467 0 21.467a10.918 10.918 0 0 0 3.918 4.049.716.716 0 0 1 .02.049 14.048 14.048 0 0 0 2 .95 12.946 12.946 0 0 0 2.807.759c6.648 1.104 16.594-1.774 31.142-14.95z" fill="#ef5b5b" fill-rule="evenodd"/></svg>