<svg xmlns="http://www.w3.org/2000/svg" width="70.65" height="134.78"><path d="M47.16 20.18a.622.622 0 0 1 .82.41.731.731 0 0 0 .36.29 2.744 2.744 0 0 0 1.38.39.535.535 0 0 1 .42.53 1.311 1.311 0 0 1-.17.93c-.13.21-.26.41-.43.67a.412.412 0 0 0 .48-.26c.1-.17.19-.36.3-.53a1.2 1.2 0 0 1 1.67-.57c.68.34 1.39.58 2.09.85a1.152 1.152 0 0 1 .73.5.235.235 0 0 0 .33.09.426.426 0 0 1 .47.09 2.366 2.366 0 0 1 .72 1.78.539.539 0 0 0 .51-.19.926.926 0 0 1 1.05-.13c.59.22 1.18.44 1.78.63a8.169 8.169 0 0 0 2.61.15 2.7 2.7 0 0 1 1.7.53 10.734 10.734 0 0 1 1.9 1.67 16.348 16.348 0 0 0 1.44 1.2 1.18 1.18 0 0 0 .83.23c.26 0 .51.04.75.03a1.353 1.353 0 0 1 1.37 1.17 8.669 8.669 0 0 1 .07 4.97 4.331 4.331 0 0 1-.79 1.39c-.34.5-.74.94-1.06 1.46a1.46 1.46 0 0 1-.4.42 4.591 4.591 0 0 0-1.82 2.47 3.672 3.672 0 0 1-.6 1.12 1 1 0 0 1-.7.53.551.551 0 0 0-.54.61 11.5 11.5 0 0 0-.1 3.31 7.932 7.932 0 0 1-.11 2.07 10.01 10.01 0 0 0-.15 1.08 2.81 2.81 0 0 1-.52 1.73 1.709 1.709 0 0 0-.27 1.12 2.638 2.638 0 0 1-.58 2.04 1.508 1.508 0 0 0-.21.5 3.91 3.91 0 0 1-.67 1.24 2.127 2.127 0 0 0-.57 1.34 1.223 1.223 0 0 1-.8 1.2 1.055 1.055 0 0 0-.68.75.605.605 0 0 1-.56.47 2.347 2.347 0 0 1-.74.09 7.668 7.668 0 0 0-2.34.13.346.346 0 0 0-.17.02c-.16.62-.81.48-1.11.9a1.308 1.308 0 0 1-.77.4 3.033 3.033 0 0 0-1.35.65 23.778 23.778 0 0 0-2.38 2.33 2.47 2.47 0 0 0-.58 2.03 3.166 3.166 0 0 0 .22 1.14.3.3 0 0 1 .02.26 2.82 2.82 0 0 0-.2 1.35 1.9 1.9 0 0 1-.89 1.63 1.868 1.868 0 0 0-.6.7 6.745 6.745 0 0 0-1.07 2.32 5.406 5.406 0 0 1-.73 1.36c-.12.24-.29.46-.4.7a1.73 1.73 0 0 1-.59.69c-.28.2-.56.42-.82.63a2.251 2.251 0 0 0-.76 1.23 3.273 3.273 0 0 1-.95 1.59 3.2 3.2 0 0 0-.8 1.12 3.3 3.3 0 0 1-1.44 1.67 1.132 1.132 0 0 1-.96.14 1.618 1.618 0 0 0-.87-.08 3.068 3.068 0 0 1-1.91-.47 2.192 2.192 0 0 0-.83-.3 1.1 1.1 0 0 1-1.01-.55.174.174 0 0 0-.22-.08.259.259 0 0 0-.11.29.8.8 0 0 0 .45.62 5.548 5.548 0 0 1 1.09.91.966.966 0 0 1 .24 1.06.871.871 0 0 0 .55 1.33.6.6 0 0 1 .37.57 2.048 2.048 0 0 1-.28 1.31c-.18.29-.35.58-.55.85a2.4 2.4 0 0 0-.47.96 1.106 1.106 0 0 1-.71.89 11.713 11.713 0 0 1-2.92.94c-.48.05-.94.21-1.41.3a4.552 4.552 0 0 1-2.19-.16 1.34 1.34 0 0 0 .19.77 1.176 1.176 0 0 1-.02 1.19 1.85 1.85 0 0 0-.2 1.32 1.066 1.066 0 0 1-.73 1.43 2.121 2.121 0 0 1-2.26-.05c-.29-.18-.61-.28-.91-.45-.22-.11-.31-.02-.35.21a2.241 2.241 0 0 0 .06.68 3.744 3.744 0 0 1 .15 1.1.959.959 0 0 0 .54 1.05 1.312 1.312 0 0 0 .35.27 1.659 1.659 0 0 1 .18-.38c.22-.06.43-.19.65-.23a.347.347 0 0 1 .31.3 2.022 2.022 0 0 1 .09 1.09.656.656 0 0 1-.6.52.516.516 0 0 1-.59-.28c-.35-.52-.36-.52-.82-.04a1.516 1.516 0 0 0 .72.35.238.238 0 0 1 .06.45c-.12.09-.26.16-.38.24a1.66 1.66 0 0 0-.79 1.72 1.719 1.719 0 0 1-.42 1.64.592.592 0 0 0-.12.52c.01.48-.04.56-.42.57a2.739 2.739 0 0 0-2.52 2.06 1.189 1.189 0 0 0 .04 1.01 4.365 4.365 0 0 0 1.16 1.42 1.505 1.505 0 0 0 .88.3.628.628 0 0 1 .69.8c-.02.5-.24.96-.25 1.48a.736.736 0 0 1-.32.49 15.376 15.376 0 0 0-2.04 1.92 1.371 1.371 0 0 0-.4 1.1 3.3 3.3 0 0 1-.29 1.41 1.019 1.019 0 0 1-.64.61 2.115 2.115 0 0 0-1.42 1.68 1.363 1.363 0 0 0 .03.8 3.715 3.715 0 0 1 .23 1.21 3.077 3.077 0 0 0 .65 1.54.6.6 0 0 1 .24.65.551.551 0 0 1-.64.09c-.18-.04-.35-.15-.53-.21a.294.294 0 0 0-.34.11.321.321 0 0 0 .08.37.409.409 0 0 0 .55.2.431.431 0 0 1 .58.23 5.493 5.493 0 0 1 .63 1.11c.07.17.13.36-.17.37-.17 0-.14.15-.05.23a2.931 2.931 0 0 1 .52.93 3.693 3.693 0 0 0 1.06 1.16c.53.46 1.1.88 1.61 1.39a1.428 1.428 0 0 0 1.14.47c.22-.02.48-.04.52.34a.6.6 0 0 1-.49.68 9.749 9.749 0 0 0-1.53.24 1.986 1.986 0 0 0-.55.24c-.3.11-.12.15-.05.28.13.26.05.48-.16.43a3.4 3.4 0 0 1-1.9-.73 2.837 2.837 0 0 0 .43 1.19 1.561 1.561 0 0 1 .3-.28 1.061 1.061 0 0 1 .39.21 1.979 1.979 0 0 1 .55.8.313.313 0 0 1-.09.37c-.12.08-.25.25-.39.08a.76.76 0 0 0-.45-.15c-.13-.04-.33-.01-.33-.24a2.033 2.033 0 0 1 .33-.32.614.614 0 0 1-.85-.33.376.376 0 0 0-.14-.14 1.54 1.54 0 0 1-.65-.15 1.022 1.022 0 0 0-.46-.5.189.189 0 0 0-.02.26c.07.14.22.29.08.43a.332.332 0 0 1-.51-.04 3.332 3.332 0 0 0-.87-.76.3.3 0 0 1-.05-.43.347.347 0 0 0-.05-.49 1.685 1.685 0 0 0-1.36-.24.508.508 0 0 0-.16.21.265.265 0 0 0-.06.05 1.149 1.149 0 0 0-.36-.07c-.31 0-.39-.2-.37-.5l.03-.02.62-.07c-.32-.26-.62-.46-.32-.93a.31.31 0 0 0-.33-.41 1.077 1.077 0 0 1-1.03-.26c.16.33.37.62-.03.75a.471.471 0 0 1-.59-.49c-.07-.5-.48-.34-.72-.5a.78.78 0 0 0-.37.01c-.23-.04-.36-.16-.19-.43.1-.14.2-.29.06-.42a1.04 1.04 0 0 0-.52-.69.254.254 0 0 1-.3-.26.266.266 0 0 1 .27-.3.2.2 0 0 0 .17-.24.225.225 0 0 0-.26-.14 3.273 3.273 0 0 1-.58.19c-.26-.09-.02-.44-.24-.59a1.049 1.049 0 0 1-.44-1.08 13.381 13.381 0 0 0 1.71 1.11.57.57 0 0 0 .85-.05.61.61 0 0 1-.62-.38 1.111 1.111 0 0 0-.66-.68.517.517 0 0 1-.24-.64c.02-.11.08-.27-.09-.24a.629.629 0 0 1-.53-.46 3.387 3.387 0 0 0-.27.64 1.529 1.529 0 0 1-.66-1.79.521.521 0 0 1 .44-.41c.28-.03.62.15.83-.26.05-.11.19 0 .24.1a1.509 1.509 0 0 1 .27.7 2.739 2.739 0 0 0 .3.75c.02.09.1.05.15.01s.14-.08.09-.14c-.26-.31-.07-.84-.47-1.09a.768.768 0 0 1-.25-.47.265.265 0 0 0-.27-.2c-.35-.06-.45-.26-.25-.55a1.032 1.032 0 0 0 .02-1.02c-.11.43-.25.84-.35 1.26-.06.25-.19.42-.37.37a.516.516 0 0 0-.62.32.17.17 0 0 1-.22.07.239.239 0 0 1-.11-.29 1.7 1.7 0 0 1 .5-1.15.47.47 0 0 0 .23-.59.511.511 0 0 1 .18-.6c.27-.2-.03-.56.18-.83.23-.27.05-.53-.2-.74a.7.7 0 0 1-.17-.63.956.956 0 0 0-.35-.9.468.468 0 0 1-.07-.74c-.32.05-.46.47-.7.2a.861.861 0 0 1-.13-.84c.1-.35.22-.69.33-1.02a.777.777 0 0 0 .05-.68.519.519 0 0 1 .06-.58.515.515 0 0 0 .15-.36.4.4 0 0 1 .46-.49.542.542 0 0 1 .43.65 3.209 3.209 0 0 0 .06.88.477.477 0 0 0 .12.37.665.665 0 0 1 .14.74.291.291 0 0 0 .2.33 1.07 1.07 0 0 0-.01-.97 2.153 2.153 0 0 1-.21-.8c0-.38.08-.46.44-.42a1.081 1.081 0 0 0 .7-.06.665.665 0 0 0-.62-.35 4.013 4.013 0 0 0-.5-.07.263.263 0 0 1-.18-.37 3.7 3.7 0 0 1 .49-1.02.846.846 0 0 0 .26-.46c.08-.28-.16-.66-.38-.54a1 1 0 0 1-1.11-.28c-.22.07-.12.24-.13.35-.03.22-.11.37-.32.35a.355.355 0 0 1-.28-.4.986.986 0 0 1 .24-.76 3.241 3.241 0 0 1 .79-.74.5.5 0 0 0-.17-.36c-.08-.28 0-.47.26-.5s.56-.01.97-.01a4.19 4.19 0 0 1-.93-.39c-.14-.12-.19-.3.03-.36a.755.755 0 0 0 .38-.55c.38-.66.41-1.16-.33-1.51a.226.226 0 0 1 .02-.42.872.872 0 0 0 .47-.68c.1-.47.11-.47.58-.43a1.922 1.922 0 0 0 .24 0c.06-.17-.05-.16-.11-.19-.15-.07-.37-.15-.24-.37a.34.34 0 0 1 .55-.08.854.854 0 0 1 .35.77 3 3 0 0 0 .03 1.23.818.818 0 0 1-.24.74c-.12.15-.23.24-.02.42a.37.37 0 0 1 .04.45.149.149 0 0 0 .12.24c.11.03.25.01.25-.11a2.129 2.129 0 0 0 .06-1.2.633.633 0 0 1 .19-.89c.12-.09.29-.18.14-.37a.541.541 0 0 1 .04-.68 1.158 1.158 0 0 0 .16-1.11.417.417 0 0 1 .01-.27 6.516 6.516 0 0 0 .45-2.4 1.411 1.411 0 0 1 .37-.5c-.32-.18-.56-.39-.31-.8a.256.256 0 0 0-.13-.34.183.183 0 0 0-.28.06.218.218 0 0 1-.04.05c-.14.3-.58.2-.64.47a2.284 2.284 0 0 0 .16.86.313.313 0 0 1-.01.2c-.53.41-.21 1-.25 1.5a1.655 1.655 0 0 1-.1.53c-.22.52-.39.62-.87.42a.638.638 0 0 1-.34-.95 5.189 5.189 0 0 0 .21-1.42 1.993 1.993 0 0 1 .54-1.62.211.211 0 0 0 .07-.29 2.982 2.982 0 0 1-.05-1.89 6.859 6.859 0 0 0 .09-.9 1.8 1.8 0 0 1 .39-1.27 1.14 1.14 0 0 0 .2-.71 3.732 3.732 0 0 0-.18-1.29.959.959 0 0 1-.12-.39 11.2 11.2 0 0 0-.16-2.25.758.758 0 0 1 .5-.91.407.407 0 0 0 .19-.52.614.614 0 0 1 .24-.65.89.89 0 0 0 .3-.59 10.917 10.917 0 0 1 .79-2.25 6.425 6.425 0 0 0 .45-1.51c.1-.49.29-.97.37-1.45a11.248 11.248 0 0 0 .35-2.51c-.06-.96-.19-1.92-.28-2.89a2.291 2.291 0 0 1 .32-1.76 1.385 1.385 0 0 0 .04-1.27 1.457 1.457 0 0 1 .13-1.43 2.016 2.016 0 0 0 .26-.84 17.373 17.373 0 0 1 .62-2.68 2.908 2.908 0 0 0 .1-1.5 1.39 1.39 0 0 1 .15-1.07 1.558 1.558 0 0 0 .18-.85v-2.29a1.369 1.369 0 0 0-.03-.41 1.069 1.069 0 0 1 .19-1.09 1.033 1.033 0 0 0 .21-.71 4.382 4.382 0 0 1 .12-1.3 3.048 3.048 0 0 0-.01-1.44 1.427 1.427 0 0 1-.06-.54 14.354 14.354 0 0 0-.27-3.64 1.274 1.274 0 0 0-.71-1.2 1.268 1.268 0 0 1-.41-.42 5.373 5.373 0 0 0-2.12-1.76 26.4 26.4 0 0 1-3.45-2.06 9.724 9.724 0 0 1-2.15-2.19.764.764 0 0 1-.13-.83 1 1 0 0 0-.09-.92c-.45-.88-.99-1.7-1.39-2.62a.738.738 0 0 0-.21-.25 1.364 1.364 0 0 1-.47-1.01 1.645 1.645 0 0 0-.15-.67 24.978 24.978 0 0 1-1.06-2.5 1.868 1.868 0 0 1-.2-.51 2.324 2.324 0 0 0-.86-1.54 1.628 1.628 0 0 1-.44-.75A3.27 3.27 0 0 0 1.44 32c-.26-.19-.49-.43-.75-.63a.5.5 0 0 1-.2-.78.378.378 0 0 0-.03-.45c-.03-.05-.08-.11-.11-.17a1.8 1.8 0 0 1 .34-2.5 6.434 6.434 0 0 1 1.06-.96.935.935 0 0 0 .34-1.28.147.147 0 0 0-.11.02c-.18.13-.32.42-.59.22a1.234 1.234 0 0 1-.71-.81 10.958 10.958 0 0 1 .03-1.72.356.356 0 0 1 .08-.25c.62-.34.5-1.18.93-1.67a1.333 1.333 0 0 0 .1-.8c.02-.52.07-.65.5-.72a8.782 8.782 0 0 0 1.05-.57.226.226 0 0 0 .15-.21.742.742 0 0 1 .39-.85.57.57 0 0 0 .11-.45.845.845 0 0 1 .87-.89.765.765 0 0 0 .76-.67 3.7 3.7 0 0 1 .65-1.08c-.53-.39-.53-.39-.41-1.06a2.263 2.263 0 0 0-.01-.82 5.7 5.7 0 0 1-.03-1.49 2.374 2.374 0 0 0-.38-1.81.908.908 0 0 1 .21-1.5c.49-.38.51-.46.27-1.07-.02-.07-.06-.13-.08-.19a.333.333 0 0 1 .08-.37c.11-.08.2.03.28.09a3.482 3.482 0 0 0 .54.57 1.032 1.032 0 0 1 .53-1.17 5.036 5.036 0 0 1 1-1.01.426.426 0 0 0 .16-.36c.04-.22.08-.45.1-.68a1.457 1.457 0 0 1 1.52-1.52.508.508 0 0 0 .61-.31.473.473 0 0 1 .55-.23 2.273 2.273 0 0 0 1.54-.45 2.726 2.726 0 0 1 .51-.26 1.233 1.233 0 0 0 .67-.57.9.9 0 0 1 1.23-.47.568.568 0 0 1 .15.99 1.2 1.2 0 0 1-.4.32.386.386 0 0 0-.19.64c.09.16.17.32.29.53a4.264 4.264 0 0 1 2.22-.98 1.189 1.189 0 0 1-.49-.51.909.909 0 0 1 .21-.57.358.358 0 0 1 .66.05.3.3 0 0 1 .06.13 1.1 1.1 0 0 0 1.15.99 4.238 4.238 0 0 1 .61.17.84.84 0 0 1 .54.61c.24.75.25.73.93.64.57-.07 1.15-.11 1.73-.15a.878.878 0 0 1 .87.41 1.374 1.374 0 0 0 1.62.32 3.506 3.506 0 0 1 .94-.33c.06 0 .09-.04.07-.07-.23-.16-.16-.28.04-.39a1 1 0 0 1 .48-.08c.69 0 1.38-.01 2.06 0a.618.618 0 0 1 .63.26 1.5 1.5 0 0 1-1.18.39 2.156 2.156 0 0 1 .67.63.538.538 0 0 0 .44.24 3.213 3.213 0 0 1 1.1.42 1.619 1.619 0 0 1 .95 1.91.223.223 0 0 0 .13.05 1.181 1.181 0 0 1 1.36.11 5.673 5.673 0 0 1 1.51 1.2 1.523 1.523 0 0 1 .49 1.01.327.327 0 0 0 .26.4 2.58 2.58 0 0 1 1.65 1.25 1 1 0 0 0 .56.32 5.49 5.49 0 0 0 1.98.01 3.905 3.905 0 0 1 2.49.4 15.413 15.413 0 0 1 2.35 1.22 7.056 7.056 0 0 0 1.03.89 2.365 2.365 0 0 1 1.26 1.98 14.744 14.744 0 0 0 .49 1.78.92.92 0 0 0 .65.76c.34.06.38.29.29.61a2.307 2.307 0 0 1-.51 1.16.863.863 0 0 0-.17.36 2.424 2.424 0 0 0-.92.84.669.669 0 0 0 .82-.67.7.7 0 0 1 .09-.17zM14.58 128.51a1.473 1.473 0 0 1-.9-1.39c-.41.71.39 1 .35 1.59a.9.9 0 0 1 .55-.21 2.6 2.6 0 0 0 .97.71c.1.09.23-.06.26-.21.04-.33.32-.53.36-.87a.282.282 0 0 1 .25-.28c.17-.01.19.16.21.29a2.253 2.253 0 0 1 .06 1.21c-.1.2.07.24.17.27.16.05.23-.05.21-.22-.02-.21-.07-.41-.09-.62a.6.6 0 0 1 .36-.82c.17-.1.35-.17.51-.26a.215.215 0 0 0 .13-.28.2.2 0 0 0-.26-.12c-.14.03-.28.08-.42.12a.569.569 0 0 1-.78-.32.958.958 0 0 1 .12-1.01c.07-.07.24-.03.21-.2a.359.359 0 0 0-.24-.29c-.26-.14-.44-.02-.49.38-.08.66-.22 1.31-.27 1.98-.04.59-.23.74-.72.64a64.1 64.1 0 0 0-.55-.09zm.29-125.05A.931.931 0 0 0 14.66 5c.09.13.14.28.22.42.17.27.36.29.53 0a1.061 1.061 0 0 0-.02-1.1c-.16-.3-.34-.57-.52-.86zm-.97 123.41a1.321 1.321 0 0 0 1.46-.71.346.346 0 0 0 .01-.2.457.457 0 0 0-.11-.16.1.1 0 0 0-.15.07 2.954 2.954 0 0 1-1.21 1zm-.74-1.75c.14.18.22.62.44.44a2.633 2.633 0 0 1 1.24-.34c-.62-.38-1.15.29-1.68-.1zm-2.05-16.32c.18-.24.72-.07.57-.63-.07-.3-.3-.21-.53-.23a1.552 1.552 0 0 1-.04.86zm19.53 13.76a1.3 1.3 0 0 1 .83.65c.13-.12.22-.19.3-.26.36-.32.36-.32.03-.72a.611.611 0 0 1-.13-.22c-.05-.15-.02-.33.15-.27a4.4 4.4 0 0 0 1.77.01.92.92 0 0 0 .57-.2.384.384 0 0 1 .28-.11 4.873 4.873 0 0 1 1.36.51.62.62 0 0 1-.01.89 1.654 1.654 0 0 1-.71.41c-.22.02-.43.04-.4.37a.2.2 0 0 1-.02.06c-.46-.12-.5.49-.88.58-.5.12-.49.17-.77-.31s-.34-.5-.76-.15c-.58.48-.79.45-1.24-.16a4.142 4.142 0 0 1-.34-.48.576.576 0 0 1-.03-.6z" fill="#ef5b5b" fill-rule="evenodd"/></svg>