<svg xmlns="http://www.w3.org/2000/svg" width="113.969" height="124.94"><path d="M70.747.28c.116-.09.242-.18.358-.28h.84a1.71 1.71 0 0 1 .2.33.453.453 0 0 0 .562.37.975.975 0 0 1 .86.16.845.845 0 0 0 .509.15.632.632 0 0 1 .232.05.267.267 0 0 1 .144.42 2.732 2.732 0 0 1-.885.97c-.171.12-.342.23-.51.35a.113.113 0 0 0-.025.11.112.112 0 0 0 .106.05.987.987 0 0 0 .787-.42 6.17 6.17 0 0 1 1.4-1.12.39.39 0 0 1 .507-.02 1.691 1.691 0 0 0 .248.18.867.867 0 0 1 .614.98 1.643 1.643 0 0 0 .434 1 .694.694 0 0 0 .37.2 1.452 1.452 0 0 1 .66 2.07 6.99 6.99 0 0 1-1.166 1.6 5.964 5.964 0 0 0-.809.89.48.48 0 0 1-.529.23 1.4 1.4 0 0 0-.352-.04.2.2 0 0 0-.207.2.408.408 0 0 1-.458.41 3.551 3.551 0 0 0-.915.19 2.889 2.889 0 0 1 .417.22.215.215 0 0 1 .023.34c-.2.17-.422.33-.633.5a1.478 1.478 0 0 0-.488.46c.094.12.165.04.217-.01a16.52 16.52 0 0 1 1.389-.92 1.987 1.987 0 0 1 .9-.35.3.3 0 0 1 .335.36 1.079 1.079 0 0 1-.218.61 2.412 2.412 0 0 1-.7.72 1.047 1.047 0 0 0-.484.57 7.363 7.363 0 0 1-1.173 1.77c-.077.1-.171.19-.248.29a3.013 3.013 0 0 0-.629 1.27.781.781 0 0 1-.365.58.508.508 0 0 0-.256.48.276.276 0 0 1-.224.28 1.064 1.064 0 0 0-.591.29 1.086 1.086 0 0 0-.53-.08.225.225 0 0 0-.105.14.173.173 0 0 0 .1.14.5.5 0 0 0 .532-.2.624.624 0 0 1 .237.02.292.292 0 0 1 .154.46 1.9 1.9 0 0 1-.21.24c-.1.11-.208.21-.312.32a.388.388 0 0 0-.114.41.565.565 0 0 1-.337.73 1.476 1.476 0 0 1-.877.13 1.248 1.248 0 0 1-.21-.02.367.367 0 0 0-.071.33.4.4 0 0 1-.16.34 2.689 2.689 0 0 1-1.087.52 1.339 1.339 0 0 0-.569.18.661.661 0 0 1-.345.07c-.1.01-.2-.02-.294-.01a.418.418 0 0 0-.429.15c-.056.11.176.19.446.18.456-.01.91-.01 1.369 0a.254.254 0 0 1 .264.23.53.53 0 1 1-.887.54.557.557 0 0 1-.058-.12.471.471 0 0 0-.547-.3c-.118.02-.235.03-.375.06.058.13.161.08.237.09.1.03.2.04.291.07a.17.17 0 0 1 .151.17.164.164 0 0 1-.168.15.989.989 0 0 1-.171.05c.053.15.165.09.246.11a.5.5 0 0 1 .387.14 1.408 1.408 0 0 0 .536.42.508.508 0 0 1 .275.47c.006.12.009.23.012.34a.6.6 0 0 1-.49.77c-.073.03-.146.05-.231.08a.862.862 0 0 0 .333.38.386.386 0 0 1 .03.43c-.181.28-.374.55-.744.38a.346.346 0 0 0-.173.01.062.062 0 0 0-.029.05.111.111 0 0 0 .006.06c.13.06.258.12.387.17a.247.247 0 0 1 .182.23.35.35 0 0 1-.182.39 1.751 1.751 0 0 1-1.2.25.221.221 0 0 0-.177.01.2.2 0 0 0-.157.24 2.543 2.543 0 0 0 .131.65.757.757 0 0 1-.015.64 1.705 1.705 0 0 0-.084.25.752.752 0 0 1-.768.61 1.783 1.783 0 0 0-.646.1.105.105 0 0 0 .012.21 1.5 1.5 0 0 1 .3-.03.384.384 0 0 1 .357.49.736.736 0 0 1-.066.19.277.277 0 0 0 .023.31c.114.12.216.06.317-.03a.507.507 0 0 1 .16-.09.213.213 0 0 1 .255.12 1.13 1.13 0 0 1 .031 1.03.885.885 0 0 1-.679.66.213.213 0 0 0-.2.13 1.933 1.933 0 0 1-1.083.77c-.155.09-.287-.03-.271-.21.013-.16.048-.31.058-.46a.237.237 0 0 0-.22-.27.894.894 0 0 0-.794.18.264.264 0 0 1-.217.07 7.356 7.356 0 0 1-.917-.26.268.268 0 0 0-.442.13.551.551 0 0 0-.063.18.347.347 0 0 1-.134.35.7.7 0 0 1-.352.02 1.955 1.955 0 0 1-.727-.27 3.332 3.332 0 0 0-.841-.22.176.176 0 0 0-.163.04.289.289 0 0 1-.388.01 1.234 1.234 0 0 0-.565-.16 1.8 1.8 0 0 1-.749-.34 1.155 1.155 0 0 1-.318-.71c-.054-.28.111-.52.363-.45a.462.462 0 0 0 .57-.19 4.092 4.092 0 0 1 .347-.37.88.88 0 0 1 .61-.38.476.476 0 0 0 .309-.18.311.311 0 0 0 .042-.42 4.787 4.787 0 0 1-.6-1.29.606.606 0 0 1 .265-.89.853.853 0 0 1 1.3.46 5.08 5.08 0 0 1 .264.75.659.659 0 0 0 .644.5 2.093 2.093 0 0 0 .678-.2.176.176 0 0 0 0-.11.368.368 0 0 0-.273-.12.948.948 0 0 1-.779-.8 2 2 0 0 0-.157-.43c-.183-.34-.178-.37.039-.63a.758.758 0 0 0 .23-.35.473.473 0 0 0-.366.07.255.255 0 0 1-.326-.07c-.094-.16-.192-.21-.345-.1a.816.816 0 0 1-.227.09.321.321 0 0 1-.4-.3c-.047-.32-.069-.66-.086-.99a.282.282 0 0 1 .046-.19 2.465 2.465 0 0 0 .4-1.02.528.528 0 0 1 .37-.41 1.562 1.562 0 0 0 .867-.4.248.248 0 0 1 .171-.03c.307.1.611.19.912.31a.729.729 0 0 1 .179.18.129.129 0 0 0 .207.01.488.488 0 0 1 .5-.11.549.549 0 0 0 .464-.07.079.079 0 0 0 .018-.06.063.063 0 0 0-.027-.05 4.488 4.488 0 0 1-1.354-.22.941.941 0 0 1-.606-.39.429.429 0 0 1-.092-.31.184.184 0 0 1 .253-.18c.148.1.287.21.438.33a.481.481 0 0 0 0-.16 2.511 2.511 0 0 1-.529-1.24 5.076 5.076 0 0 0-.49-1.21.835.835 0 0 0-.447-.43.933.933 0 0 1-.524-1.02 2.284 2.284 0 0 0-.04-.59 2.628 2.628 0 0 1 .055-.94.409.409 0 0 1 .5-.42c.469.1.934.24 1.4.37a.531.531 0 0 1 .333.36 7.108 7.108 0 0 0 .855 1.68 2.154 2.154 0 0 1 .215.62.783.783 0 0 0 .536.58.222.222 0 0 0 .164-.01c.069-.09 0-.16-.061-.22a.375.375 0 0 0-.093-.08.8.8 0 0 1-.383-.77.883.883 0 0 0-.324-.75 1.184 1.184 0 0 1-.364-.6c-.091-.27-.191-.54-.273-.82a.3.3 0 0 1 .182-.42c.227-.1.455-.17.687-.25a4.425 4.425 0 0 0 1.279-.54 2.176 2.176 0 0 1 .858-.27.5.5 0 0 0 .37-.13c-.287 0-.542-.01-.8-.03a.161.161 0 0 1-.131-.1.212.212 0 0 1 .044-.18 3.8 3.8 0 0 1 1.107-.76c.094-.05.194-.07.284-.12.122-.07.392 0 .337-.23-.039-.16-.284-.08-.442-.05a1.01 1.01 0 0 0-.286.09.392.392 0 0 1-.564-.25c-.214.26-.34.55-.543.76a4.732 4.732 0 0 1-1.951 1.13.991.991 0 0 1-.175.04c-.227.03-.306-.07-.293-.36s-.02-.36-.132-.36c-.168 0-.185.15-.2.28a.665.665 0 0 1-.615.62 2.492 2.492 0 0 1-1.291-.19.507.507 0 0 1-.3-.69 1.279 1.279 0 0 1 .074-.26 5.878 5.878 0 0 1 .7-1.31c.059-.08.279-.13.123-.28-.087-.09-.224.05-.3.14a3.306 3.306 0 0 0-.477.77c-.143.3-.263.61-.4.9a.316.316 0 0 1-.488.21 2.206 2.206 0 0 1-.469-.29 3.493 3.493 0 0 1-.71-.81.361.361 0 0 1 .1-.52 1.179 1.179 0 0 1 1.027-.25 1.056 1.056 0 0 0 1.175-.45c.258-.31.519-.61.781-.92-.042-.12-.122-.05-.179-.02a1.662 1.662 0 0 0-.553.51 1.243 1.243 0 0 1-1.142.61 2.6 2.6 0 0 0-.991.19 1.1 1.1 0 0 0-.171.05.449.449 0 0 1-.552-.12.868.868 0 0 1-.182-.81.337.337 0 0 1 .366-.26c.038 0 .081.02.115.02a.421.421 0 0 0 .109-.03c-.36-.4-.358-.39-.048-.81.126-.18.238-.36.357-.53-.107-.13-.163-.03-.216.02-.19.16-.373.33-.56.49-.164.14-.286.15-.374.05a.429.429 0 0 1-.078-.54c.07-.11.164-.19.24-.3a2.084 2.084 0 0 0 .2-.32.3.3 0 0 0-.069-.36.2.2 0 0 0-.279.04c-.1.1-.183.23-.28.34a.319.319 0 0 1-.36.18.615.615 0 0 1-.337-.58.759.759 0 0 1 .052-.19 2.306 2.306 0 0 1 1.187-1.17.327.327 0 0 1 .469.15.186.186 0 0 0 .142.09.116.116 0 0 0 .073-.15 1.136 1.136 0 0 1 .45-1.03.731.731 0 0 1 .833-.21c.21.05.426.12.641.17a.2.2 0 0 0 .238-.04 4.748 4.748 0 0 1-.321-.46.311.311 0 0 1 .17-.47c.158-.04.318-.04.475-.07a.411.411 0 0 0 .28-.56c-.05-.18-.138-.32-.2-.49a.257.257 0 0 1 .123-.33.747.747 0 0 1 .8.08 2.112 2.112 0 0 1 .313.32 2 2 0 0 0 .883.65.969.969 0 0 1 .462.41 4.737 4.737 0 0 0 .847.95.292.292 0 0 0-.144-.36 10.009 10.009 0 0 1-.9-1.17.89.89 0 0 1-.085-.88.286.286 0 0 1 .09-.17c.4-.12.217-.36.113-.6a.349.349 0 0 1 .039-.37.292.292 0 0 1 .388-.05 1.418 1.418 0 0 1 .388.31.575.575 0 0 0 .252.27.171.171 0 0 0 0-.23c-.152-.35-.32-.67-.469-1.02a.284.284 0 0 1 .274-.43 1.463 1.463 0 0 1 .723.34 1.409 1.409 0 0 0-.157-.53.435.435 0 0 1 .067-.38.84.84 0 0 1 .961-.33c.3.07.263.48.528.52a.459.459 0 0 1 .654-.08c.105.05.179-.03.184-.18.021-.58.024-.57.491-.67a4.939 4.939 0 0 1 1.014-.1.764.764 0 0 1 .787.58c.041.12.094.24.14.37.023.1.034.2.064.3a.168.168 0 0 0 .089.04.2.2 0 0 0 .024-.1c-.054-.08-.118-.16-.177-.24a2.22 2.22 0 0 1 .205-.55.929.929 0 0 1 1.474-.52c-.214.43-.2.51.158.74a1.217 1.217 0 0 1-.172-.74zm-4.7 10.6c-.038-.01-.066-.02-.072-.02l-.645.78a1.56 1.56 0 0 0-.072.1.311.311 0 0 0-.051.12.518.518 0 0 0 .017.44c.176.1.2-.15.251-.27a8 8 0 0 0 .576-1.15zm1.356-7.47c.006.05.008.12.016.18a.066.066 0 0 0 .08.07.1.1 0 0 0 .048-.04 1.049 1.049 0 0 0 .089-.17.27.27 0 0 0-.033-.35.108.108 0 0 0-.054-.02c-.158.04-.126.19-.142.33zM63.297 29.2l.559-.3a.074.074 0 0 0 0-.06.18.18 0 0 0-.094-.07.8.8 0 0 0-.5.3.074.074 0 0 0 0 .06.338.338 0 0 0 .038.07zm3.524-27.34a1.53 1.53 0 0 0 .216.74.19.19 0 0 0 .1.05.2.2 0 0 0 .043-.1 1.879 1.879 0 0 0-.355-.69zm-3.77 11.74a.127.127 0 0 0-.01-.05.089.089 0 0 0-.043-.03.4.4 0 0 0-.246.24.047.047 0 0 0 .006.05.045.045 0 0 0 .043.03.382.382 0 0 0 .254-.24zm5.8 4.97a.1.1 0 0 0-.031-.05.159.159 0 0 0-.212-.03.062.062 0 0 0-.007.06.193.193 0 0 0 .212.06.28.28 0 0 0 .046-.04zm-41 32.11a1.4 1.4 0 0 0 .706-.33c.089-.05.195-.17.272-.1.228.2.314.02.41-.15a1.615 1.615 0 0 1 .183-.35.453.453 0 0 0 .072-.49.852.852 0 0 1-.049-.25.221.221 0 0 1 .077-.17.165.165 0 0 1 .166-.01 1.406 1.406 0 0 1 .532.79c.078.27.15.55.219.83a2.26 2.26 0 0 0 .479.84.208.208 0 0 0 .36-.03 1.9 1.9 0 0 0 .334-.99.465.465 0 0 1 .317-.43.21.21 0 0 1 .305.2 1 1 0 0 0 .157.75.552.552 0 0 1-.039.38.236.236 0 0 0 .3.28.4.4 0 0 0 .278-.23c.076-.16.133-.33.2-.49a.405.405 0 0 1 .431-.29 1.685 1.685 0 0 1 1.433.69.941.941 0 0 0 .542.39 3.332 3.332 0 0 1 1.183.62 1.753 1.753 0 0 0 .953.37.679.679 0 0 0 .462-.06.7.7 0 0 1 .84.13 2.431 2.431 0 0 1 .762.92.363.363 0 0 1-.227.56 1.253 1.253 0 0 0-.5.21.344.344 0 0 0 .045.59 2.454 2.454 0 0 0 .747.23 9.343 9.343 0 0 0 1.671-.07c.26-.26.65-.09.915-.38.136-.16.254-.12.406.08a.621.621 0 0 0 .44.31.353.353 0 0 1 .235.19c.186.23.382.45.567.68a.576.576 0 0 1 .095.72.147.147 0 0 0 .06.22.158.158 0 0 0 .212-.07.348.348 0 0 0 .082-.31c-.075-.34-.146-.69-.253-1.02a.647.647 0 0 1-.1-.5.958.958 0 0 1 .447-.6.741.741 0 0 0 .424-.22.156.156 0 0 0 .032-.18.179.179 0 0 0-.1-.08c-.116 0-.236.02-.355.01a.233.233 0 0 0-.259.21.248.248 0 0 1-.342.17.489.489 0 0 1-.4-.44.777.777 0 0 1 .339-.67c.143-.07.3-.1.453-.17a3.527 3.527 0 0 0 .687-.4.451.451 0 0 1 .728.16 1.328 1.328 0 0 1 .229.54 2.782 2.782 0 0 0 .651 1.02.282.282 0 0 0 .328.1 2.657 2.657 0 0 0 .284-.12.214.214 0 0 1 .312.08c.465.79.534.77 1.519.74a.586.586 0 0 0 .3-.04 1.329 1.329 0 0 1 1.212 0c.176.06.282-.03.3-.28a.562.562 0 0 1 .1-.37.391.391 0 0 0 .036-.37c-.061-.29-.051-.31.2-.34a.215.215 0 0 0 .227-.23.318.318 0 0 0-.149-.39 1.683 1.683 0 0 0-.663-.28.247.247 0 0 1-.276-.2.393.393 0 0 1 .146-.47.9.9 0 0 0 .492-.83 1.794 1.794 0 0 1 .4-.81.206.206 0 0 1 .322-.04.4.4 0 0 1 .089.08 8.461 8.461 0 0 1 1.272 1.93c.007.02.021.04.026.06a.88.88 0 0 1 .265.46 1.355 1.355 0 0 1-.449.32.6.6 0 0 1-.682.27.1.1 0 0 0-.069.08.177.177 0 0 0 .043.12 3.2 3.2 0 0 0 .445.32.346.346 0 0 1 .194.37c-.024.34-.054.66-.1 1a.328.328 0 0 0 .187.37.229.229 0 0 0 .28-.04.256.256 0 0 0 .056-.25 1.722 1.722 0 0 1-.15-.83c.052-.31.035-.34.329-.33a.5.5 0 0 0 .5-.27 5.643 5.643 0 0 1 .417-.66.622.622 0 0 0 .076-.56 3.2 3.2 0 0 0-.453.12.175.175 0 0 1-.164-.16.508.508 0 0 1 .072-.38 1.87 1.87 0 0 0 .156-.71.487.487 0 0 0-.168-.47 4.315 4.315 0 0 0-.792-.59 1.232 1.232 0 0 1-.6-1.69.975.975 0 0 0 .067-.82 1.725 1.725 0 0 1 .1-1.24.267.267 0 0 1 .213-.21c.173-.03.258-.11.166-.31a.569.569 0 0 1 .046-.52 2.783 2.783 0 0 0 .14-2.38 3.852 3.852 0 0 1-.178-1.37c.015-.42.006-.85 0-1.28 0-.08-.023-.17-.016-.26a.419.419 0 0 1 .04-.25 3.819 3.819 0 0 0 .394-.94 1.342 1.342 0 0 1 .581-.33c.176-.05.346-.1.525-.14a.967.967 0 0 1 .825.31.557.557 0 0 0 .5.17 1.465 1.465 0 0 1 .418.01c.744.11.86.35.5 1.07a13.976 13.976 0 0 0-.769 1.89c-.018.06-.043.12-.067.19-.2.47-.359.69-.878.52a.537.537 0 0 0-.172-.05c-.358-.05-.451.06-.319.43a.78.78 0 0 1-.053.75 1.754 1.754 0 0 0-.271.67.281.281 0 0 1-.2.21.217.217 0 0 0-.117.34.314.314 0 0 0 .11.15 2.566 2.566 0 0 1 .906 1.19 1.271 1.271 0 0 1 .14.71 1.463 1.463 0 0 0 .312.98 5.135 5.135 0 0 1 .525.96.268.268 0 0 1 .02.31 6.535 6.535 0 0 1-.445.78c-.13.09-.064.23.015.35.113.16.233.31.45.19.258-.14.4.08.568.23a.294.294 0 0 1 .012.32.48.48 0 0 0 .038.44 2.455 2.455 0 0 1 .294 1.28.252.252 0 0 0 .023.13.132.132 0 0 0 .085.07.112.112 0 0 0 .088-.06 3.056 3.056 0 0 0 .17-.85 1.309 1.309 0 0 1 .265-.73.241.241 0 0 1 .417-.01c.171.28.382.52.562.78a2.414 2.414 0 0 1 .237.89.454.454 0 0 1-.171.57.487.487 0 0 0-.134.54 4.382 4.382 0 0 0 .586 1.31.128.128 0 0 0 .212.02c.046-.04.082-.09.13-.14.317-.33.328-.34.14-.79a1.505 1.505 0 0 1-.063-.92.132.132 0 0 1 .256-.02 4.8 4.8 0 0 0 .148.49.16.16 0 0 0 .166-.16 3.941 3.941 0 0 0 .177-.64 1.46 1.46 0 0 1 .449-1.04.448.448 0 0 0 .034-.65 1.913 1.913 0 0 1-.15-1.35.383.383 0 0 1 .134-.21.675.675 0 0 1 .743-.07 2 2 0 0 0 .959.33.282.282 0 0 1 .271.22c.023.07.04.12.059.19a.793.793 0 0 0 .6.66c.2.05.262.18.161.41a.507.507 0 0 0 .056.54.462.462 0 0 1-.085.6.9.9 0 0 1-.612.29 3.183 3.183 0 0 1 .247 1 1.54 1.54 0 0 0 .317.64 1.123 1.123 0 0 1-.076 1.33 4.243 4.243 0 0 1-1 1.14c-.2.13-.208.15-.411-.03a.249.249 0 0 0-.2-.12c-.079.2.117.38.033.58a1.792 1.792 0 0 1-.516-.01.446.446 0 0 1-.605-.37.217.217 0 0 0-.242-.15 1.894 1.894 0 0 1-.237.02c-.116 0-.272-.08-.336.05-.1.21.1.26.2.35a.491.491 0 0 1 .106.55 3.785 3.785 0 0 1-.7 1.16.576.576 0 0 1-.815.01 2.31 2.31 0 0 0-.71-.61 2.108 2.108 0 0 0-.335-.13.27.27 0 0 0-.1.06.092.092 0 0 0 0 .07 1.513 1.513 0 0 0 .729.75 3.569 3.569 0 0 0 .644.13c.116.03.238.02.357.04.251.04.33.19.256.48a1.153 1.153 0 0 1-.059.19c-.23.47-.455.94-.7 1.4a.608.608 0 0 1-.553.34.956.956 0 0 1-.239 0 .462.462 0 0 0-.623.42.666.666 0 0 1-.57.52c-.252-.26-.493-.38-.434-.25a.549.549 0 0 0 .434.24c.037.2.088.39.105.59a.444.444 0 0 1-.269.53 1.186 1.186 0 0 1-.564.2c-.183.01-.317.04-.234.3a.357.357 0 0 1-.123.13.468.468 0 0 0-.171.16 1.333 1.333 0 0 1-.464.81.849.849 0 0 0-.15.29 1.037 1.037 0 0 1-.438.6.45.45 0 0 0-.208.45 2.705 2.705 0 0 1-.225 1.03 3.7 3.7 0 0 0-.128.84l-.029 1.28c-.009.52.083.64.518.69.084.01.163.01.243.02a.479.479 0 0 1 .464.43c.152.67.324 1.33.475 2 .052.21.14.29.294.19a.951.951 0 0 1 1.361.13 1.78 1.78 0 0 0 .542.29 2.171 2.171 0 0 1 1.234.99.59.59 0 0 0 .336.25 3.335 3.335 0 0 1 1.312.76.41.41 0 0 0 .325.16c.4-.02.786.16 1.19.1a.622.622 0 0 1 .235.01.643.643 0 0 1 .568.84 10.362 10.362 0 0 0 .048 1.73.238.238 0 0 0 .246.3 2.786 2.786 0 0 1 .415.07.477.477 0 0 1 .321.43c.01.09-.067.2-.139.17-.148-.06-.3-.13-.442-.2a.128.128 0 0 0-.163.04.165.165 0 0 0 .038.18 9.076 9.076 0 0 0 .723 1.06 1.031 1.031 0 0 1 .2.41.812.812 0 0 0 .208.31.208.208 0 0 0 .352-.03c.061-.09.105-.19.168-.28a.2.2 0 0 1 .22-.05c.084.03.148.19.248.09a.787.787 0 0 0-.065-.24.473.473 0 0 1 .172-.41.454.454 0 0 0 .046-.55 1.684 1.684 0 0 1-.171-.77c-.023-.33-.069-.67-.1-.99a2.249 2.249 0 0 0-.322-.93c-.109-.2-.1-.23.065-.39.078-.07.157-.13.237-.2v-.01a2.554 2.554 0 0 0 1.131-1.04.84.84 0 0 1 .14-.22 1.948 1.948 0 0 0 .267-1.83c-.113-.37-.173-.78-.25-1.17a1.313 1.313 0 0 0-.542-.91 2.512 2.512 0 0 1-.406-.4.561.561 0 0 1 .163-.95.535.535 0 0 0 .4-.51.436.436 0 0 1 .142-.21.36.36 0 0 0 .074-.37 6.784 6.784 0 0 0-.434-1.51.414.414 0 0 1-.009-.38c.073-.22.14-.43.226-.63a.442.442 0 0 0-.071-.48.979.979 0 0 1-.1-1.16.569.569 0 0 1 .645-.34 2.38 2.38 0 0 1 .858.25 2.1 2.1 0 0 0 .336.15.742.742 0 0 0 .852-.07.614.614 0 0 1 .875.06 2.078 2.078 0 0 1 .639.69 1 1 0 0 0 .3.41.318.318 0 0 1 .147.39.317.317 0 0 0 .179.38 1.215 1.215 0 0 0 .718.29c.177-.02.329.13.522.11a.246.246 0 0 1 .2.38 1.053 1.053 0 0 0-.042.78.351.351 0 0 1 .024.13 6.243 6.243 0 0 0 .151 1.61c.021.36.118.54.45.54a.313.313 0 0 1 .193.14 2.126 2.126 0 0 0 .374.43c.258.25.315.29.551.09a2.98 2.98 0 0 0 1.08-1.29 1.013 1.013 0 0 0 .1-.57 1.075 1.075 0 0 1 .458-1.01.212.212 0 0 1 .313.08.152.152 0 0 1 .031.05 15.848 15.848 0 0 0 1.032 2.1 4.607 4.607 0 0 1 .363.98.88.88 0 0 0 .158.35 1.264 1.264 0 0 1 .324.83.139.139 0 0 0 .017.07.956.956 0 0 1 .117 1.13.553.553 0 0 0 .135.61 1.908 1.908 0 0 0 .634.6.471.471 0 0 1 .3.38.471.471 0 0 0 .368.39 1.125 1.125 0 0 1 .653.44.346.346 0 0 0 .372.16.472.472 0 0 1 .236 0 .709.709 0 0 1 .356.33c.049.1.012.18-.2.44a1.234 1.234 0 0 0 .279.19 1.281 1.281 0 0 0 .8.71.687.687 0 0 1 .373.82 1.38 1.38 0 0 0 .053.66.966.966 0 0 1-.282 1.02 4.169 4.169 0 0 0-.359.44h-.007c-.057.01-.116.01-.174.02a1.926 1.926 0 0 0-1.734.99 2.779 2.779 0 0 1-.339.38.474.474 0 0 1-.25.17 4.212 4.212 0 0 1-1.414.1 3.187 3.187 0 0 0-.533-.06 1.429 1.429 0 0 1-.358 0 7.078 7.078 0 0 0-1.721 0 1.07 1.07 0 0 0-1.118.81.55.55 0 0 1-.43.4 1.92 1.92 0 0 0-1.069.97c.093.14.16.05.223.01.259-.16.521-.32.777-.49a3.3 3.3 0 0 1 1.459-.55 1.2 1.2 0 0 1 .86.21.608.608 0 0 1 .1.96.842.842 0 0 1-.859.34.5.5 0 0 0-.17.01.056.056 0 0 0-.021.05.112.112 0 0 0 .021.06.447.447 0 0 0 .436.13.291.291 0 0 1 .32.37 2.935 2.935 0 0 0 .023.79.786.786 0 0 0 .709.77h-.009a.54.54 0 0 0 .388.44 1.1 1.1 0 0 0 .871.06.158.158 0 0 1 .172.02c.151.06.222-.02.278-.16a4.412 4.412 0 0 1 .557-1.1.11.11 0 0 1 .158-.05.374.374 0 0 1 .077.09.15.15 0 0 1 .017.07.746.746 0 0 0 .326.72.239.239 0 0 1 0 .35.955.955 0 0 1-.513.33.421.421 0 0 0-.218.09 3.11 3.11 0 0 1-1.307.87 1.427 1.427 0 0 1-.277.13 1.972 1.972 0 0 0-1.11.83 1.138 1.138 0 0 1-.267.27c-.349.27-.63.17-.777-.28a.819.819 0 0 1 .244-.94c.191-.17.386-.32.576-.48a.206.206 0 0 0 .071-.23.124.124 0 0 0-.2-.08 3.215 3.215 0 0 1-1.067.42.206.206 0 0 0-.2.21.367.367 0 0 1-.292.36 5.082 5.082 0 0 0-1.017.55c-.263.19-.593.27-.855.46a1.432 1.432 0 0 0-.532 1.83.292.292 0 0 0 .33.22c.116-.01.13.1.078.18a.3.3 0 0 0-.086.39c.025.06-.069.09-.126.09a1.6 1.6 0 0 1-.461-.16.606.606 0 0 0-.82.35.45.45 0 0 1-.325.26c-.348.1-.7.18-1.079.28a1.872 1.872 0 0 1-.4 1.38.267.267 0 0 1-.358.15c-.092-.05-.188.01-.13.12a1.235 1.235 0 0 1-.066 1.08c-.08.21-.179.4-.272.59-.035.06-.1.11-.153.06a.213.213 0 0 1-.071-.17c.007-.17.044-.35.052-.52a.2.2 0 0 0-.139-.2.14.14 0 0 0-.154.16 2.446 2.446 0 0 0 .2 1.15 6 6 0 0 1 .372 1.27.382.382 0 0 1-.237.47.606.606 0 0 0 .035-.19c-.025-.08-.089-.05-.142-.02l-.158.09a.1.1 0 0 0-.07.14.117.117 0 0 0 .1.02c.08-.01.154-.03.237-.04a1.4 1.4 0 0 1-.737.55 1.022 1.022 0 0 0-.6.41 1.078 1.078 0 0 1-.5.34 1.02 1.02 0 0 0-.54.51 1.345 1.345 0 0 1-.716.68 1.239 1.239 0 0 0-.586.54 2.221 2.221 0 0 0-.371 1.94c.041.13.06.26.11.38a18.315 18.315 0 0 1 .651 1.93 3.388 3.388 0 0 1-.014 2.04.214.214 0 0 1-.333.15.613.613 0 0 1-.256-.16 6.728 6.728 0 0 1-1.168-2.15 2.747 2.747 0 0 1-.1-.86.8.8 0 0 0-.21-.6c-.13-.14-.238-.3-.352-.45a.422.422 0 0 0-.581-.19 1.722 1.722 0 0 1-.223.1.559.559 0 0 1-.624-.1 2.123 2.123 0 0 0-.294-.23.98.98 0 0 0-1.02-.17 1.207 1.207 0 0 1-.652.03 3.811 3.811 0 0 0-.475-.03.266.266 0 0 0-.264.23.661.661 0 0 0 .04.73.154.154 0 0 1 0 .13.1.1 0 0 1-.156.04.648.648 0 0 0-.575-.06.9.9 0 0 1-.9-.24.5.5 0 0 0-.551-.15 1.1 1.1 0 0 1-.646-.06 1.335 1.335 0 0 0-.715.01 1.025 1.025 0 0 0-.649.55.853.853 0 0 1-.751.58.244.244 0 0 0-.207.11 3.622 3.622 0 0 1-.49.66 1.255 1.255 0 0 0-.195 1.02 2.4 2.4 0 0 0 .117.38.8.8 0 0 1-.14.86 1.035 1.035 0 0 0-.248.92 4.5 4.5 0 0 1 .048 1.46.34.34 0 0 0 .011.2 6.609 6.609 0 0 0 .74 1.73 1.6 1.6 0 0 1 .258.52 1.1 1.1 0 0 0 .676.71 3.722 3.722 0 0 0 .638.34 5.875 5.875 0 0 0 .7-.17 2.256 2.256 0 0 1 1.179-.1.2.2 0 0 0 .214-.1 2.929 2.929 0 0 0 .682-1.38c.111-.78.2-.85.92-.97a3.423 3.423 0 0 1 1.187-.14 2.043 2.043 0 0 1 .351.06.357.357 0 0 1 .194.15 1.168 1.168 0 0 1 .044.71.243.243 0 0 1-.172.25.414.414 0 0 0-.248.41c-.024.2-.022.4-.062.6a1.912 1.912 0 0 1-.359.97.806.806 0 0 0-.177.56 1.541 1.541 0 0 1-.247.94.187.187 0 0 0 .124.3.577.577 0 0 0 .177.03c.5-.07 1-.01 1.494-.08a2.188 2.188 0 0 1 1.723.34.839.839 0 0 1 .358.96c-.171.67-.171 1.37-.293 2.05a1.645 1.645 0 0 0 .41 1.4 9.871 9.871 0 0 0 .676.76.878.878 0 0 0 .888.24 2.13 2.13 0 0 0 .827-.38.531.531 0 0 1 .51-.1 1.577 1.577 0 0 1 1.062.55 2.176 2.176 0 0 1 .206.32.588.588 0 0 1-.235.89.269.269 0 0 1-.4-.13 1.069 1.069 0 0 1-.088-.39.746.746 0 0 0-.612-.62.26.26 0 0 0-.217.08 3.634 3.634 0 0 1-.352.36.344.344 0 0 0-.123.45.318.318 0 0 1-.142.4.278.278 0 0 1-.387-.02c-.173-.15-.36-.28-.52-.44a.891.891 0 0 0-.761-.32.8.8 0 0 1-.451-.13.491.491 0 0 1-.3-.32.774.774 0 0 0-.438-.51 1.173 1.173 0 0 0-.581-.28.541.541 0 0 1-.568-.67.937.937 0 0 0-.338-.8 6.43 6.43 0 0 1-.927-1.22.246.246 0 0 0-.235-.17 2.18 2.18 0 0 1-1.385-.3 2.523 2.523 0 0 0-.749-.22 1.354 1.354 0 0 1-.86-.43c-.317-.3-.637-.6-.94-.93a2.082 2.082 0 0 0-.76-.52.616.616 0 0 0-.574.05c-.087.07-.175.11-.262.17a.951.951 0 0 1-.975.08 2.451 2.451 0 0 0-.463-.14 1.711 1.711 0 0 1-.454-.16 7.5 7.5 0 0 0-1.71-.77 2.168 2.168 0 0 1-.574-.36 1.884 1.884 0 0 0-.748-.4 2.078 2.078 0 0 1-1.041-.62 1.9 1.9 0 0 0-.554-.4 1.277 1.277 0 0 1-.44-.34.886.886 0 0 1-.206-.97 1.288 1.288 0 0 0-.041-1.02 4 4 0 0 0-.562-1.01 6.47 6.47 0 0 0-.988-1.16.367.367 0 0 1-.121-.15 1.406 1.406 0 0 0-.8-.84.539.539 0 0 1-.342-.67.344.344 0 0 0-.128-.35c-.153-.15-.311-.29-.458-.43a.67.67 0 0 1-.214-.24 4.718 4.718 0 0 0-1.089-1.29.568.568 0 0 0-.265-.14.214.214 0 0 1-.126-.2 6.173 6.173 0 0 0-.52-1.77.874.874 0 0 0-.552-.48 2 2 0 0 0-.347-.11.181.181 0 0 0-.206.24 7.058 7.058 0 0 0 .19.98.853.853 0 0 0 .693.72.355.355 0 0 1 .28.31c.065.23.144.46.223.69a4.915 4.915 0 0 0 .84 1.45 1.1 1.1 0 0 1 .2.32c.171.46.342.91.475 1.37a.868.868 0 0 0 .418.62 1.124 1.124 0 0 1 .458.51.465.465 0 0 1-.058.55.2.2 0 0 1-.353 0 4.3 4.3 0 0 0-1.263-1.31.582.582 0 0 1-.265-.55 1.338 1.338 0 0 0-.846-1.38 5.238 5.238 0 0 1-1.024-.8.147.147 0 0 1 .032-.26c.541-.3.558-.41.165-.9a3.317 3.317 0 0 0-.7-.72.81.81 0 0 1-.278-.42 18.438 18.438 0 0 0-.828-2.01 2.919 2.919 0 0 1-.214-.55 1.368 1.368 0 0 0-.647-.91 5.214 5.214 0 0 0-1.4-.76.531.531 0 0 1-.418-.42 2.307 2.307 0 0 0-.481-.83 1.832 1.832 0 0 1-.475-.98.768.768 0 0 0-.126-.3 1.322 1.322 0 0 1-.165-.28 4.084 4.084 0 0 0-.713-1.31 1.668 1.668 0 0 1-.309-.78 2.07 2.07 0 0 0-.3-.93.719.719 0 0 1-.071-.64 2.385 2.385 0 0 0-.016-1.38c-.057-.21-.08-.43-.126-.65a1.388 1.388 0 0 1 .032-.66 13.294 13.294 0 0 0 .275-3.65 5.63 5.63 0 0 0-.376-1.69.774.774 0 0 1 .05-.82c-.3-.2-.555-.47-.872-.66a3.344 3.344 0 0 1-1.12-1.08.683.683 0 0 0-.325-.29.272.272 0 0 1-.188-.23.363.363 0 0 0-.3-.49.128.128 0 0 1-.027-.11.23.23 0 0 1 .1-.15.486.486 0 0 1 .405.05c.187.07.367.17.557.23a.152.152 0 0 0 .179-.13.123.123 0 0 0-.049-.17.877.877 0 0 0-.231-.02.482.482 0 0 1-.551-.54c-.021-.17-.058-.22-.214-.21a.183.183 0 0 1-.145-.19 1.827 1.827 0 0 0-.446-1 1.061 1.061 0 0 1-.239-.97c.046-.22-.024-.28-.228-.19a.522.522 0 0 1-.665-.3.141.141 0 0 1 .029-.22c.178-.11.107-.2 0-.3-.13-.11-.227-.21 0-.33a.121.121 0 0 0 .05-.17.674.674 0 0 1-.037-.78.117.117 0 0 0-.164-.08c-.251.04-.251.04-.328-.21a.238.238 0 0 1-.007-.07.136.136 0 0 0-.117-.13c-.077.01-.07.09-.077.15a.146.146 0 0 1-.049.11.094.094 0 0 1-.091-.05c-.077-.23-.147-.46-.212-.69-.023-.09-.011-.2-.131-.14a.194.194 0 0 0-.086.23 1.925 1.925 0 0 1 .042.73.17.17 0 0 1-.058.11.119.119 0 0 1-.161-.04c-.051-.07-.1-.14-.146-.21-.064-.1-.105-.29-.251-.2-.1.06.006.2.006.3a.184.184 0 0 1-.041.12.116.116 0 0 1-.146-.08.559.559 0 0 1-.125-.37c.026-.22-.091-.22-.24-.26a.193.193 0 0 1-.084-.28c.048-.09.133-.15.187-.24a.236.236 0 0 0 .014-.26.963.963 0 0 1-.183-.81c-.151 0-.1.15-.157.22a.137.137 0 0 1-.242-.05c-.031-.1-.046-.21-.076-.32a.463.463 0 0 1 .253-.67c.049-.26.252-.16.417-.21-.029-.12-.049-.25-.083-.38a.243.243 0 0 0-.1-.15c-.061-.04-.111.02-.142.08a.942.942 0 0 1-.582.54 4.443 4.443 0 0 0-.054-.92 1.2 1.2 0 0 1 .028-.83.3.3 0 0 0-.008-.19.339.339 0 0 0-.183-.15c-.1-.01-.119.1-.111.18a7.423 7.423 0 0 1 .087.85 1.722 1.722 0 0 0 .248 1.06c-.008.31-.013.62-.028.93a.129.129 0 0 1-.081.08.1.1 0 0 1-.1-.05 6.616 6.616 0 0 1-.258-.67c-.046-.16-.079-.3-.266-.29a.2.2 0 0 1-.108-.14 2.785 2.785 0 0 0-.325-.86 1.749 1.749 0 0 1-.078-.18.452.452 0 0 1 .285-.67 1.213 1.213 0 0 1 .257-.05c-.1-.1-.176-.17-.245-.24-.051-.05-.095-.06-.142.01a.59.59 0 0 1-.069.11.353.353 0 0 1-.537.08 2.143 2.143 0 0 1-.833-.84.777.777 0 0 0-.548-.53 1.64 1.64 0 0 1-.521-.32.33.33 0 0 1-.135-.34c.01-.22-.023-.25-.188-.22a1.577 1.577 0 0 1-1.1-.21 1.738 1.738 0 0 0-1.218-.22 1.115 1.115 0 0 1-.961-.22 1.009 1.009 0 0 0-.639-.33.469.469 0 0 1-.248-.17.929.929 0 0 0-.452-.31.433.433 0 0 1-.288-.23.5.5 0 0 0-.621-.26.611.611 0 0 1-.354.02.125.125 0 0 0-.2.07c-.045.13.057.14.127.16a.177.177 0 0 1 .141.28c-.037.08-.075.18.019.23a.269.269 0 0 0 .171-.02.124.124 0 0 1 .141.15c-.018.22-.009.34.2.15a.1.1 0 0 1 .105.01.163.163 0 0 1 .012.12c-.043.11-.1.19-.147.29-.187.41-.394.55-.716.13a.287.287 0 0 0-.137-.1 2.587 2.587 0 0 0-.854.4 3.106 3.106 0 0 1-1 .81.993.993 0 0 1-.455.14.173.173 0 0 1-.2-.11.212.212 0 0 1 .024-.24.526.526 0 0 1 .141-.13c.116-.09.186-.17.006-.27a.3.3 0 0 1-.107-.35 4.091 4.091 0 0 1 .135-.44 2.576 2.576 0 0 0 .152-.58.83.83 0 0 1 .84-.83.1.1 0 0 0 .112-.11.193.193 0 0 0-.049-.12.318.318 0 0 0-.437-.07 2.164 2.164 0 0 0-.845.83 12.237 12.237 0 0 0-.607 1.15 1.216 1.216 0 0 1-.38.5 3 3 0 0 0-.342.37c-.3.37-.3.38.063.69a.328.328 0 0 1 .049.55c-.041.05-.1.08-.136.13a1.647 1.647 0 0 1-.632.84 9.384 9.384 0 0 0-.774.61.9.9 0 0 0-.437.54.938.938 0 0 1-.427.53 6.632 6.632 0 0 1-.84.64.3.3 0 0 0-.191.3.478.478 0 0 1-.264.42 2.311 2.311 0 0 0-.613.4.174.174 0 0 1-.226.02.349.349 0 0 0-.381.11c-.086.09-.115.19.007.27a.127.127 0 0 1 .083.15.211.211 0 0 1-.182.15.244.244 0 0 1-.271-.1.476.476 0 0 0-.492-.16c-.144.01-.193.1-.118.29.064.15.118.26-.1.22-.084-.01-.165-.03-.2.07s-.1.18-.217.06a.286.286 0 0 0-.47.07.914.914 0 0 1-.7.44 1.369 1.369 0 0 0-.368.22.163.163 0 0 1-.217-.06.236.236 0 0 1-.048-.24.806.806 0 0 1 .446-.51c.187-.07.38-.14.565-.23a1.542 1.542 0 0 0 .662-.55 1.184 1.184 0 0 1 1.221-.66.241.241 0 0 0 .253-.14 2.234 2.234 0 0 1 1.055-1.05 1.3 1.3 0 0 0 .393-.39 3.491 3.491 0 0 0 .783-1.91 4.777 4.777 0 0 1 .15-.64.331.331 0 0 0-.322.1.36.36 0 0 1-.346.03c-.288-.18-.381-.01-.452.27a.135.135 0 0 1-.246.02 1.236 1.236 0 0 1-.135-.22.584.584 0 0 0-.42-.32c-.292-.1-.534-.21-.654.23a.145.145 0 0 1-.2.1c-.175-.1-.358.03-.568-.06a1.33 1.33 0 0 0-.056-.81.372.372 0 0 1 .01-.26 1.118 1.118 0 0 0-.107-.9c-.109-.24-.188-.25-.334-.06-.026.04-.047.08-.072.12a.6.6 0 0 1-1.086-.04 1.84 1.84 0 0 1-.265-.44 1.981 1.981 0 0 0-.42-.72.219.219 0 0 1 0-.34c.114-.12.1-.18-.038-.29-.165-.15-.265-.39-.422-.55a.764.764 0 0 1-.136-1.05 2.032 2.032 0 0 0 .147-.44 1.375 1.375 0 0 1 .263-.53 1.179 1.179 0 0 0 .358-.67.316.316 0 0 1 .4-.29 1.4 1.4 0 0 0 1.312-.6.391.391 0 0 1 .409-.21.748.748 0 0 0 .3-.02.664.664 0 0 0 .491-.84 1.838 1.838 0 0 0-.25-.74.219.219 0 0 1 .046-.34.78.78 0 0 0 .179-.17.236.236 0 0 0 .025-.25.168.168 0 0 0-.2-.1 1.32 1.32 0 0 0-.9.61c-.149.23-.166.23-.39.12a1.638 1.638 0 0 0-1.168-.14 2.117 2.117 0 0 1-1.057-.12.544.544 0 0 1-.369-.41c-.037-.13-.066-.26-.112-.38a1.314 1.314 0 0 0-.7-.93.991.991 0 0 1-.276-.26.209.209 0 0 1 .019-.29 12.156 12.156 0 0 0 1.085-.83.316.316 0 0 1 .217-.09.488.488 0 0 0 .335-.24 1.676 1.676 0 0 1 1.13-.67.24.24 0 0 1 .29.25 1.527 1.527 0 0 1 .013.27.459.459 0 0 0 .529.55 1.423 1.423 0 0 1 .358.01.6.6 0 0 0 .8-.45.442.442 0 0 1-.427-.42 8.728 8.728 0 0 1-.445-.86.2.2 0 0 0-.2-.11.757.757 0 0 1-.663-.66 1.5 1.5 0 0 0-.535-.86c-.486-.43-.979-.84-1.467-1.26-.183-.16-.213-.24-.048-.43a1.331 1.331 0 0 0 .283-.65c.049-.25.085-.28.329-.29a6.628 6.628 0 0 0 .887-.14 1.177 1.177 0 0 0 .815-.72 2.815 2.815 0 0 0 .236-.69 2.169 2.169 0 0 1 .411-.95 2.876 2.876 0 0 0 .234-.39.382.382 0 0 1 .41-.3.565.565 0 0 0 .478-.24c.262-.28.512-.56.768-.85a4.053 4.053 0 0 1 .305-.31.282.282 0 0 1 .336-.05.826.826 0 0 0 1.113-.34c.149-.17.267-.39.4-.58a.331.331 0 0 1 .526-.13.69.69 0 0 1 .539.69c-.094.08-.189.15-.273.23a.125.125 0 0 0 0 .11.1.1 0 0 0 .1.04c.17-.02.17-.03.17-.39.046-.03.1-.07.148-.1.294-.18.37-.16.551.11a1.209 1.209 0 0 0 .126.22.308.308 0 0 0 .209.1.855.855 0 0 0 .352-.07 1.412 1.412 0 0 1 .928.1.275.275 0 0 1 .187.24.907.907 0 0 0 .552.65.282.282 0 0 0 .23.05 5.979 5.979 0 0 1 .945-.03 1.165 1.165 0 0 1 .754.15c.222.11.439.21.656.33a1.7 1.7 0 0 0 .971.27 1.017 1.017 0 0 1 .624.19 1.038 1.038 0 0 0 1.034.09 2.025 2.025 0 0 1 .235-.06 1.043 1.043 0 0 1 1.15.32 1.963 1.963 0 0 0 1.4.66 1.482 1.482 0 0 1 .584.13.814.814 0 0 1 .433.33 5.134 5.134 0 0 0 .811.89.991.991 0 0 0 .753.35 1.5 1.5 0 0 1 .686.19.139.139 0 0 0 .215-.04.265.265 0 0 0-.028-.25 1.014 1.014 0 0 1-.212-.4c-.01-.08.077-.19.142-.16.123.06.24.14.358.21a.454.454 0 0 0 0-.39.252.252 0 0 1 .114-.28.639.639 0 0 0 .415-.6.93.93 0 0 1 .51.44c.152.24.3.26.458.04.066-.09.105-.19.159-.28a.439.439 0 0 1 .275-.25 2.072 2.072 0 0 0 .969-.63 1.9 1.9 0 0 1 .911-.45c.11-.01.216-.13.323.01a.356.356 0 0 1-.065.47 3.546 3.546 0 0 1-.317.31 1.929 1.929 0 0 0-.212.24 1.228 1.228 0 0 1-.778.43.255.255 0 0 0-.1.06.082.082 0 0 0 0 .12.638.638 0 0 0 .732-.26 2.456 2.456 0 0 0 .169-.36zm34.977 38.05a2.4 2.4 0 0 0-1.018-.33.178.178 0 0 0-.194.13.428.428 0 0 1-.611.24 1.02 1.02 0 0 0-.913.14 1.518 1.518 0 0 1-.5.19c-.213.03-.282.17-.242.45a.766.766 0 0 1-.03.45 6.609 6.609 0 0 0-.409 1.8 3.843 3.843 0 0 0 .012 1.01.578.578 0 0 0 .327.58.491.491 0 0 0 .487-.41 1.545 1.545 0 0 0 .094-1.29.891.891 0 0 1-.052-.52c.07-.33.13-.66.2-.99a.486.486 0 0 1 .281-.4.893.893 0 0 0 .536-.5.4.4 0 0 1 .557-.21 1.6 1.6 0 0 1 .57.36.564.564 0 0 1 .169.35 1.476 1.476 0 0 1-.195 1.2.093.093 0 0 0 .014.16c.048-.03.094-.07.149-.1a.332.332 0 0 1 .563.2c.051.13.075.26.112.39a.187.187 0 0 0 .144.18.2.2 0 0 0 .237-.15 1.5 1.5 0 0 0 .08-.39 1.6 1.6 0 0 1 .124-.65 1.09 1.09 0 0 0 .077-.95.124.124 0 0 1 .053-.11.137.137 0 0 1 .108.01.726.726 0 0 1 .126.14 1.513 1.513 0 0 0 .488.49.227.227 0 0 0 .346-.22.715.715 0 0 0-.035-.32 2.586 2.586 0 0 0-.557-.77c-.194-.2-.382-.13-.583.16a.354.354 0 0 1-.163.16.871.871 0 0 1-.767-.28.1.1 0 0 1 .067-.15c.12-.03.233-.03.354-.05zm-6.853-.86c.163-.09.25-.13.334-.18a.268.268 0 0 1 .421.07.313.313 0 0 0 .435.08 3.6 3.6 0 0 0 .94-.57 2.749 2.749 0 0 1 .343-.27c.14-.09.3-.08.326.01a.308.308 0 0 1-.094.29.272.272 0 0 1-.034.06.162.162 0 0 0 .072.26 1.062 1.062 0 0 1 .265.15.712.712 0 0 0 .931.16 1.008 1.008 0 0 1 1.034-.01c.094.07.2-.04.181-.16-.071-.34-.152-.69-.218-1.04a.311.311 0 0 0-.32-.32.506.506 0 0 1-.542-.42 4.3 4.3 0 0 0-.2-.41.189.189 0 0 0-.307-.02.783.783 0 0 1-.145.2c-.122.04-.151-.11-.212-.2a1.334 1.334 0 0 0-.146-.21c-.116-.12-.294-.18-.392.05a.8.8 0 0 1-.539.48.893.893 0 0 0-.244.19 6.129 6.129 0 0 1-.7.61 9.247 9.247 0 0 0-.88.7.664.664 0 0 0-.303.5zm6.81 5.83a.966.966 0 0 0 .481-.1c.465-.25.928-.51 1.392-.77a1.941 1.941 0 0 0 .294-.22.225.225 0 0 0 .1-.28.179.179 0 0 0-.218-.05.665.665 0 0 0-.282.09.982.982 0 0 1-.737.19.358.358 0 0 0-.278.08 2.323 2.323 0 0 1-1.14.66c-.064 0-.076.17-.028.23a.543.543 0 0 0 .422.17zm3.518-2.64a1.69 1.69 0 0 0-1.228.38.242.242 0 0 0-.092.23.134.134 0 0 0 .193.1 2.073 2.073 0 0 1 1.278-.09.78.78 0 0 0 .718-.25.4.4 0 0 0 .04-.48.187.187 0 0 0-.305-.05.5.5 0 0 1-.598.16zM33.336 85.3a.247.247 0 0 0-.022-.25 6.8 6.8 0 0 0-.746-.91.108.108 0 0 0-.11 0 .138.138 0 0 0-.067.1.689.689 0 0 0 .042.32 1.286 1.286 0 0 0 .909.74zm18.38-30.51a.218.218 0 0 0-.164.24.273.273 0 0 0 .243.25.188.188 0 0 0 .192-.2.285.285 0 0 0-.265-.29zm28.069 23.94a.571.571 0 0 0-.707.52 2.347 2.347 0 0 0 .713-.52zM5.743 57.58a.448.448 0 0 0-.115.01.069.069 0 0 0-.046.04.235.235 0 0 0 .013.12.324.324 0 0 0 .358.18.174.174 0 0 0 .148-.18.13.13 0 0 0-.118-.12c-.077-.01-.155-.04-.234-.05zm19.17-4.68a.625.625 0 0 0-.265-.47.079.079 0 0 0-.042.03.706.706 0 0 0 .216.44.237.237 0 0 0 .097 0zm20.554.54a.271.271 0 0 0-.048-.13.1.1 0 0 0-.106.02.356.356 0 0 0-.092.16.1.1 0 0 0 .164.1.677.677 0 0 0 .088-.15zM33.251 85.93a.134.134 0 0 0-.107-.12.112.112 0 0 0-.147.05.122.122 0 0 0 .117.17.128.128 0 0 0 .143-.1zm36.515 8.31c.048-.02.106-.03.158-.05a.247.247 0 0 0 .036-.11.043.043 0 0 0-.044-.03.5.5 0 0 0-.172.03c-.047.02-.12.04-.094.12a.388.388 0 0 0 .122.04zM31.744 83.48c.072.02.1 0 .108-.05a.051.051 0 0 0-.028-.05.511.511 0 0 0-.148-.09.106.106 0 0 0-.143.05.122.122 0 0 0 .073.08.775.775 0 0 0 .144.06zm35.478 13a.157.157 0 0 0-.05.17c.007.07.034.13.11.09a.158.158 0 0 0 .036-.12.131.131 0 0 0-.09-.14zm-62.35-39.5a.106.106 0 0 0 .1-.12.145.145 0 0 0-.067-.08.085.085 0 0 0-.1.11.243.243 0 0 0 .073.09zM83.918 7.65a3.829 3.829 0 0 0 .205-.63.674.674 0 0 0-.064-.72 1.274 1.274 0 0 1-.07-1.1.233.233 0 0 1 .392-.11 1.072 1.072 0 0 1 .2.25c.234.36.46.72.692 1.09.022.04.042.07.061.11.162.34.139.4-.194.59a.115.115 0 0 0-.089.14.154.154 0 0 0 .076.09 2.019 2.019 0 0 0 .21.13.144.144 0 0 0 .214-.05c.11-.28.268-.19.443-.1a.958.958 0 0 0 .442.19.2.2 0 0 0 .154-.09.228.228 0 0 0 .017-.18 2.106 2.106 0 0 0-.241-.38 5.177 5.177 0 0 1-.786-2.7.3.3 0 0 1 .268-.37 1.1 1.1 0 0 1 1.353.56 5.874 5.874 0 0 0 .838 1.13 2.869 2.869 0 0 0 .706.62 1.326 1.326 0 0 1 .6.8 3.776 3.776 0 0 0 .6 1.15.262.262 0 0 0 .321.11.316.316 0 0 0 .143-.44 4.142 4.142 0 0 1-.552-1.33 2.093 2.093 0 0 0-.547-.86c-.057-.05-.112-.13-.172-.18a2.2 2.2 0 0 1-.768-1.31 3.281 3.281 0 0 0-.266-.67.3.3 0 0 1 .181-.46 1.036 1.036 0 0 1 1.272.25 4.774 4.774 0 0 1 .917 1.4 1.9 1.9 0 0 0 .087.25c.042.09.106.15.194.1a.234.234 0 0 0 .083-.23.826.826 0 0 0-.171-.42 17.3 17.3 0 0 0-1.063-1.61.717.717 0 0 1-.087-.17.235.235 0 0 1 .135-.32 1.408 1.408 0 0 1 .293-.04h1.617a1.7 1.7 0 0 1 1.43.69 2.088 2.088 0 0 1 .635 1.42 2.925 2.925 0 0 0 .064-1.3.716.716 0 0 0-.311-.39c-.278-.19-.55-.37-.813-.57a1.438 1.438 0 0 0-.913-.25c-.641.01-1.281.01-1.918.02a2.961 2.961 0 0 1-.419-.02.872.872 0 0 1-.653-.7.976.976 0 0 1 .388-.85.368.368 0 0 1 .4.05c.156.14.3.29.456.43a3.6 3.6 0 0 0 .185.33.284.284 0 0 0 .146.1.117.117 0 0 0 .1-.01.148.148 0 0 0-.007-.11.728.728 0 0 0-.423-.3.889.889 0 0 1-.034-.2c-.013-.23.032-.31.19-.33a1.474 1.474 0 0 1 .3-.03c.657 0 1.318.01 1.978 0a.707.707 0 0 1 .707.39.678.678 0 0 0 .644.41.714.714 0 0 1 .733.64.3.3 0 0 0 .161.26.542.542 0 0 0-.055-.43 2.748 2.748 0 0 1-.041-.93.347.347 0 0 1 .276-.31 2.975 2.975 0 0 1 .418-.02h3.536c.46.03.5.12.233.64a2 2 0 0 0 1.129-.42.834.834 0 0 1 .613-.22 6.692 6.692 0 0 1 1.729.11 1.119 1.119 0 0 0 .651-.04 4.122 4.122 0 0 1 1.311-.05.372.372 0 0 1 .382.47 2.93 2.93 0 0 1-.072.46 1.19 1.19 0 0 0-.106.45c.123.1.173-.04.244-.1a.572.572 0 0 1 .818.06 3.68 3.68 0 0 1 .324.39.461.461 0 0 0 .29.21 1.762 1.762 0 0 1 .972 1.01.628.628 0 0 1-.016.52 7.806 7.806 0 0 1-.668 1.26.8.8 0 0 1-.5.34 2.629 2.629 0 0 0-1.172.64 1.433 1.433 0 0 1-1.144.26c-.233-.02-.47-.11-.7-.15a2.1 2.1 0 0 0-1.352.11 1.926 1.926 0 0 0-.81.51 1.959 1.959 0 0 1-.88.55 3.253 3.253 0 0 0-.925.6.775.775 0 0 0-.279.76.248.248 0 0 0 .082.16.1.1 0 0 0 .158-.05 2.627 2.627 0 0 1 1.352-1.05 8.053 8.053 0 0 0 1.208-.57.52.52 0 0 1 .222-.1 6.192 6.192 0 0 1 1.664-.11c.214.05.434.05.651.09a.384.384 0 0 1 .374.43 1.8 1.8 0 0 1-.52 1.49 6.489 6.489 0 0 1-1.037.9.364.364 0 0 0-.168.27.259.259 0 0 0 .06.24.156.156 0 0 0 .217.03 1.422 1.422 0 0 0 .193-.15c.4-.37.783-.77 1.2-1.11a2.224 2.224 0 0 0 .75-1.47c.015-.09.008-.18.022-.27a.654.654 0 0 1 .522-.64 3.969 3.969 0 0 1 .585-.12.32.32 0 0 1 .372.26 2.414 2.414 0 0 1 .123.65 8.868 8.868 0 0 1-.7 4.23 12.553 12.553 0 0 0-.531 1.42 5.518 5.518 0 0 1-.455 1.01 1.14 1.14 0 0 0-.077.25.158.158 0 0 0 .036.12.092.092 0 0 0 .1-.01 2.1 2.1 0 0 0 .4-.74 10.292 10.292 0 0 1 1.289-2.55 1.625 1.625 0 0 0 .283-.65 3.57 3.57 0 0 1 .365-.92 1.2 1.2 0 0 1 .739-.67 2.7 2.7 0 0 0-.1.96.194.194 0 0 0 .164-.1c.309-.37.535-.4.868-.1a2.556 2.556 0 0 1 .2.24.167.167 0 0 0 .255-.06 1.061 1.061 0 0 0 .132-.44c.049-.35.1-.7.13-1.06a.71.71 0 0 1 .513-.72 3.374 3.374 0 0 1 .99-.21 2.2 2.2 0 0 1 1.251.36 3.7 3.7 0 0 1 1.151 1.14.59.59 0 0 1 .069.62 1.8 1.8 0 0 1-.321.56 3.257 3.257 0 0 0-.691 1.16.806.806 0 0 1-.7.62c-.259.01-.323.2-.216.48.244.63.25.64-.308.89a.921.921 0 0 0-.461.4.538.538 0 0 1-.733.26c-.056-.03-.115-.04-.174-.07a.44.44 0 0 0-.691.26.918.918 0 0 1-.516.43c-.747-.44-.747-.44-1.322.02a.074.074 0 0 0-.043.04.376.376 0 0 0-.012.11.049.049 0 0 0 .05.02 2.354 2.354 0 0 1 1.331-.2.433.433 0 0 0 .649.1.918.918 0 0 1 1.213.17.321.321 0 0 1 .11.35 3.3 3.3 0 0 1-.438.96.713.713 0 0 1-.576.3 2.636 2.636 0 0 1-1.241-.14c-.345-.14-.444-.06-.591.32a5.154 5.154 0 0 0-.259 1.44.193.193 0 0 0 .071.16c.066.04.1-.03.122-.09.1-.22.2-.44.289-.66a1.023 1.023 0 0 1 .739-.62c.142-.02.276-.08.411-.09a.481.481 0 0 1 .529.56 3.149 3.149 0 0 1-.371 1.2.531.531 0 0 1-.516.26c-.486.01-.557.07-.611.57-.024.2-.04.4-.046.6a.9.9 0 0 0 .223.67.28.28 0 0 1 0 .46 1.747 1.747 0 0 0-.441 1.19.442.442 0 0 1-.3.45c-.093.04-.187.07-.28.11a.405.405 0 0 0-.223.37c.042.83-.276 1.62-.268 2.45a1.346 1.346 0 0 1-.109.45 3.623 3.623 0 0 0-.146.92.118.118 0 0 0 .052.1.113.113 0 0 0 .1-.03 5.722 5.722 0 0 0 .234-.54.607.607 0 0 1 .493-.42.692.692 0 0 1 .588.23.514.514 0 0 1 .339.48 3.13 3.13 0 0 0 .118.51.251.251 0 0 1-.076.24.165.165 0 0 1-.218 0 .745.745 0 0 0-.593-.28.143.143 0 0 0-.125.22 3.021 3.021 0 0 0 .25.73 2.454 2.454 0 0 1 .582.47c.062.09.134 0 .2-.05a.333.333 0 0 1 .568.26 4.856 4.856 0 0 1 0 1.33.279.279 0 0 1-.391.28 2.27 2.27 0 0 1-.506-.21 2.235 2.235 0 0 0-.815-.27c-.171.18-.194.47-.381.65a.268.268 0 0 0-.013.36.165.165 0 0 1-.04.23.167.167 0 0 1-.218-.04c-.13-.14-.248-.29-.375-.43a.159.159 0 0 0-.264-.03.29.29 0 0 0-.066.35.219.219 0 0 0 .074.1 1.508 1.508 0 0 1 .53.94.23.23 0 0 0 .3.23 1.885 1.885 0 0 1 .7.12.368.368 0 0 1 .317.35.33.33 0 0 1-.187.37c-.071.05-.132.1-.194.14a.3.3 0 0 0 .029.14 1.182 1.182 0 0 1 .569 1.1c.007.19.048.39.07.59a1.274 1.274 0 0 1-.077.66.245.245 0 0 1-.161.18.188.188 0 0 1-.2-.13 1.553 1.553 0 0 0-.746-.73.69.69 0 0 0-.207-.05 1.037 1.037 0 0 0 .317.56.477.477 0 0 1 .109.3c-.007.31 0 .31.194.33a.567.567 0 0 1 .52.6.5.5 0 0 1-.387.51c-.033.01-.073.01-.112.02a.178.178 0 0 0-.033.08 1.279 1.279 0 0 0 1.081.03.112.112 0 0 1 .158.06.263.263 0 0 1 .017.18 1.956 1.956 0 0 0-.318.7.529.529 0 0 1-.445.4.333.333 0 0 0-.27.12.832.832 0 0 1-1.052.17 2.285 2.285 0 0 0-.222-.11.154.154 0 0 0-.2.08.187.187 0 0 0 .119.26 4.006 4.006 0 0 1 .884.4.426.426 0 0 1 .289.57c-.013.11-.031.22-.047.33-.065.41-.081.45-.452.46a.631.631 0 0 0-.529.26c-.306.39-.582.33-1 0a1.87 1.87 0 0 1-.588-.75c-.033-.08-.072-.15-.125-.27a2.944 2.944 0 0 1-.431.51c-.055.01-.042.18.034.23a2.77 2.77 0 0 0 .387.17 1.3 1.3 0 0 1 .887.82.573.573 0 0 0 .382.29c.292.15.3.2.286.56a.232.232 0 0 1-.276.26c-.035.01-.067.04-.119.06a1.871 1.871 0 0 0 .365.42c.084.13.078.26-.069.3s-.224.09-.124.26c.035.06.07.11.1.17a.243.243 0 0 1-.028.25.149.149 0 0 1-.217.03 9.669 9.669 0 0 1-1.191-1.1 1.285 1.285 0 0 1-.229-.61c-.018-.13-.024-.26-.042-.39a.276.276 0 0 0-.11-.23c-.089-.05-.148.03-.2.09-.089.12-.177.23-.261.34a.46.46 0 0 0 .23.31.586.586 0 0 1 .2.4 1 1 0 0 0 .359.66 7.85 7.85 0 0 0 .887.89.946.946 0 0 1 .381.49.642.642 0 0 0 .151.21c.188.21.188.21.077.48-.024.06-.052.12-.077.18.086.14.177.01.261.01a.166.166 0 0 1 .158.16c.008.09-.006.18-.006.27a6.649 6.649 0 0 0 .113 1.73.757.757 0 0 1 .018.2.208.208 0 0 1-.251.2.95.95 0 0 1-.439-.36c-.025.07-.048.12-.071.17-.11.22-.21.28-.374.23a.974.974 0 0 1-.658-.63 2.7 2.7 0 0 1-.118-.45 1.447 1.447 0 0 0-.878-1.25c-.155.04-.061.21-.1.33a1.151 1.151 0 0 0-.1.31.508.508 0 0 0 .046.25c.037.11.109.19.148.3a.573.573 0 0 1-.4.89.818.818 0 0 0-.517.18l.182.52a.434.434 0 0 0 .355-.13.791.791 0 0 1 .861-.01l.21.12a1.923 1.923 0 0 0 1.551.33.112.112 0 0 1 .135.09.317.317 0 0 1-.035.19.388.388 0 0 1-.179.16c-.286.06-.433.4-.726.45a.111.111 0 0 0-.088.07 3.035 3.035 0 0 1-.855 1.06.909.909 0 0 0-.161.19 3.428 3.428 0 0 1-2.008 1.58 7.531 7.531 0 0 0-1.015.4 1.165 1.165 0 0 1-.165.07.9.9 0 0 0-.4-.02c-.084.09-.125.23-.206.32a.413.413 0 0 1-.218.11c-.134.02-.276.02-.413.03a.521.521 0 0 1-.654-.41.186.186 0 0 0-.078-.1.159.159 0 0 0-.107-.04.135.135 0 0 0-.039.11.763.763 0 0 1-.3 1.11 1.546 1.546 0 0 0-.57 1.05 2.654 2.654 0 0 1-.581 1.3 1.844 1.844 0 0 0-.208.33.761.761 0 0 1-.557.45.3.3 0 0 0-.261.24.813.813 0 0 1-.664.48c-.159.05-.3-.02-.47.02-.271.08-.387-.1-.341-.42.013-.09.039-.17.059-.26-.135-.04-.158.06-.182.13a2.694 2.694 0 0 0-.188.63.492.492 0 0 1-.473.5 3.742 3.742 0 0 1-.478.04.278.278 0 0 0-.3.32 2.028 2.028 0 0 1-.017.33.426.426 0 0 1-.358.39 1.446 1.446 0 0 0-.3.04.2.2 0 0 0-.116.27c.055.14.129.27.185.42a.945.945 0 0 1 .125.43.353.353 0 0 1-.266.12c-.125.07-.164.17-.068.25a.649.649 0 0 1 .258.57 1.789 1.789 0 0 1-.241.95 1.551 1.551 0 0 0-.411.78.359.359 0 0 1-.251.27 1.659 1.659 0 0 0-.278.13.244.244 0 0 0-.1.28c.016.08.053.16.069.25a2.575 2.575 0 0 1-.085 1.76 3.289 3.289 0 0 0-.19.77 1.689 1.689 0 0 1-.237.74.387.387 0 0 0-.066.25.857.857 0 0 1-.384.78c-.181.16-.24.15-.329-.11-.043-.13-.082-.19-.207-.17a.6.6 0 0 1-.3.01.341.341 0 0 1-.3-.35.371.371 0 0 0-.158-.33 3.98 3.98 0 0 0-.4-.4.844.844 0 0 0-.3-.38 3.907 3.907 0 0 0-.593.06 1.962 1.962 0 0 0-.22.1c-.253.09-.289.07-.367-.26a.406.406 0 0 0-.17-.26c-.1-.08-.212-.13-.3-.21a.952.952 0 0 1-.459-.73 2.291 2.291 0 0 0-.251-.6 14.961 14.961 0 0 1-.63-1.37 2 2 0 0 0-.242-.37 3.279 3.279 0 0 1-.489-1.14.983.983 0 0 1 .344-1.21.455.455 0 0 0 .157-.2.273.273 0 0 0-.077-.3.171.171 0 0 0-.263.04c-.089.14-.158.3-.246.45a.174.174 0 0 1-.211.09.2.2 0 0 1-.159-.17c0-.03-.012-.05-.012-.07a5.132 5.132 0 0 0-.282-1.69 1.981 1.981 0 0 0-.307-.7 1.349 1.349 0 0 1-.339-.83.285.285 0 0 0-.023-.13 1.2 1.2 0 0 1 .084-1.2.232.232 0 0 0-.071-.34.776.776 0 0 1-.3-1.02 4.373 4.373 0 0 0 .147-.72 2.266 2.266 0 0 1 .419-.98.638.638 0 0 0 .087-.3.625.625 0 0 1 .681-.66h.057c.464.01.471 0 .464-.5 0-.14 0-.27.007-.4 0-.06.042-.13.051-.19a2.124 2.124 0 0 0 .282-.29 1.85 1.85 0 0 1-.121-.43 2.262 2.262 0 0 1 .194-.77c.237-.47.033-.55-.289-.63a1.115 1.115 0 0 0-.178-.02 1.283 1.283 0 0 1-1.137-.47.84.84 0 0 0-.269-.14l.006.01c-.136-.1-.269-.19-.4-.29a1.242 1.242 0 0 1-.437-.54.321.321 0 0 1 .212-.5 1.62 1.62 0 0 1 1.4.41c.154.15.3.3.465.43a.114.114 0 0 0 .193-.06 3.7 3.7 0 0 0 .158-.5.435.435 0 0 0-.117-.43.706.706 0 0 1-.443-.57.259.259 0 0 0-.143-.09 1.092 1.092 0 0 0-.534-.07.362.362 0 0 1-.287-.56.8.8 0 0 1 .274-.34c.1-.07.207-.13.324-.2a.475.475 0 0 0-.418.04 1.856 1.856 0 0 1-.223.09.175.175 0 0 1-.193-.19c.02-.11.071-.21.1-.31a.167.167 0 0 0-.052-.18.115.115 0 0 0-.161.03.849.849 0 0 0-.235.59.46.46 0 0 1-.239.43.825.825 0 0 1-1.071-.71.475.475 0 0 1 .15-.35.286.286 0 0 0 .123-.29.592.592 0 0 1 .136-.65 2.492 2.492 0 0 0 .312-1.08c.022-.13 0-.26.027-.39a.631.631 0 0 0-.416-.83.254.254 0 0 1-.164-.36 1.643 1.643 0 0 0-.188-1.2.812.812 0 0 1-.123-.62.87.87 0 0 0-.1-.51 1.344 1.344 0 0 1-.179-.76.793.793 0 0 0-.138-.35c-.035-.18-.23-.34-.03-.54a.228.228 0 0 0-.049-.25 1.115 1.115 0 0 1-.372-.8.362.362 0 0 0-.179-.24 2.252 2.252 0 0 1-.752-1.32.726.726 0 0 1-.011-.4.761.761 0 0 0-.393-.87.629.629 0 0 0-.322-.17.266.266 0 0 1-.255-.23.334.334 0 0 0-.1-.17 4.433 4.433 0 0 0-1.673-.97 1.359 1.359 0 0 1-.341-.11c-.1-.05-.173-.23-.3-.16a1.148 1.148 0 0 0-.247.28.212.212 0 0 1-.361.03c-.136-.14-.24-.08-.359.04-.161.17-.332.32-.5.47a.193.193 0 0 1-.3-.09c-.046-.15-.067-.31-.118-.45a.115.115 0 0 0-.2-.04.6.6 0 0 0-.084.1c-.165.19-.166.19-.375.06-.017-.01-.033-.03-.048-.04a.115.115 0 0 0-.162-.01.165.165 0 0 0 .01.23c.09.15.183.3.271.44a.321.321 0 0 1 .061.29 2.886 2.886 0 0 1-2.115-1.41.468.468 0 0 1 .023-.61 1.185 1.185 0 0 1 .415-.37.225.225 0 0 0 .176-.15.153.153 0 0 0-.194-.11 1.513 1.513 0 0 1-.785-.28 1.58 1.58 0 0 0-.154-.11 1 1 0 0 1-.544-.22 1.709 1.709 0 0 0-.336-.47.254.254 0 0 1-.029-.35 1.137 1.137 0 0 1 1.242-.72c.138.03.273.04.437.07a.833.833 0 0 1 .763-.71.864.864 0 0 1 .594.02.551.551 0 0 0 .722-.27.384.384 0 0 0 .057-.48.226.226 0 0 0-.233-.17.66.66 0 0 0-.445.15.663.663 0 0 1-.973.15.113.113 0 0 0-.189.06.4.4 0 0 1-.424.3.77.77 0 0 1-.639-.31 1.04 1.04 0 0 0-.344-.52.319.319 0 0 1-.027-.18c.011-.16-.061-.2-.183-.17a.361.361 0 0 1-.422-.18.845.845 0 0 0-.339-.26.482.482 0 0 1-.284-.23c-.107-.3-.388-.45-.481-.75.128-.38.016-.8.141-1.18a.66.66 0 0 1 .272-.42 3.543 3.543 0 0 1 .73-.45.305.305 0 0 0 .112-.04 3.739 3.739 0 0 1 1.169-.79.326.326 0 0 0 .2-.36.546.546 0 0 1 .361-.49c.291-.13.6-.24.9-.36a.381.381 0 0 1 .294.03c.131.04.269.08.4.11a.352.352 0 0 0 .4-.21c.212-.4.419-.81.636-1.2a1.037 1.037 0 0 0 .053-.96 1.673 1.673 0 0 1-.073-.19.422.422 0 0 1 .191-.55.136.136 0 0 0 .053-.03c.159-.13.2-.24.064-.37a.336.336 0 0 1-.048-.51.18.18 0 0 0 .025-.24.229.229 0 0 0-.165-.01c-.139.03-.271.09-.409.11a2.4 2.4 0 0 1-.535.03 1.107 1.107 0 0 1-.7-1.77 2.1 2.1 0 0 0 .3-.57.718.718 0 0 1 .165-.28c.408-.43.71-.96 1.088-1.42a.956.956 0 0 0 .133-.22 4.418 4.418 0 0 1 1.188-1.55.541.541 0 0 1 .856-.02c.11.1.2.22.317.31a.271.271 0 0 0 .445-.13 1.057 1.057 0 0 0 .078-.32 2.949 2.949 0 0 0 0-.47 8.839 8.839 0 0 0-.278-1.97 1.278 1.278 0 0 1 .851-1.59.708.708 0 0 1 .4.07.96.96 0 0 1 .7.96 1.558 1.558 0 0 0 .034.27.554.554 0 0 0 .277.41.162.162 0 0 0 .115.02.068.068 0 0 0 .026-.11 1.567 1.567 0 0 1-.294-.79 1.159 1.159 0 0 0-.457-.83c-.34-.25-.238-.46-.012-.69a3.049 3.049 0 0 1 1.078-.7A5.988 5.988 0 0 0 82.58 5c.533-.4.735-.31 1 .36a3.631 3.631 0 0 1 .265 1.23c0 .35.062.71.1 1.06a2.489 2.489 0 0 0-.217 1.09 2.55 2.55 0 0 0 .196-1.09zm19.289 38.61c-.078-.09-.153-.19-.235-.27a.1.1 0 0 0-.094.01.117.117 0 0 0 0 .11.239.239 0 0 0 .334.14.688.688 0 0 0 .675.09.975.975 0 0 0-.674-.08zm-.843 2.27a1.668 1.668 0 0 0 .769-.7.444.444 0 0 0-.114-.01c-.649.01-.649.01-.652.72-.082.12-.164.22-.24.35a.155.155 0 0 0 .047.1.121.121 0 0 0 .1-.03.708.708 0 0 0 .096-.43zm-17.319 5.89a.251.251 0 0 0 .264-.07.174.174 0 0 0 .018-.12.19.19 0 0 0-.234-.14 1.764 1.764 0 0 0-.221.09.064.064 0 0 0-.035.05.156.156 0 0 0 .037.1.646.646 0 0 0 .177.09zm17.33-4.51a.342.342 0 0 0 .437 0 .117.117 0 0 0 .037-.1.092.092 0 0 0-.094-.05zM86.328 8.62a.087.087 0 0 0-.051.05.286.286 0 0 0 .122.28.051.051 0 0 0 .053-.01.167.167 0 0 0-.016-.18.79.79 0 0 0-.102-.14zm5.2-3.29a.1.1 0 0 0-.059.04c-.035.12.059.14.126.17a.057.057 0 0 0 .086-.05.064.064 0 0 0-.018-.06 1.374 1.374 0 0 0-.13-.1zm-20.07 59.56a1.226 1.226 0 0 0-.47-.39 1.286 1.286 0 0 1-.489-.48.367.367 0 0 1 .043-.47c.177-.21.12-.36-.137-.38a1.091 1.091 0 0 1-.8-.62 3.609 3.609 0 0 1-.294-.66.583.583 0 0 0-.481-.43.206.206 0 0 0-.265.1.355.355 0 0 1-.585.2c-.207-.12-.3-.04-.452.12a.982.982 0 0 1-1.492-.1.9.9 0 0 1-.013-1.1 1.976 1.976 0 0 0 .418-.63.205.205 0 0 1 .305-.13 4.309 4.309 0 0 0 .883.18.807.807 0 0 0 .4-.06 4.721 4.721 0 0 1 1.045-.4.607.607 0 0 0-.128-.4c-.07-.11-.151-.21-.218-.32a.58.58 0 0 1 .033-.73c.177-.21.343-.43.526-.64a1.2 1.2 0 0 0 .371-.66.553.553 0 0 1 .132-.29.721.721 0 0 0 .129-.74c-.09-.36-.18-.73-.257-1.1a.8.8 0 0 0-.47-.71.561.561 0 0 1-.259-.56c-.008-.15-.057-.18-.187-.11-.107.07-.184-.02-.251-.11a2.693 2.693 0 0 1-.345-.67 1.4 1.4 0 0 0-.654.36c-.155.09-.313.28-.489.13a.625.625 0 0 1-.057-.5.255.255 0 0 1 .2-.29c.041-.01.083-.01.117-.02.318-.13.358-.31.113-.59-.113-.12-.24-.22-.365-.34l.007.01a2.168 2.168 0 0 1-.283-.51.287.287 0 0 0-.281-.27.259.259 0 0 1-.265-.29c-.017-.13-.017-.27-.047-.4a.4.4 0 0 0-.133-.2.418.418 0 0 0-.226-.1c-.162-.04-.276-.37-.447-.2a.706.706 0 0 0 .085.5.426.426 0 0 1-.155.46.732.732 0 0 0-.322.46.6.6 0 0 1-.24.29c-.258.2-.442.12-.5-.23a.246.246 0 0 1 .234-.31.147.147 0 0 0 .041-.25 1.149 1.149 0 0 0-.731-.23.134.134 0 0 0-.05.1c.018.08.058.17.085.25a.19.19 0 0 1-.014.13.124.124 0 0 1-.1.02.436.436 0 0 0-.6-.08.5.5 0 0 1-.459-.1.636.636 0 0 0-.675-.08.593.593 0 0 1-.411-.04 2.741 2.741 0 0 0-1.061-.15.762.762 0 0 1-.294-.06.409.409 0 0 0-.4.01.477.477 0 0 1-.352.04.221.221 0 0 1-.187-.21.2.2 0 0 1 .174-.16 1.085 1.085 0 0 0 .178-.03.138.138 0 0 0 .106-.14.127.127 0 0 0-.106-.14 3.639 3.639 0 0 0-.658-.03.569.569 0 0 1-.481-.2 3.08 3.08 0 0 1-.722-1.06.8.8 0 0 1-.083-.38c.006-.17.077-.25.223-.22.176.05.345.11.516.16a1.485 1.485 0 0 0 .347.1.264.264 0 0 0 .212-.1.23.23 0 0 0-.064-.29.789.789 0 0 0-.63-.34 1.917 1.917 0 0 1-.7-.13.49.49 0 0 1-.34-.5 8.83 8.83 0 0 1 .01-1.65c.062-.26-.034-.54.036-.8.171-.64.316-1.3.518-1.92a4.809 4.809 0 0 1 .513-1.06 2.527 2.527 0 0 1 1.152-.92 1.588 1.588 0 0 1 1.116 0c.35.08.426.32.2.62a6.319 6.319 0 0 0-.488.68 2.311 2.311 0 0 0-.324.79 3.206 3.206 0 0 1-.141.51 1.24 1.24 0 0 0 .008 1.08 1.249 1.249 0 0 1 .046.73 2.324 2.324 0 0 0 .969 2 .1.1 0 0 0 .153-.06.179.179 0 0 0 .012-.12.371.371 0 0 0-.088-.17c-.077-.07-.17-.11-.249-.18a1.125 1.125 0 0 1-.222-.23.813.813 0 0 1 .052-1.17 3.026 3.026 0 0 1 .3-.29.215.215 0 0 0-.146-.21.714.714 0 0 1-.309-.62c-.01-.17-.017-.35-.017-.53a.369.369 0 0 1 .185-.38.878.878 0 0 0 .094-.4.284.284 0 0 0 .172-.36.314.314 0 0 1 .143-.34c.365-.27.728-.54 1.092-.82a1.62 1.62 0 0 1 1.146-.27.5.5 0 0 1 .447.39 1.041 1.041 0 0 1 .064.32 1.03 1.03 0 0 0 .3.95.22.22 0 0 1 .061.18c-.138.49.337.87.173 1.36a5.849 5.849 0 0 0-.153.64 1.274 1.274 0 0 0-.047.27.275.275 0 0 0 .078.16.126.126 0 0 0 .163-.05.722.722 0 0 0 .164-.34 1.531 1.531 0 0 1 .114-.31.089.089 0 0 1 .151-.03.812.812 0 0 0 .5.34.225.225 0 0 0 .322-.25.885.885 0 0 1 .418-.76.783.783 0 0 1 .855-.07 4.711 4.711 0 0 0 .936.43.7.7 0 0 1 .4.48 1.125 1.125 0 0 1 .114.51.278.278 0 0 0 .192.3.482.482 0 0 1 .31.57.17.17 0 0 0 .224.21.528.528 0 0 1 .12-.02.15.15 0 0 1 .168.21.779.779 0 0 0 .063.65c.142-.1.265-.2.4-.28.177-.1.294-.38.57-.19a1.319 1.319 0 0 1 .822.98.493.493 0 0 1-.118.37.339.339 0 0 0-.163.23.278.278 0 0 0 .129.04c.441-.1.443-.11.5.36a.149.149 0 0 0 .2.16 1.78 1.78 0 0 1 1.258.5.363.363 0 0 1 .031.48 3.126 3.126 0 0 1-.227.22c-.06.05-.129.1-.217.16a2.2 2.2 0 0 1 .23.16 2.427 2.427 0 0 1 .192.17c.046-.06.091-.1.124-.15.187-.3.317-.33.5-.1a3.781 3.781 0 0 1 .388.59c.144.28.054.48-.235.51a1.085 1.085 0 0 0-.539.26.123.123 0 0 0 .012.21 1.6 1.6 0 0 0 .635.17.734.734 0 0 1 .523.3.224.224 0 0 1-.078.37.826.826 0 0 1-.792-.04c-.182.18.033.3.007.45a.635.635 0 0 0-.027.39.686.686 0 0 1 .043.25.663.663 0 0 0-.057.32.456.456 0 0 0 .365.2.647.647 0 0 1 .557.41c.082.22.384.29.485.56a.273.273 0 0 0 .217.04.464.464 0 0 1 .573.24 1.6 1.6 0 0 1 .692 1.19.2.2 0 0 0 .212.19 1.919 1.919 0 0 1 .239-.01.18.18 0 0 1 .171.22c-.041.25.057.32.258.32a.952.952 0 0 1 .759.34.543.543 0 0 1 .122.66.835.835 0 0 1-.4.62.273.273 0 0 0-.111.29 1.43 1.43 0 0 1-.218.68.494.494 0 0 1-.37.31.211.211 0 0 0-.182.28 1.832 1.832 0 0 1-.16.71c-.045.14-.146.16-.293.09a2.074 2.074 0 0 1-1.021-1.16 3.392 3.392 0 0 0-.963-1.24.707.707 0 0 1-.281-.32c-.036-.13-.115-.1-.173-.01a.244.244 0 0 1-.2.12c-.087 0-.224-.09-.247.07a.271.271 0 0 0 .2.21c.047.04.1.08.144.12a.3.3 0 0 1 .025.42c-.046.06-.117.11-.169.18a.2.2 0 0 0 0 .25 2.152 2.152 0 0 1 .4.95.633.633 0 0 0 .475.53 1.477 1.477 0 0 1 .726.45.689.689 0 0 1 .25.76.383.383 0 0 0 .112.41 1.356 1.356 0 0 1 .294 1.11.46.46 0 0 1-.095.24c-.063.08-.2.1-.17.24a.924.924 0 0 0 .14.29c.07.12.164.25.007.33a.221.221 0 0 0-.078.37 2.386 2.386 0 0 1 .164.19.174.174 0 0 1-.01.24.17.17 0 0 1-.271-.01 2.006 2.006 0 0 1-.193-.4.663.663 0 0 0-.492-.44 1.844 1.844 0 0 1-1.147-.79.48.48 0 0 0-.128-.13c-.123-.06-.265-.09-.388-.16a1.16 1.16 0 0 0-.33-.24.275.275 0 0 0 .077.26 10.215 10.215 0 0 0 1.315 1.54 1.323 1.323 0 0 1 .43 1.12c0 .15-.154.26-.259.16a2.409 2.409 0 0 0-.717-.28 3.731 3.731 0 0 0-.654-.3 1 1 0 0 1-.644-.46.843.843 0 0 0-.864-.46.5.5 0 0 1-.122 0zM60.741 47.02a.11.11 0 0 0-.12.1.158.158 0 0 0 .092.04.246.246 0 0 0 .088-.06c-.012-.02-.035-.06-.055-.08zm-23.895-.85c-.179-.06-.344-.11-.507-.18a.354.354 0 0 1-.2-.3.956.956 0 0 1 .087-.65 3.759 3.759 0 0 1 .276-.44.369.369 0 0 0 .064-.42.824.824 0 0 1 .135-.87 4.315 4.315 0 0 1 .588-.67 9.1 9.1 0 0 1 1.732-1.19c.33-.17.532-.08.641.31a1.8 1.8 0 0 1-.018 1.12c-.039.11-.148.25.039.32s.25 0 .3-.27a1.479 1.479 0 0 1 .051-.25c.168-.4.365-.48.665-.29.247.15.49.3.732.46a.673.673 0 0 1 .312.73.327.327 0 0 0 .077.33 1.153 1.153 0 0 1 .457-.37.39.39 0 0 0 .248-.51c-.03-.14-.093-.25-.124-.38a.19.19 0 0 1 .218-.23.09.09 0 0 1 .057.01 2.019 2.019 0 0 1 1.008 1.48 5.6 5.6 0 0 0 .11.72 3.816 3.816 0 0 1 .164.92.162.162 0 0 0 .146.18.309.309 0 0 0 .212-.1.5.5 0 0 0 .112-.49c-.206-.8-.206-1.63-.375-2.44-.036-.2-.049-.4-.072-.6a1.182 1.182 0 0 1 .071-.52.211.211 0 0 1 .294-.14 1.525 1.525 0 0 1 .2.12.393.393 0 0 0 .208.12c.366-.16.5.15.668.39a.1.1 0 0 0 .155.03.16.16 0 0 0 0-.18 2.469 2.469 0 0 0-.549-.7.384.384 0 0 1-.081-.48.661.661 0 0 1 .587-.5 2.955 2.955 0 0 1 .6.01.664.664 0 0 1 .527.64 1.35 1.35 0 0 1-.044.6 4.359 4.359 0 0 1-.409 1.1.684.684 0 0 0-.087.52c.093.56.18 1.14.218 1.72a1.911 1.911 0 0 0 .276.8 1.58 1.58 0 0 1 .187 1.16 1.129 1.129 0 0 0 .195.93 3.882 3.882 0 0 0 .468.6.272.272 0 0 0 .264.13.455.455 0 0 1 .459.24 3.7 3.7 0 0 0 .947.91.517.517 0 0 1 .244.55 3.218 3.218 0 0 0-.011.34.256.256 0 0 1-.265.29.714.714 0 0 1-.621-.15c-.1-.1-.23 0-.242.16a.385.385 0 0 0 .077.32 5.113 5.113 0 0 1 .5.82.228.228 0 0 1-.023.3 1.977 1.977 0 0 1-.925.59.884.884 0 0 1-.759-.08.823.823 0 0 0-.459-.11.439.439 0 0 1-.457-.24.559.559 0 0 0-.429-.34.515.515 0 0 1-.451-.46.19.19 0 0 0-.132-.1.2.2 0 0 0-.134.12c-.045.1-.065.21-.106.31a.88.88 0 0 1-.621.58 1.407 1.407 0 0 0-.79.42 1.228 1.228 0 0 1-.883.35 2.664 2.664 0 0 0-.875.18 5.217 5.217 0 0 1-1.252.09.21.21 0 0 1-.189-.14 2.458 2.458 0 0 1-.322-.79c-.025-.13-.04-.26-.075-.39a.515.515 0 0 0-.542-.43 1.833 1.833 0 0 0-.233.03 1.288 1.288 0 0 1-1.32-.6 3.658 3.658 0 0 1-.46-.86.413.413 0 0 1 .158-.52 2.661 2.661 0 0 1 .377-.19 6.758 6.758 0 0 1 1.511-.41 1.18 1.18 0 0 1 .416.03c.237.03.475.08.709.12a.3.3 0 0 0 .282-.08.247.247 0 0 0 .006-.35 1.632 1.632 0 0 0-1.7-.31.933.933 0 0 1-.815.03 2.368 2.368 0 0 0-.532-.04 1.149 1.149 0 0 1-1.031-.68.522.522 0 0 1 .229-.77 1.451 1.451 0 0 1 .335-.13 1.313 1.313 0 0 0 .492-.24c.106-.1.368-.1.29-.32-.054-.14-.255.01-.386.04-.256.05-.508.11-.761.17a.189.189 0 0 1-.221-.06.243.243 0 0 1 .007-.3 1.949 1.949 0 0 0 .105-.18zm21.756-23.6a1.527 1.527 0 0 0-.016.86 3.07 3.07 0 0 1 .061.4c.018.29-.06.33-.354.22-.017 0-.034.02-.087.03a1.861 1.861 0 0 1 .094.97c-.016.06-.024.13-.041.19a.176.176 0 0 1-.168.16.287.287 0 0 1-.149-.09c-.087-.17-.16-.36-.245-.54a.094.094 0 0 0-.136-.06.137.137 0 0 0-.017.12c.051.17.112.33.166.5a.185.185 0 0 1-.022.12.1.1 0 0 1-.1 0c-.06-.05-.113-.12-.175-.18a.315.315 0 0 0-.194-.12c-.148.05-.034.18-.034.27a.25.25 0 0 1-.21.28 1.079 1.079 0 0 1-.356-.03 1.987 1.987 0 0 1-1.291-.99c-.168-.28-.137-.43.134-.58.071-.04.141-.07.211-.11.006-.17-.117-.16-.2-.2s-.155-.04-.23-.07a.574.574 0 0 1-.376-.47.212.212 0 0 1 .064-.24c.1-.08.165-.15.02-.23a.813.813 0 0 1-.371-.5.4.4 0 0 1 .077-.43 1.457 1.457 0 0 1 1.127-.66 1.045 1.045 0 0 0 .179-.03c.014 0 .026-.03.038-.03a.6.6 0 0 1-.295-.57c-.022-.16-.116-.25-.246-.18-.146.07-.288.15-.429.22-.116.07-.187.27-.354.19a.6.6 0 0 1-.16-.34.1.1 0 0 0-.154-.03c-.094.08-.18.18-.281.25a.18.18 0 0 1-.16-.01 5.5 5.5 0 0 1-.469-.52.357.357 0 0 1 .134-.54l.394-.15a.14.14 0 0 0 .064-.1.135.135 0 0 0-.064-.09 1.04 1.04 0 0 1-.974-.91c-.105-.28-.018-.6-.121-.9a.236.236 0 0 1 .219-.26c.16-.03.317-.02.479-.04a.544.544 0 0 0 .485-.42.139.139 0 0 0-.017-.12.1.1 0 0 0-.1-.04.347.347 0 0 0-.163.08.566.566 0 0 1-.858-.09 3.861 3.861 0 0 1-.388-.41c-.194-.25-.194-.34.05-.6a.715.715 0 0 0 .184-.47.745.745 0 0 1 .235-.59c.107-.09-.015-.14-.057-.2-.114-.17-.072-.3.1-.32a.456.456 0 0 1 .556.27.521.521 0 0 0 .416.34.23.23 0 0 0 .243-.29.416.416 0 0 0-.324-.41c-.981-.26-.856-.82-.5-1.52a.3.3 0 0 1 .348-.19c.2.07.339.11.38-.19a.2.2 0 0 1 .154-.06.833.833 0 0 0 .414-.04.233.233 0 0 0 .02-.41c-.13-.05-.271-.06-.408-.1a.4.4 0 0 1-.3-.37.494.494 0 0 1 .224-.5.513.513 0 0 1 .622-.01 2.359 2.359 0 0 1 1.167 1.6 11.132 11.132 0 0 0 .623 2.02.894.894 0 0 0 .759.64c.4.05.5.22.5.67 0 .19-.035.36-.037.54a.881.881 0 0 0 .363.79.15.15 0 0 0 .158 0 .137.137 0 0 0 .029-.18 2.27 2.27 0 0 0-.162-.27.88.88 0 0 1-.114-.52.425.425 0 0 1 .336-.47.4.4 0 0 1 .476.38 11.866 11.866 0 0 0 .392 1.75 2.39 2.39 0 0 1-.041 1.12.16.16 0 0 0 .14.23.323.323 0 0 1 .271.12.731.731 0 0 0 .53.39.305.305 0 0 1 .172.17 6.439 6.439 0 0 1 .361.69.791.791 0 0 1-.2 1.01 1.175 1.175 0 0 1-.285.24 2.7 2.7 0 0 0-1.1 1.44c-.034.08-.063.16-.1.24-.052.12-.089.27-.246.23a.314.314 0 0 1-.211-.29 4.561 4.561 0 0 1-.074-.46zm-6.433 7.2a.923.923 0 0 0 .371-.21.708.708 0 0 1 .792-.13 4.763 4.763 0 0 1 .487.25.732.732 0 0 0 .264.14c.488-.03.575.38.7.76a.717.717 0 0 0 .136.49.883.883 0 0 0 .639-.02.257.257 0 0 0 .111-.06.54.54 0 0 1 .442-.16 1.653 1.653 0 0 1 .611.4.389.389 0 0 1 .117.3.5.5 0 0 0 .351.54c.112.05.23.09.342.13a.357.357 0 0 1 .087.62.412.412 0 0 1-.328.12c-.2-.01-.4.01-.6.01a.226.226 0 0 0-.059.04 1.258 1.258 0 0 0 .5.51 1.779 1.779 0 0 1 .523.51.588.588 0 0 1 .051.25c.014.14.014.27.03.4a.094.094 0 0 0 .171.05c.223-.23.232-.24.4-.04.1.11.154.18.3.08a.5.5 0 0 1 .707.09.935.935 0 0 0 .241.2c.195.13.242.13.385-.09a.885.885 0 0 1 .322-.28c.383-.24.771-.47 1.152-.71a.49.49 0 0 1 .388-.13 1.389 1.389 0 0 0 .752-.09 1.007 1.007 0 0 1 1.144.32.315.315 0 0 0 .184.15 1.1 1.1 0 0 1 .656.54.9.9 0 0 1 .071 1.1c-.114.18-.252.33-.375.51.116.18.223.02.322.01a.321.321 0 0 1 .337.21.232.232 0 0 1-.043.3 1.1 1.1 0 0 0-.534.76.27.27 0 0 1-.242.17 1.793 1.793 0 0 0-.851.28.845.845 0 0 1-.753-.09.522.522 0 0 1-.239-.44.165.165 0 0 0-.071-.16 1.069 1.069 0 0 1-1.091.64 7.575 7.575 0 0 0-.821.09 9.555 9.555 0 0 1-1.6.07c-.354-.01-.411-.1-.49-.52-.01-.05-.013-.09-.022-.13a.259.259 0 0 0-.036-.07c-.128-.02-.259-.04-.4-.07a1.233 1.233 0 0 1-.025.21.375.375 0 0 1-.481.35 1.45 1.45 0 0 1-.531-.29.406.406 0 0 0-.5-.08.194.194 0 0 1-.268-.08 1.111 1.111 0 0 1-.357-.82 1.412 1.412 0 0 0-.158-.69 1.288 1.288 0 0 1 .051-1.03 1.394 1.394 0 0 0-.059-1.27 2.868 2.868 0 0 1-.235-.68 2.925 2.925 0 0 0-.194-.56c-.082-.2-.164-.25-.33-.14a.824.824 0 0 1-.567.14.748.748 0 0 1-.611-.33 4.66 4.66 0 0 1-.6-.81 3.1 3.1 0 0 0-.49-.58.289.289 0 0 1-.114-.34.961.961 0 0 0-.057-.65zM31.148 45.22a3.909 3.909 0 0 1 .365-1.56.889.889 0 0 0 .107-.5.721.721 0 0 1 .18-.73.158.158 0 0 0 .045-.12 4.769 4.769 0 0 1 .453-1.85c.02-.06.046-.12.066-.18a.776.776 0 0 0-.018-.64 6.379 6.379 0 0 1-.284-1.16.246.246 0 0 1 .142-.32 1.978 1.978 0 0 1 .817-.2 3.108 3.108 0 0 0 1-.18.636.636 0 0 1 .845.28 2.886 2.886 0 0 0 .534.52.759.759 0 0 0 .9.13 1.632 1.632 0 0 0 .164-.08.8.8 0 0 1 .841.18 2.521 2.521 0 0 1 .416.49 10.806 10.806 0 0 0 .71.9c.094.12.2.22.281.34a.451.451 0 0 1 0 .61 1.156 1.156 0 0 1-.411.37 3.82 3.82 0 0 0-.933.72c-.323.3-.663.57-1 .84a.869.869 0 0 0-.363.58.978.978 0 0 1-.445.75 1.255 1.255 0 0 0-.492 1.03c-.008.12 0 .26-.015.4a.682.682 0 0 1-.792.74.289.289 0 0 0-.265.1 3.485 3.485 0 0 1-.65.59.233.233 0 0 1-.4-.11 2.582 2.582 0 0 1-.155-.36c-.064-.16-.123-.32-.182-.49a1.121 1.121 0 0 0-.646-.74 1.19 1.19 0 0 0-.81-.35zm8.7-9.86a2.073 2.073 0 0 0-.417.72c-.117.33-.235.35-.552.17a.159.159 0 0 0-.252.05.2.2 0 0 1-.358 0 .692.692 0 0 0-.611-.34.768.768 0 0 1-.288-.1.448.448 0 0 1-.217-.6 2.394 2.394 0 0 0 .219-.95.542.542 0 0 1 .58-.54.509.509 0 0 1-.23-.45.887.887 0 0 0 .036-.2c.094-.58.107-.58.639-.68a.386.386 0 0 0 .128-.04.557.557 0 0 1-.157-.52.524.524 0 0 1 .394-.37c.076-.02.153-.06.23-.08.411-.1.59.03.684.49.008.04 0 .09.011.13a.237.237 0 0 0 .254.23.121.121 0 0 0 .059-.01.735.735 0 0 1 .959.54 1.2 1.2 0 0 1 .345.74.049.049 0 0 0 .03.05.727.727 0 0 1 .374.64.364.364 0 0 0 .4.32c.317-.01.636.02.953.02a.275.275 0 0 0 .3-.17.453.453 0 0 0-.068-.44.25.25 0 0 0-.04-.05.971.971 0 0 1-.435-.42 1.309 1.309 0 0 1 .273-.49.361.361 0 0 0-.061-.37 2.75 2.75 0 0 0-.31-.31 2.519 2.519 0 0 1-.258-.27.372.372 0 0 1 .059-.53 1.253 1.253 0 0 0 .493-.8.638.638 0 0 1 .281-.41.28.28 0 0 1 .439.17 1.059 1.059 0 0 1 .034.33 1.435 1.435 0 0 0 .225 1.01.7.7 0 0 1 .068.69.231.231 0 0 0 .11.33.873.873 0 0 1 .38.4.643.643 0 0 0 .381.33 2.988 2.988 0 0 1 .091-.32.325.325 0 0 1 .492-.2.87.87 0 0 1 .419.46 1.452 1.452 0 0 1 .087 1.04c-.142.4-.2.81-.312 1.22a.93.93 0 0 1-1.2.75.476.476 0 0 0-.4 0 .335.335 0 0 1-.435-.08.171.171 0 0 0-.271-.02 2.257 2.257 0 0 1-.784.47.812.812 0 0 0-.365.33 2.728 2.728 0 0 1-1.3.91 1.179 1.179 0 0 1-1.361-.43.449.449 0 0 1 .074-.73c.293-.18.581-.37.862-.58a.938.938 0 0 1 .7-.14.309.309 0 0 0 .314-.14.32.32 0 0 0 .046-.19.11.11 0 0 0-.141-.08 2.477 2.477 0 0 0-1.094.24.967.967 0 0 1-.281.11c-.214.07-.315-.02-.291-.25.018-.2.05-.4.073-.59zm10.53 4.74a1.223 1.223 0 0 1 .843-.78.215.215 0 0 1 .291.27c-.028.19-.048.26.167.29a.552.552 0 0 1 .431.72 1.685 1.685 0 0 0-.1.52.508.508 0 0 1-.2.45 1.336 1.336 0 0 0-.388.59 2.568 2.568 0 0 0 .386.28c.079.15.16.3.24.46a.609.609 0 0 0 .23.3.686.686 0 0 1 .342.83 5.218 5.218 0 0 0-.047 1.26.423.423 0 0 1-.082.31.864.864 0 0 1-.791.59.158.158 0 0 0-.166.16 1.011 1.011 0 0 1-.035.26.476.476 0 0 1-.388.36.5.5 0 0 1-.5-.39 4.858 4.858 0 0 0-.848-1.52 1.149 1.149 0 0 0-.606-.4 2.468 2.468 0 0 1-.921-1.26 1.394 1.394 0 0 1 .017-.59c.064-.26.3-.35.465-.17a4.675 4.675 0 0 1 .393.5.291.291 0 0 0 .282.2.414.414 0 0 0 .342-.33 1.458 1.458 0 0 0-.043-.72.77.77 0 0 0-.339-.52 1.048 1.048 0 0 1-.26-.27.406.406 0 0 1-.031-.54.267.267 0 0 0 .091-.23.383.383 0 0 1 .275-.55 1.142 1.142 0 0 1 .454-.3 2.1 2.1 0 0 1 .494.22.416.416 0 0 0 .209.19.248.248 0 0 0 .1-.04.179.179 0 0 0-.037-.09 1.283 1.283 0 0 0-.263-.06zm-.459-7.02a1.1 1.1 0 0 0-.2-.56.358.358 0 0 1-.094-.29.257.257 0 0 0-.135-.33.477.477 0 0 1-.236-.55c.036-.13-.043-.14-.134-.13a.926.926 0 0 1-.234-.02.1.1 0 0 1-.06-.15.834.834 0 0 1 .449-.42.255.255 0 0 1 .227.02c.281.27.688.25.956.54a.163.163 0 0 0 .26-.04 3.243 3.243 0 0 1 .176-.28.138.138 0 0 1 .216-.01 1.337 1.337 0 0 1 .541 1.06c-.023.41.048.83.063 1.26a2.476 2.476 0 0 0 .082 1.03 1.132 1.132 0 0 1 .011.47.16.16 0 0 1-.057.1c-.235-.09-.265.1-.316.27a.689.689 0 0 0 .035.51.378.378 0 0 1 .029.38.859.859 0 0 1-.394.4 1.075 1.075 0 0 1-.174.03c-.3.02-.6.03-.894.08a.4.4 0 0 1-.488-.49 1.905 1.905 0 0 0-.076-.72.333.333 0 0 1 .112-.36 2.253 2.253 0 0 0 .264-.27c.078-.09.211-.18.118-.32a.252.252 0 0 0-.334-.04c-.349.11-.689.24-1.034.34a2.959 2.959 0 0 1-.411.09.26.26 0 0 1-.23-.32 1.192 1.192 0 0 1 .224-.38c-.112-.14-.219-.01-.32.01-.232.04-.246.05-.339-.22a.327.327 0 0 0-.171-.25.207.207 0 0 1-.131-.26.189.189 0 0 0-.12-.25c-.492-.24-.5-.31-.124-.81a1.274 1.274 0 0 1-.364-.81.416.416 0 0 1 .179-.45.308.308 0 0 1 .432.09 3.544 3.544 0 0 1 .445.64 3.376 3.376 0 0 1 .513 1.11 1.372 1.372 0 0 0 .511.8.093.093 0 1 0 .116-.14 2.469 2.469 0 0 1-.422-1.02 1.033 1.033 0 0 1 .085-.65.288.288 0 0 1 .461-.1 1.18 1.18 0 0 1 .265.44 2.1 2.1 0 0 0 .729.97zM47.637 21.6a1.081 1.081 0 0 0 .222-.4.379.379 0 0 1 .035-.05.262.262 0 0 1 .42-.07 6.665 6.665 0 0 1 .509.46 3.452 3.452 0 0 0 .233.59 2.5 2.5 0 0 1 .517.12 1.122 1.122 0 0 1 .269.35 4.575 4.575 0 0 0 .274.51.589.589 0 0 1 .091.51 1.789 1.789 0 0 0 .251 1.46 2.908 2.908 0 0 1 .177.34 1.137 1.137 0 0 1-.121.97.594.594 0 0 1-.9.06 1.082 1.082 0 0 1-.224-.47c-.046-.17-.082-.34-.139-.51a.29.29 0 0 0-.313-.25c-.253.09-.308-.03-.34-.27a.14.14 0 0 0-.2-.08.606.606 0 0 0-.409.25c-.048.07-.09.15-.143.22a.133.133 0 0 1-.209.04.2.2 0 0 1-.029-.24c.023-.06.052-.12.082-.18.038-.09.144-.2.033-.29a.214.214 0 0 0-.27.08.556.556 0 0 1-.774.05.865.865 0 0 1-.353-.73.342.342 0 0 1 .393-.38c.113.02.225.09.343.12a.224.224 0 0 0 .163-.02.152.152 0 0 0-.025-.23c-.215-.19.1-.37.014-.54a.723.723 0 0 1-.3-.37c-.009-.14.155-.34-.069-.4-.125-.03-.171.16-.242.26a.406.406 0 0 1-.084.1.145.145 0 0 1-.11.03.14.14 0 0 1-.064-.1c0-.08.028-.17.035-.26.022-.26.016-.29-.242-.35a.372.372 0 0 1-.31-.41 1.918 1.918 0 0 1-.012-.33c0-.45.043-.49.463-.61l.347-.12a.677.677 0 0 1 .892.28.7.7 0 0 1 .094.31c.024.17.024.35.032.55zm-12.9 11.16a2.245 2.245 0 0 1-.113.33c-.043.11-.123.21-.228.15a.454.454 0 0 0-.651.06c-.083.08-.193.01-.235-.11a1.035 1.035 0 0 1-.047-.2 1.074 1.074 0 0 1-.182-.47 4.168 4.168 0 0 1 .213-.55.47.47 0 0 1 .361-.32.565.565 0 0 0 .512-.47.732.732 0 0 1 .317-.47 1.258 1.258 0 0 0 .469-.68 7.354 7.354 0 0 1 .733-1.3.951.951 0 0 1 1.083-.33 1.848 1.848 0 0 1 .281.11.17.17 0 0 0 .2-.23.427.427 0 0 1 .119-.47.277.277 0 0 1 .434-.02 6.5 6.5 0 0 1 .5.57.344.344 0 0 1-.077.52c-.013.01-.03.02-.046.03-.348.31-.352.32-.171.75a.381.381 0 0 1-.012.43.377.377 0 0 0 .025.38.544.544 0 0 1-.277.71.64.64 0 0 0-.4.66.373.373 0 0 1-.252.41.413.413 0 0 1-.384-.35 2.292 2.292 0 0 1-.064-.93.474.474 0 0 0-.006-.32.111.111 0 0 0-.1-.02.258.258 0 0 0-.122.22.775.775 0 0 1-.248.64.225.225 0 0 0-.027.18 1.173 1.173 0 0 1-.16.95c-.046.13-.146.1-.253.06-.158-.06-.227-.01-.235.15-.007.12.016.23.007.34a.575.575 0 0 1-.253.43.26.26 0 0 1-.427-.16c-.082-.2-.163-.4-.28-.68zm46.91 49.16c.171-.05.34-.11.518-.16a.16.16 0 0 1 .187.23 8.14 8.14 0 0 1-.336.93 4.876 4.876 0 0 0-.447 1.01.8.8 0 0 1 .605-.15.216.216 0 0 1 .155.29c-.048.26-.029.26.2.34a1.011 1.011 0 0 0 .642.07.737.737 0 0 1 .3 0c.317.06.383.19.289.55-.016.06-.039.12-.052.19-.034.2.018.26.254.31.171.04.2.12.1.27a.769.769 0 0 0-.24.45.2.2 0 0 0 .03.12.082.082 0 0 0 .095 0c.051-.04.085-.1.131-.13a.183.183 0 0 1 .158-.06c.067.02.061.1.043.17a.225.225 0 0 0 .089.33.243.243 0 0 1 .111.28 6.061 6.061 0 0 1-.212.76c-.078.21-.258.23-.444.09a.979.979 0 0 0-.19-.16.3.3 0 0 1-.155-.38.894.894 0 0 0 .018-.46.146.146 0 0 0-.069-.1.1.1 0 0 0-.1.03c-.221.25-.438.5-.663.76a.348.348 0 0 1-.259.14.237.237 0 0 1-.158-.07.154.154 0 0 1 .022-.18 1.024 1.024 0 0 0 .349-.44 1.041 1.041 0 0 0-.395.03l-.335-.15c-.017 0-.038-.01-.058-.01-.573.12-1.145-.17-1.722-.01a.507.507 0 0 1-.174.02.3.3 0 0 1-.231-.47 1.616 1.616 0 0 1 .225-.31c.128-.15.2-.28-.017-.42-.059-.03-.036-.12.017-.16a1.51 1.51 0 0 0 .513-.79c.226-.55.461-1.09.643-1.65a8.225 8.225 0 0 1 .557-1.11h.007zM59.341 63.24a.673.673 0 0 1 .228-.59.726.726 0 0 0 .3-.8 1.591 1.591 0 0 1 .027-.53 9.3 9.3 0 0 0 .181-1.45 1.186 1.186 0 0 1 .185-.63.271.271 0 0 1 .5.01.9.9 0 0 1 .151.43c.021.2.12.26.289.2a.223.223 0 0 1 .27.1 6.325 6.325 0 0 0 .671.66 1.7 1.7 0 0 0 .63.49.932.932 0 0 1 .518.69c.028.11.047.22.083.33a.276.276 0 0 0 .311.24c.417-.08.475.32.629.59a.223.223 0 0 1-.036.18.963.963 0 0 1-.463.4.336.336 0 0 1-.291-.04c-.179-.09-.365-.18-.544-.28a.311.311 0 0 1-.184-.15 3.369 3.369 0 0 0-.557-.58c-.053-.1-.169-.01-.185.07a3.57 3.57 0 0 1-.9 1.38.676.676 0 0 1-.309.2.271.271 0 0 1-.343-.18c-.045-.13-.055-.26-.093-.39a.3.3 0 0 0-.344-.28c-.176.01-.354.05-.533.07a.205.205 0 0 1-.187-.14zm-5.526-38.69a2.5 2.5 0 0 0 0 1.15.509.509 0 0 1-.324.57 3.646 3.646 0 0 1-.622.23.675.675 0 0 0-.455.26.2.2 0 0 1-.367-.09 1.92 1.92 0 0 0-.306-.78.235.235 0 0 1 .155-.39c.074-.04.158-.05.221-.09a.127.127 0 0 0 .012-.18.774.774 0 0 0-.378-.18.349.349 0 0 1-.236-.27 3.334 3.334 0 0 1-.249-1.49 4.948 4.948 0 0 0-.036-.6.417.417 0 0 1 .623-.43 1 1 0 0 1 .26.16c.189.16.374.33.561.5a2.277 2.277 0 0 1 .172.18 3.22 3.22 0 0 0 .18.55 4.464 4.464 0 0 1 .5.22 1.034 1.034 0 0 1 .293.68zm13.393 89.79c-.258 0-.515.01-.773 0-.114 0-.16-.11-.12-.25a1.221 1.221 0 0 1 .062-.11c.074-.12.058-.23-.072-.25a.957.957 0 0 1-.761-.57.417.417 0 0 0-.4-.25 1.552 1.552 0 0 1-.85-.29.949.949 0 0 0-.517-.13 4.722 4.722 0 0 1-.533-.08.313.313 0 0 1-.212-.21c-.1-.24-.157-.28-.334-.23-.111.04-.22.1-.328.15-.324.17-.641.36-.969.52a.362.362 0 0 1-.231.02.111.111 0 0 1-.081-.15 1.676 1.676 0 0 1 .637-.76 3.556 3.556 0 0 1 2.751-.14.738.738 0 0 1 .211.12.842.842 0 0 0 .876.28.63.63 0 0 1 .622.33 2.284 2.284 0 0 0 1.145.8.812.812 0 0 1 .323.17.916.916 0 0 0 .476.25 1.031 1.031 0 0 1 .51.34.135.135 0 0 1-.036.22 1.53 1.53 0 0 1-.8.25h-.6v-.03zm-.282-71.36c-.133-.04-.327-.09-.521-.14a.894.894 0 0 0-.805.12l-.214.12a.659.659 0 0 1-.976-.53 2.03 2.03 0 0 1-.038-.26.621.621 0 0 0-.233-.45.649.649 0 0 1-.311-.47 1.617 1.617 0 0 1 .175-.83.323.323 0 0 1 .193-.13.639.639 0 0 1 .236.03 1.931 1.931 0 0 0 1.114.13.984.984 0 0 1 .952.46 10.418 10.418 0 0 1 .74 1.29 1.174 1.174 0 0 1 .071.25.311.311 0 0 1-.379.41zm-13.969-8.29c.577-.56.7-.55 1.18.06.13.17.242.36.358.54a.8.8 0 0 1 .114.23 5.855 5.855 0 0 1 .046 1.85.34.34 0 0 1-.094.16.738.738 0 0 1-.792.05 6.389 6.389 0 0 1-1.027-1 1.734 1.734 0 0 1-.137-.22.68.68 0 0 1 .06-.8.586.586 0 0 0 .046-.67c-.038-.09-.112-.14-.187-.06-.047.04-.083.1-.124.14-.062.08-.141.11-.207.04a.459.459 0 0 1-.094-.24.356.356 0 0 1 .13-.28 1.449 1.449 0 0 1 .235-.21c.171-.13.265-.11.382.11.045.08.066.17.115.3zM40.2 26.97a.763.763 0 0 1 .351-.8 3.336 3.336 0 0 1 1.79-.66.412.412 0 0 1 .34.72 2.554 2.554 0 0 1-.381.19.228.228 0 0 0-.183.15.192.192 0 0 0 .153.23.5.5 0 0 1 .292.53.7.7 0 0 1-.322.67 10.306 10.306 0 0 1-1.068.41.16.16 0 0 1-.176-.01c-.222-.18-.445-.37-.655-.57a.716.716 0 0 1-.14-.5l-.001-.36zm29.65 88.4c-.04-.13-.139-.07-.2-.1-.086-.03-.137-.08-.082-.18a.505.505 0 0 1 .089-.1.212.212 0 0 0-.036-.33 1.21 1.21 0 0 1-.178-.18.123.123 0 0 1 .032-.17.329.329 0 0 1 .433-.1.831.831 0 0 0 .687.07 1.527 1.527 0 0 1 1.316.26c.268.19.546.36.819.54a1.217 1.217 0 0 1 .222.22c.086.12-.02.39-.144.36a3.276 3.276 0 0 0-1.391.12.674.674 0 0 0-.458.23c-.188.2-.228.22-.4.03a.627.627 0 0 0-.594-.21c-.336.05-.668-.11-1-.03a.172.172 0 0 1-.11-.04.191.191 0 0 1-.123-.2.128.128 0 0 1 .129-.11c.158-.01.318-.01.476-.01a1.039 1.039 0 0 0 .517-.07zm14.188-65.9a3.762 3.762 0 0 0 .809 1.14.509.509 0 0 1 .035.71 1.4 1.4 0 0 1-1.279.37.2.2 0 0 1-.155-.29c.025-.07.047-.13-.033-.17s-.152-.03-.23-.06a.364.364 0 0 1-.3-.48 9.579 9.579 0 0 0 .08-1.04.294.294 0 0 1 .376-.32 2.738 2.738 0 0 0 .7.15zm-41.684-24.6a.62.62 0 0 1-.477-.24c-.094-.08-.161-.04-.24.06-.19.25-.213.26-.428.08a.374.374 0 0 0-.582.01.355.355 0 0 1-.161.08.2.2 0 0 1-.23-.17.428.428 0 0 1 .084-.43 1.7 1.7 0 0 1 .688-.51 1.269 1.269 0 0 0 .653-.44c.422-.47.579-.45.98.02.081.1.158.21.24.3a1.006 1.006 0 0 1 .171.87.322.322 0 0 1-.23.28c-.147.04-.307.06-.464.09zm25.763 30.18v.2a.951.951 0 0 1-.986 1.06.567.567 0 0 1-.562-.41 1.86 1.86 0 0 1 .311-1.74.6.6 0 0 1 .723-.17.689.689 0 0 1 .511.72c-.007.11 0 .22 0 .34zM54.323 28.28c-.309-.07-.715-.16-1.119-.26a.81.81 0 0 1-.158-.09.668.668 0 0 1-.242-.69.623.623 0 0 1 .61-.41c.395.06.782.13 1.17.2a.34.34 0 0 1 .293.47c-.017.15-.043.3-.074.45a.39.39 0 0 1-.476.33zM11.4 72.85a.386.386 0 0 1 .45.36.366.366 0 0 1-.1.41 8.936 8.936 0 0 1-.789.69.451.451 0 0 1-.7-.14 1.716 1.716 0 0 1-.13-.3.455.455 0 0 1 .208-.6c.155-.08.355-.04.4-.32.014-.07.141-.04.218-.05.156-.01.309-.04.443-.05zm39.924-54.57a2.442 2.442 0 0 1-.016.27c-.042.33-.139.52-.237.48a.549.549 0 0 1-.275-.4.84.84 0 0 0-.328-.45.466.466 0 0 1-.181-.47c.01-.19.042-.39.069-.59a.4.4 0 0 1 .222-.42.549.549 0 0 1 .591.35 4.046 4.046 0 0 1 .159 1.23zm6.221 10.04a.557.557 0 0 1-.419.63.647.647 0 0 0-.485.19.148.148 0 0 1-.22 0 .2.2 0 0 1-.064-.28.592.592 0 0 0 .047-.56 1.587 1.587 0 0 1-.018-.73.313.313 0 0 1 .352-.27 1.1 1.1 0 0 1 .811 1.02zM26.864 78.76a1.338 1.338 0 0 0 .034.93 5.965 5.965 0 0 0-.006.64 2.1 2.1 0 0 1 .307.49.193.193 0 0 1-.03.11.1.1 0 0 1-.107 0 1.8 1.8 0 0 1-.545-.78 8.315 8.315 0 0 0-.566-1.3.717.717 0 0 1-.07-.25.229.229 0 0 1 .194-.28 5.889 5.889 0 0 1 .588.07c.18.03.231.12.205.37zM37.2 33.04a2.348 2.348 0 0 1-.043.26c-.081.29-.171.59-.265.87a1.294 1.294 0 0 1-.17.35c-.181.3-.362.33-.592.14a.5.5 0 0 1-.13-.73 4.367 4.367 0 0 1 .9-1.05.154.154 0 0 1 .217-.01.613.613 0 0 1 .083.17zm8.672-6.11c.01.01.088.05.152.09a1.121 1.121 0 0 1 .315.49 3.08 3.08 0 0 0 .454.91.607.607 0 0 1 .077.18.546.546 0 0 1-.143.6.388.388 0 0 1-.5-.23 3.093 3.093 0 0 1-.184-.42 11.832 11.832 0 0 1-.374-1.46.152.152 0 0 1 .2-.16zm31.679 58.06a1.667 1.667 0 0 1-1.112-.56 3.233 3.233 0 0 0-.411-.37.135.135 0 0 1-.01-.12.156.156 0 0 1 .075-.09.227.227 0 0 1 .114-.02 4 4 0 0 1 1.52.71.5.5 0 0 1 .1.16.194.194 0 0 1-.108.26zm-12.708-9.02c-.211.02-.258-.03-.294-.29a.614.614 0 0 1 .154-.66.214.214 0 0 0 .007-.29.891.891 0 0 1-.125-.22.122.122 0 0 1 .047-.11c.024-.02.087-.04.1-.01.254.24.506.48.746.75a.292.292 0 0 1 .047.24.654.654 0 0 1-.624.58c-.02 0-.036.01-.061.01zm-2.9-9.97a.165.165 0 0 1-.146-.19 1.425 1.425 0 0 1 .931-1.26.227.227 0 0 1 .273.08.267.267 0 0 1 .022.31 3.582 3.582 0 0 1-.923 1.02.533.533 0 0 1-.16.04zm47.761-29.39c-.765.01-.693-.29-.653-.83a.5.5 0 0 1 .583-.46.123.123 0 0 1 .08.08.62.62 0 0 1 .017.26.337.337 0 0 0 .273.47.207.207 0 0 1 .121.27.225.225 0 0 1-.246.22h-.058a.471.471 0 0 1-.121-.01zM1.746 68.91c.085.03.184.05.272.09a.406.406 0 0 1 .132.52.555.555 0 0 1-.555.31 1.351 1.351 0 0 1-.684-.39.211.211 0 0 1 .017-.29 2.536 2.536 0 0 1 .815-.24zM46.84 35.04a.327.327 0 0 1 .311.15 1.427 1.427 0 0 1 .192.62.466.466 0 0 1-.386.49.457.457 0 0 1-.469-.63 2.725 2.725 0 0 1 .132-.44.291.291 0 0 1 .217-.19zm60.8-28.65a2.737 2.737 0 0 1 .056-.29.158.158 0 0 1 .243-.08 1.5 1.5 0 0 1 .115.15 5.146 5.146 0 0 1 .378 1.18.275.275 0 0 1-.089.29.227.227 0 0 1-.305-.12 3.822 3.822 0 0 1-.263-.59 4.837 4.837 0 0 1-.134-.54zM39.55 27.11a.311.311 0 0 1-.141-.07 2.257 2.257 0 0 1-.394-.64.485.485 0 0 1 .258-.53.109.109 0 0 1 .111 0 2.848 2.848 0 0 1 .528.69.4.4 0 0 1-.361.55zm24.73 39.24a1.18 1.18 0 0 1 .118-.59.319.319 0 0 1 .424-.13.309.309 0 0 1 .158.33 2.369 2.369 0 0 1-.256.87.126.126 0 0 1-.209.03.711.711 0 0 1-.234-.51zm-15.6-39.43a.44.44 0 0 1-.394-.16.411.411 0 0 1-.136-.41.33.33 0 0 1 .269-.22.622.622 0 0 1 .783.42.157.157 0 0 1-.083.21c-.163.08-.339.12-.437.16zm17.52 88.52a1.3 1.3 0 0 1 .963.34.163.163 0 0 1-.03.23 1.038 1.038 0 0 1-1.226-.23.22.22 0 0 1-.046-.17.217.217 0 0 1 .125-.13.9.9 0 0 1 .214-.04zm10.18-27.08c-.1-.14-.2-.27-.287-.42a.345.345 0 0 1-.022-.32.183.183 0 0 1 .085-.08.115.115 0 0 1 .1.03.73.73 0 0 0 .7.5 2.7 2.7 0 0 0 .29.02.266.266 0 0 1 .271.08.343.343 0 0 1-.107.36.229.229 0 0 1-.31.09c-.245-.09-.486-.18-.733-.26h.009zm-1.069 27.43a3.01 3.01 0 0 1-1.028.19.9.9 0 0 1-.23-.05.23.23 0 0 1-.137-.26.194.194 0 0 1 .154-.18 1.151 1.151 0 0 1 .816.05c.105.06.214.12.427.25zm-6.423-60.61c-.062-.02-.181-.03-.291-.07a.4.4 0 0 1-.223-.41.26.26 0 0 1 .327-.27 1.786 1.786 0 0 1 .412.24.334.334 0 0 1 .117.35c-.039.16-.162.17-.34.16zm40.323-23.43a4.243 4.243 0 0 0 .065 1.06 1.042 1.042 0 0 1 .02.2c0 .06-.008.13-.08.13a.176.176 0 0 1-.082-.08 1.543 1.543 0 0 1-.045-.26 3.622 3.622 0 0 0-.159-1.04 1.243 1.243 0 0 1-.045-.26c-.017-.29.1-.63.181-.56a.717.717 0 0 1 .145.55c.007.13.002.26.002.26zm-69.568-1.03a.687.687 0 0 1-.388-.13.265.265 0 0 1-.047-.3.522.522 0 0 1 .644-.14.343.343 0 0 1 .159.33.253.253 0 0 1-.252.23c-.035.01-.075 0-.114.01zM1.353 78.51a.178.178 0 0 1 .2.24.609.609 0 0 1-.2.4 1.052 1.052 0 0 1-.579.31.172.172 0 0 1-.1-.07.042.042 0 0 1 0-.05 1.549 1.549 0 0 0 .376-.67.264.264 0 0 1 .305-.16zm10.634-6.25a.533.533 0 0 1-.084.16.8.8 0 0 1-.6.22.173.173 0 0 1-.105-.21 2.311 2.311 0 0 1 .473-.58.106.106 0 0 1 .109 0 .989.989 0 0 1 .209.41zm53.138-19.61a.185.185 0 0 1-.116-.27c.165-.25.344-.49.522-.73a.079.079 0 0 1 .05-.02.149.149 0 0 1 .114.01.129.129 0 0 1 .06.1 1.506 1.506 0 0 1-.488.88.2.2 0 0 1-.14.03zM87.691 1.43a.525.525 0 0 1 .488.49.239.239 0 0 1-.084.16.366.366 0 0 1-.489-.06.472.472 0 0 1-.038-.49.367.367 0 0 1 .125-.1zM65.173 33.55a.376.376 0 0 1-.03.28.28.28 0 0 1-.319.13.275.275 0 0 1-.14-.33 1.11 1.11 0 0 1 .289-.62c.261.1.118.38.202.54zm5.688-5.25a.413.413 0 0 1-.389.34.492.492 0 0 1-.4-.25.2.2 0 0 1-.022-.24.234.234 0 0 1 .152-.09.578.578 0 0 1 .4.09 1.91 1.91 0 0 1 .268.15h-.006zm38.554-19.57a.23.23 0 0 1-.057.12.19.19 0 0 1-.16.03.888.888 0 0 1-.366-.49.253.253 0 0 1 .045-.25.187.187 0 0 1 .267-.01.736.736 0 0 1 .273.6zm-47.4 50.67a.266.266 0 0 1-.082.07.211.211 0 0 1-.217-.08 1.544 1.544 0 0 1-.358-.66.127.127 0 0 1 .027-.12.225.225 0 0 1 .16-.01 1.381 1.381 0 0 1 .475.73.185.185 0 0 1 .002.07zm3.874 50.29a.358.358 0 0 1 .107.06 1.736 1.736 0 0 1 .269.91.086.086 0 0 1-.029.06.362.362 0 0 1-.105 0 5.884 5.884 0 0 1-.372-.59.366.366 0 0 1 .036-.37.378.378 0 0 1 .105-.07zm9.761-42.75a.286.286 0 0 1-.094.25.178.178 0 0 1-.224-.04.321.321 0 0 1-.129-.49c.036-.08.074-.15.118-.23a.144.144 0 0 1 .207.02.914.914 0 0 1 .129.49zm-8.627-15.59a.921.921 0 0 1-.253.65.167.167 0 0 1-.287-.09.351.351 0 0 1 .253-.53 2.771 2.771 0 0 1 .294-.02zm41.991-26.56a.2.2 0 0 1-.131.19.463.463 0 0 1-.454-.31.329.329 0 0 1 .309-.32.431.431 0 0 1 .283.44zM66.325 64.01a.207.207 0 0 1-.281.21.7.7 0 0 1-.338-.42.193.193 0 0 1 .067-.16.4.4 0 0 1 .559.37zM68 53.07a.5.5 0 0 1 .161.07 1.553 1.553 0 0 1 .151.27c.084.2.061.37-.043.4a.329.329 0 0 1-.325-.21.514.514 0 0 1-.048-.38.893.893 0 0 1 .104-.15zm-18.471-.44a.784.784 0 0 1 .074-.23.284.284 0 0 1 .284-.2.253.253 0 0 1 .083.34 2.238 2.238 0 0 1-.14.36.2.2 0 0 1-.155.07.135.135 0 0 1-.116-.13c-.011-.06-.013-.13-.027-.21zm59.331-29.99v.19a.2.2 0 0 1-.154.18.17.17 0 0 1-.2-.11.321.321 0 0 1-.053-.18.766.766 0 0 1 .217-.52.054.054 0 0 1 .052-.02.133.133 0 0 1 .089.06c.026.15.038.31.052.4zm-30.835 99.94a.285.285 0 0 1-.117-.08.606.606 0 0 1 .18-.52.2.2 0 0 1 .288.11.36.36 0 0 1-.348.49zm-23.9-88.75a.179.179 0 0 1-.135.18.192.192 0 0 1-.162-.05.476.476 0 0 1-.106-.53.223.223 0 0 1 .14-.1.181.181 0 0 1 .151.07.752.752 0 0 1 .117.43zm54.55-27.92a.155.155 0 0 1 .065-.1.1.1 0 0 1 .086.05c.1.32.194.63.286.95a.111.111 0 0 1-.067.15.1.1 0 0 1-.094-.05 3.242 3.242 0 0 1-.271-1zM66.023 50.87a.559.559 0 0 1-.049.15.646.646 0 0 1-.334.26.248.248 0 0 1-.166-.03.151.151 0 0 1-.01-.18.892.892 0 0 1 .333-.36.159.159 0 0 1 .231.16zm44.022-24.11c-.008.06-.013.15-.029.24a.252.252 0 0 1-.184.23c-.1.02-.176-.13-.145-.31.025-.12.065-.25.1-.38a.108.108 0 0 1 .14-.08.281.281 0 0 1 .1.15.642.642 0 0 1 .023.15zM70.864 28.3c.149-.35.236-.42.471-.3a.4.4 0 0 1 .318.28.806.806 0 0 1-.8.02h.006zM52.233 41.96a.225.225 0 0 1 .217.18.45.45 0 0 1-.074.42.158.158 0 0 1-.286-.04.527.527 0 0 1-.056-.37.218.218 0 0 1 .204-.19zm31.668 5.3a.264.264 0 0 1-.176.28.25.25 0 0 1-.241-.24.407.407 0 0 1 .1-.29.142.142 0 0 1 .248.04.942.942 0 0 1 .074.21zm-17.833 60.93c.2-.18.359-.07.51.09a.41.41 0 0 1 .114.46.258.258 0 0 1-.119.14.1.1 0 0 1-.123-.11.544.544 0 0 0-.382-.57v-.01zm43.97-86.8a1.2 1.2 0 0 1-.031.17c-.029.13-.136.22-.2.18a.252.252 0 0 1-.089-.29.775.775 0 0 1 .082-.24.176.176 0 0 1 .135-.09c.1 0 .1.1.108.19a.515.515 0 0 1 0 .08zM48.764 53.05a.222.222 0 0 1-.218.25.225.225 0 0 1-.223-.18.274.274 0 0 1 .257-.29.205.205 0 0 1 .189.22zm17.3 55.15a.638.638 0 0 1-.627.22.112.112 0 0 1-.056-.09.148.148 0 0 1 .059-.1.66.66 0 0 1 .624-.04v.01zm7.342-39.46a.263.263 0 0 1-.236.3.1.1 0 0 1-.061-.01.466.466 0 0 1-.057-.18.257.257 0 0 1 .172-.24.133.133 0 0 1 .156.07.311.311 0 0 1 .035.06zm-6.827-5.46a.3.3 0 0 1 .3.14.158.158 0 0 1 .008.18.2.2 0 0 1-.095.06.285.285 0 0 1-.309-.23.118.118 0 0 1 .105-.15zM49.811 48.75a.136.136 0 0 1-.1.13.206.206 0 0 1-.23-.22.139.139 0 0 1 .122-.18.249.249 0 0 1 .217.27zm3.6-10.92a.139.139 0 0 1-.11.14.5.5 0 0 1-.171-.03.2.2 0 0 1-.1-.27.189.189 0 0 1 .265-.05.253.253 0 0 1 .123.21zM.119 79.62a.115.115 0 0 1-.128-.13.737.737 0 0 1 .1-.23.16.16 0 0 1 .2-.05.19.19 0 0 1-.017.28.83.83 0 0 1-.148.13zm46.422-26.29a.23.23 0 0 1 .178.21.148.148 0 0 1-.135.17.257.257 0 0 1-.232-.25c.007-.07.048-.11.196-.13zm22.238 58.41a.22.22 0 0 1 .2.2.235.235 0 0 1-.147.26.157.157 0 0 1-.1-.05 1.589 1.589 0 0 1-.035-.32.229.229 0 0 1 .089-.09zM51.947 37.76a.27.27 0 0 1-.224.32.1.1 0 0 1-.093-.06.275.275 0 0 1 .243-.35.3.3 0 0 1 .081.09zm26.035 48.96c.016.01.032.01.045.02a.1.1 0 0 1 .024.06.179.179 0 0 1-.053.1.485.485 0 0 1-.3.27.057.057 0 0 1-.034-.05.446.446 0 0 1 .325-.4zM65.643 53.46c0-.04-.035.04-.1.09a.15.15 0 0 1-.113.02.119.119 0 0 1-.086-.14.551.551 0 0 1 .063-.18.139.139 0 0 1 .1-.05c.072.01.116.05.143.26zm42.084-21.85c.006.09-.012.19-.106.19a.125.125 0 0 1-.15-.14.146.146 0 0 1 .142-.17.113.113 0 0 1 .121.12zm-91.5 37.34a.155.155 0 0 1-.251.02.125.125 0 0 1-.013-.17.145.145 0 0 1 .21-.01.121.121 0 0 1 .06.16zm46.323 43.86a.155.155 0 0 1-.165.14.134.134 0 0 1-.1-.18c.018-.1.069-.16.155-.14a.145.145 0 0 1 .116.18zm2.844-58.75a.133.133 0 0 1-.157.13.153.153 0 0 1-.086-.2.111.111 0 0 1 .12-.11.146.146 0 0 1 .129.18zm44.254-31.35a.4.4 0 0 1-.041.12.189.189 0 0 1-.1.05.386.386 0 0 1-.063-.17.293.293 0 0 1 .076-.16.124.124 0 0 1 .1.04.342.342 0 0 1 .034.12zm-.206.69a.2.2 0 0 1-.164.2c-.066.02-.1-.05-.1-.12a.214.214 0 0 1 .165-.23c.07-.01.105.05.105.15zm-55.43 1.84a.2.2 0 0 1-.1-.26.1.1 0 0 1 .093-.05.2.2 0 0 1 .107.26.193.193 0 0 1-.094.05zm14.667 39.89a.131.131 0 0 1-.163-.12c0-.1.1-.1.171-.1a.27.27 0 0 1 .135.09c.045.05-.042.13-.137.13zm2.778-.24a.239.239 0 0 1 .014.24.148.148 0 0 1-.211.03.179.179 0 0 1-.1-.2c.024-.1.112-.09.188-.09a.465.465 0 0 0 .111.02zm-1.891 48.34a.172.172 0 0 1-.239.13.151.151 0 0 1-.049-.11.174.174 0 0 1 .242-.12.222.222 0 0 1 .052.1zm1.1-.53a.078.078 0 0 1-.031.05.344.344 0 0 1-.366-.11.119.119 0 0 1 .028-.09.247.247 0 0 1 .354.09.126.126 0 0 1 .025.06zM49.249 51.34c-.014.07-.055.13-.115.11a.167.167 0 0 1-.1-.2c0-.08.042-.12.113-.1a.159.159 0 0 1 .112.19zm18.665 59.07a.182.182 0 0 1-.079.07.334.334 0 0 1-.148-.33.082.082 0 0 1 .1-.01.342.342 0 0 1 .137.27zM53.679 32.79a.12.12 0 0 1 .113.12.092.092 0 0 1-.111.11.108.108 0 0 1-.112-.11.106.106 0 0 1 .12-.12zm24.468 84.58a.161.161 0 0 1-.225.12.141.141 0 0 1-.042-.11.148.148 0 0 1 .223-.11.178.178 0 0 1 .054.1zM44.254 40.8a.11.11 0 0 1-.124-.08.127.127 0 0 1 .144-.15.1.1 0 0 1 .1.12.121.121 0 0 1-.11.11zm20.3 29.12a.222.222 0 0 1-.147.18.075.075 0 0 1-.048-.02.179.179 0 0 1 .077-.22.168.168 0 0 1 .1 0 .1.1 0 0 1 .024.06zm-58.18 7.03a.15.15 0 0 1-.141.16.1.1 0 0 1-.069-.14.138.138 0 0 1 .163-.12.2.2 0 0 1 .053.1zM72.151 31.2a.106.106 0 0 1-.082.14.1.1 0 0 1-.142-.06.1.1 0 0 1 .082-.13.1.1 0 0 1 .148.05zm-6.923 46.17c-.115.02-.23.04-.34.05a.181.181 0 0 1-.094-.04.246.246 0 0 1 .053-.11c.142-.06.292-.14.386.09zm-.373 3.89a.113.113 0 0 1 .079-.13.077.077 0 0 1 .113.08.143.143 0 0 1-.05.1.085.085 0 0 1-.136-.05zm-29.25 20.11c.074.01.135.02.121.11a.144.144 0 0 1-.08.06.452.452 0 0 1-.164 0 .175.175 0 0 1-.054-.1.151.151 0 0 1 .034-.04c.059-.01.113-.02.149-.03zm32.5 9.95a.172.172 0 0 1 .126.18.08.08 0 0 1-.066.07.147.147 0 0 1-.123-.17.138.138 0 0 1 .067-.08zM52.176 29.76c-.1.03-.21.15-.287-.04a.107.107 0 0 1 .016-.06c.142-.13.2.02.265.11zm56.9-4.39a.122.122 0 0 1-.094.14.1.1 0 0 1-.071-.07.106.106 0 0 1 .094-.13.189.189 0 0 1 .074.06zm-1.267-.09c-.02-.04-.036-.07-.053-.1a.25.25 0 0 1 .1-.05.21.21 0 0 1 .049.1c-.03.01-.067.04-.093.05zm-41.59 37.35a.2.2 0 0 1-.078.07.07.07 0 0 1-.085-.1.115.115 0 0 1 .085-.04.161.161 0 0 1 .081.07zM6.804 77.16a.237.237 0 0 1-.033.06.192.192 0 0 1-.171-.16.055.055 0 0 1 .061-.08.19.19 0 0 1 .146.18zm60.421 32.68c.014-.05.035-.12.1-.09a.129.129 0 0 1 .036.1c-.006.06-.029.13-.1.1a.233.233 0 0 1-.033-.11zm8.6 5.7a.147.147 0 0 1-.184.12.055.055 0 0 1-.042-.09.433.433 0 0 1 .148-.09.054.054 0 0 1 .081.06zm2.542 3.07a.138.138 0 0 1 .075.15.083.083 0 0 1-.075.06.108.108 0 0 1-.078-.14.169.169 0 0 1 .081-.07z" fill="#ef5b5b" fill-rule="evenodd"/></svg>