<svg xmlns="http://www.w3.org/2000/svg" width="98.88" height="123.88"><path d="M81.79 74.84a3.237 3.237 0 0 1 .28 2.04 6.128 6.128 0 0 0 .67 3.42 2.013 2.013 0 0 0 .63.76 1.248 1.248 0 0 1 .3 1.44 4.2 4.2 0 0 0-.24 2.19 23.706 23.706 0 0 0 .22 3.15 2.758 2.758 0 0 1-.38 1.9 11.549 11.549 0 0 1-1.16 1.67 3.437 3.437 0 0 1-1.49 1.02 5.051 5.051 0 0 0-2.8 2.1 23.658 23.658 0 0 1-1.9 1.98 5.974 5.974 0 0 1-.44.43 1.177 1.177 0 0 0-.22 1.22c.06.17.16.31.21.48.49 1.44 1.05 2.86.62 4.46a1.825 1.825 0 0 0-.03.66 1.757 1.757 0 0 1-1.04 1.87 5.761 5.761 0 0 1-1 .39 4.41 4.41 0 0 0-1.45.88c-.32.29-.35.44-.14 1a1.854 1.854 0 0 1 .06 1.04c-.19.94-.41 1.88-.63 2.82a1.609 1.609 0 0 1-.68 1.04 3.684 3.684 0 0 0-1.29 1.68c-.15.31-.27.64-.44.94a10.282 10.282 0 0 1-.9 1.55c-.84 1.1-1.74 2.16-2.62 3.23a8.186 8.186 0 0 1-1.59 1.36 1.758 1.758 0 0 1-.87.39 1.788 1.788 0 0 0-1.42.54c-.76.12-1.47.66-2.28.24a1.516 1.516 0 0 0-1.05-.08 1.385 1.385 0 0 1-.7.01 1.33 1.33 0 0 0-1.23.31.964.964 0 0 1-.41.24 8.638 8.638 0 0 0-2.53.64 1 1 0 0 1-.69-.08c-.56-.19-.93-.84-1.56-.86a.466.466 0 0 1-.15-.33 2.858 2.858 0 0 0-.42-1.35 1.366 1.366 0 0 1-.02-1.48 1.671 1.671 0 0 0-.07-1.75 21.006 21.006 0 0 1-1.58-3.83 5.739 5.739 0 0 0-1.27-2.21 5.148 5.148 0 0 1-1.45-3.09 24.342 24.342 0 0 1-.45-2.86 1.053 1.053 0 0 0-.09-.38 5.831 5.831 0 0 1-.36-2.59 4.29 4.29 0 0 0-.64-2.48 16.616 16.616 0 0 1-1.38-2.92 10.409 10.409 0 0 0-1.38-2.62 3.342 3.342 0 0 1-.61-1.95 9.278 9.278 0 0 1 .45-3.77 8.673 8.673 0 0 0 .32-1.4 5.393 5.393 0 0 1 1.55-3.18 1.692 1.692 0 0 0 .51-1.02l.18-1.18a1.725 1.725 0 0 0-.25-1.25 3.117 3.117 0 0 1-.49-2.61 1.106 1.106 0 0 0 0-.65 12.2 12.2 0 0 0-.77-2.35 4.875 4.875 0 0 1-.67-1.82 5.5 5.5 0 0 0-1.2-2.53c-.83-1.06-1.84-1.93-2.61-3.05a7.756 7.756 0 0 1-.81-1.6 1.372 1.372 0 0 1 .1-1.37 3.517 3.517 0 0 0 .48-1.88 18.687 18.687 0 0 1 .45-2.71c.04-.22.08-.43.1-.65a1.9 1.9 0 0 0-.51-1.55c-.72-.8-1.47-1.42-2.6-1.11-.41.11-.85.18-1.27.29a1.38 1.38 0 0 1-1.87-1.08 4.75 4.75 0 0 0-.75-1.49 1.385 1.385 0 0 0-1.03-.59 7.45 7.45 0 0 0-4.38.77.512.512 0 0 1-.21.1c-1.31.2-2.41 1.05-3.65 1.49a1.418 1.418 0 0 1-1.03.07c-.19-.07-.38-.13-.57-.19a7.028 7.028 0 0 0-5.55.48 2.52 2.52 0 0 1-2.37.05 6.3 6.3 0 0 1-2.38-1.66 3.542 3.542 0 0 0-1.13-.95 1.759 1.759 0 0 1-.49-.37 4.671 4.671 0 0 0-2.1-1.45.614.614 0 0 1-.38-.26 5.08 5.08 0 0 1-.85-1.86 2.651 2.651 0 0 0-.99-1.89c-.48-.42-.75-1.03-1.2-1.43a3.672 3.672 0 0 1-1.05-1.4.635.635 0 0 0-.52-.26l-.05-.05c-.13-.1-.26-.2-.38-.3-.94-.78-.95-.81-.96-2.07a3.141 3.141 0 0 0-.01-1.43 11.113 11.113 0 0 0-.77-1.1.379.379 0 0 1 .09-.4 3.587 3.587 0 0 0 1.16-2.37 7.464 7.464 0 0 1 .39-1.38 4.364 4.364 0 0 0-.11-3.33.883.883 0 0 1-.05-.76 1.641 1.641 0 0 0-.31-1.82 2.064 2.064 0 0 1-.17-2.54c.35-.68.69-1.38.98-2.1a5.359 5.359 0 0 1 .78-1.48 6.212 6.212 0 0 0 1.24-2.66 2.35 2.35 0 0 1 1-1.57 2.4 2.4 0 0 0 .91-1.34 1.776 1.776 0 0 1 1.38-1.3 3.022 3.022 0 0 0 1.74-1.04 5.859 5.859 0 0 1 .67-.54 4.232 4.232 0 0 0 1.12-1.51 1.865 1.865 0 0 0 .17-1.27 3.628 3.628 0 0 1 .49-2.77 7.3 7.3 0 0 0 .43-.94 3.587 3.587 0 0 1 1.77-2.04c.1-.05.21-.12.32-.17a3.789 3.789 0 0 0 2.12-2.66c.13-.42.27-.83.43-1.23.21-.54.82-.85 1.22-.24a1.823 1.823 0 0 0 1.78.82 6.574 6.574 0 0 1 2.11.19 1.428 1.428 0 0 0 1.61-.55 1.7 1.7 0 0 1 .86-.69 5.682 5.682 0 0 0 1.79-.97 3.226 3.226 0 0 1 1.91-.64 5.261 5.261 0 0 0 1.5-.3 14.463 14.463 0 0 1 1.98-.4 1.69 1.69 0 0 1 1.03.21 1.126 1.126 0 0 0 1.15-.04 3.975 3.975 0 0 1 2.64-.3 3.152 3.152 0 0 0 2.06-.37 2.976 2.976 0 0 1 .44-.21.952.952 0 0 1 1.19.28.7.7 0 0 0 .91.35c.3-.1.49.29.33.61a4.4 4.4 0 0 1-.36.52.831.831 0 0 0-.01 1.26 1.787 1.787 0 0 1-.26 2.54c-.23.24-.48.45-.7.7a.483.483 0 0 0-.08.6.353.353 0 0 0 .41.19c.42-.2.67-.11.82.39a1.159 1.159 0 0 0 .69.68 3.165 3.165 0 0 0 2.26.56 2.647 2.647 0 0 1 1.6.39c.29.13.57.31.86.43a1.462 1.462 0 0 1 .88.99 1.667 1.667 0 0 0 1.62 1.28 4.626 4.626 0 0 1 2.71 1.21c.06.06.12.12.18.17a.906.906 0 0 0 1.1.2 1.479 1.479 0 0 0 .84-1.33c.01-.35-.06-.7-.08-1.05a1.76 1.76 0 0 1 .62-1.49 2.789 2.789 0 0 1 4.09.05 3.689 3.689 0 0 0 1.72.81 2.455 2.455 0 0 1 1.3.57.888.888 0 0 0 .67.19 7.887 7.887 0 0 1 2.77.61c.59.25 1.21.4 1.81.61a.9.9 0 0 0 .8-.09 3.544 3.544 0 0 0 .51-.35 3.5 3.5 0 0 1 2.72-.62 1.228 1.228 0 0 1 .67.23 2.71 2.71 0 0 0 2.26.47c.66-.1.75-.03.98.61.1.29.16.59.28.87a5.559 5.559 0 0 1-.01 4.11c-.17.48-.36.75-.86.63a.265.265 0 0 0-.31.38 24.353 24.353 0 0 0 2.61 5.89 1.126 1.126 0 0 1 .23.97 1.516 1.516 0 0 0 .65 1.68 4.44 4.44 0 0 1 1.67 3.61 12.874 12.874 0 0 0 .16 2.23 1.49 1.49 0 0 0 .65 1.05 3.8 3.8 0 0 1 1.77 2.81 5.171 5.171 0 0 0 .59 1.99c.18.26.34.27.56-.01a1.2 1.2 0 0 1 .12-.22c.12-.14.3-.08.37.11a.866.866 0 0 1 .07.63.681.681 0 0 0 .36.87 3.937 3.937 0 0 0 .61.39 3.137 3.137 0 0 1 1.01.88c.59.71 1.23 1.38 1.84 2.06a5.43 5.43 0 0 1 .49.57 1.091 1.091 0 0 1 .18 1.11.76.76 0 0 0 .2.93 4.614 4.614 0 0 1 .44.62 1.473 1.473 0 0 0 1.89.66 3.11 3.11 0 0 1 1.96-.3.822.822 0 0 0 .66-.22 2.639 2.639 0 0 1 1.11-.42c.97-.16 1.94-.38 2.91-.57a2.8 2.8 0 0 0 .99-.42 1.139 1.139 0 0 1 .44-.18.616.616 0 0 1 .68.57c.03.35.02.7.04 1.05a1.693 1.693 0 0 1-.29 1.48.677.677 0 0 0-.13.36 7.32 7.32 0 0 1-1.06 2.63c-.52 1.03-.96 2.11-1.42 3.18a3.778 3.778 0 0 1-.34.84c-1.11 1.37-1.82 3.1-3.16 4.25a3.707 3.707 0 0 0-.55.69 3 3 0 0 1-1.2 1.05 10.151 10.151 0 0 0-3.09 2.61 22.573 22.573 0 0 0-1.5 1.86 29.425 29.425 0 0 1-2.31 2.65 2.52 2.52 0 0 0-.6.96 16.261 16.261 0 0 1-1.13 2.47 7.442 7.442 0 0 0-.66 1.98.674.674 0 0 0 .4.84zm-10.78-7.42c-.06.55.04.65.62.77a5.051 5.051 0 0 1 .55.18 1.284 1.284 0 0 0 .7.05.329.329 0 0 0 .33-.3 1.65 1.65 0 0 1 .51-1.26 3.844 3.844 0 0 0 .47-1.19.96.96 0 0 0-1.02-1.31 9.1 9.1 0 0 0-1.15.26 1.166 1.166 0 0 0-.87 1.1c-.04.57-.09 1.13-.14 1.7zm3.26 16.87a17 17 0 0 0 .81 2.75.091.091 0 0 0 .1.04.329.329 0 0 0 .14-.15 7.092 7.092 0 0 1-.16-2.97 2.125 2.125 0 0 0-.09-1.51 3.194 3.194 0 0 1-.17-.89 2.352 2.352 0 0 0-.31-.98.372.372 0 0 0-.28-.17.189.189 0 0 0-.1.29 6.069 6.069 0 0 1 .21 2.84 7.534 7.534 0 0 1-.15.75zm-6.95-13.47c.18.74-.24 1.45.03 2.18a6.153 6.153 0 0 1 .24 1.28 4.927 4.927 0 0 0 .27 1 1.36 1.36 0 0 0 .75.79.246.246 0 0 0 .22-.02.3.3 0 0 0 .03-.35 2.5 2.5 0 0 0-.29-.41 1.569 1.569 0 0 1-.57-1.48 3 3 0 0 0-.09-1.03 6 6 0 0 0-.59-1.96zM44.9 42.72a1.2 1.2 0 0 0 .43 1.13.955.955 0 0 0 .96-.28.372.372 0 0 0 .19-.43.435.435 0 0 0-.24-.24 2.218 2.218 0 0 1-1.07-.46c-.12-.1-.28.07-.27.28zm27.23-27.16c.33 1.13.33 1.13.75 1.44a2.169 2.169 0 0 0-.75-1.44zm15.09 85.47a3.01 3.01 0 0 1 .41-1.62c.35-.64.65-1.32.98-1.97a1.916 1.916 0 0 0 .14-1.52 14.64 14.64 0 0 1-.44-2.45 2.066 2.066 0 0 1 .16-1.28c.12-.28.24-.55.34-.84a1.077 1.077 0 0 1 .64-.72 6.285 6.285 0 0 1 1.2-.53c1.07-.16 1.67-1.03 2.4-1.72a3.1 3.1 0 0 0 .77-1.45.854.854 0 0 1 .44-.57 1.474 1.474 0 0 0 .84-1.33 1.068 1.068 0 0 1 .03-.25c.16-.59.59-.75.99-.36a2.817 2.817 0 0 1 .82 1.56 23.181 23.181 0 0 0 .63 3.09 1.3 1.3 0 0 1-.03.78.413.413 0 0 1-.4.4c-.39-.08-.5.07-.45.48a2.61 2.61 0 0 1-.02.79c-.53 2.06-.89 4.18-1.5 6.23a52.67 52.67 0 0 0-1.55 5.96 8.559 8.559 0 0 1-.35 1.12 1.8 1.8 0 0 1-1.44 1.39 4.576 4.576 0 0 0-1.09.49 1.166 1.166 0 0 1-1.24-.1 3.335 3.335 0 0 1-1.77-3.03 3.024 3.024 0 0 0-.31-1.4 2.356 2.356 0 0 1-.2-1.15z" fill="#ef5b5b" fill-rule="evenodd"/></svg>