<svg xmlns="http://www.w3.org/2000/svg" width="133.94" height="143.94"><path d="M41.29 46.48a.914.914 0 0 0-.33-.37.546.546 0 0 0-.75-.05 1.288 1.288 0 0 1-1.1.09.29.29 0 0 1-.23-.31 4.2 4.2 0 0 0-.22-1.32.748.748 0 0 1 .03-.44 10.107 10.107 0 0 1 .35-1.19 1.39 1.39 0 0 0-.02-1.42.5.5 0 0 1-.11-.27 2.515 2.515 0 0 0-.52-1.19.6.6 0 0 1-.06-.69.967.967 0 0 0 .12-.35 1.074 1.074 0 0 1 .47-.69l.29-.2a1.354 1.354 0 0 0 .54-1.61l-.09-.35a.729.729 0 0 1 .02-.44.6.6 0 0 1 .54.56 4.05 4.05 0 0 1 .09 1.55c-.04.25-.08.49-.13.74a1.039 1.039 0 0 0 .03.58.97.97 0 0 1 .02.73.277.277 0 0 0 .15.36 2.675 2.675 0 0 0 .57.22 4.556 4.556 0 0 0 .53.13.97.97 0 0 1 .87.57.643.643 0 0 0-.31-.78 2.817 2.817 0 0 1-.9-.63 1.569 1.569 0 0 1-.41-1.15.245.245 0 0 1 .11-.17.213.213 0 0 1 .19.01 1.158 1.158 0 0 1 .23.26c.27.44.34.29.65.1a1.178 1.178 0 0 0 .22-.17.277.277 0 0 0-.01-.44.384.384 0 0 1-.24-.46c.04-.13-.05-.15-.14-.2-.26-.14-.3-.25-.17-.49a1.567 1.567 0 0 1 .2-.3.421.421 0 0 1 .77.1.466.466 0 0 0 .5.36 1.285 1.285 0 0 1 .97.43 5.03 5.03 0 0 1 .96 1.04.789.789 0 0 0 .98.42 1.092 1.092 0 0 1 .4-.04.384.384 0 0 1 .27.45 1.293 1.293 0 0 1-.43.81.7.7 0 0 0-.29.64c.02.37.01.75 0 1.12a.714.714 0 0 0 .13.41 4.045 4.045 0 0 1 .2.48c.07.16-.09.47.15.5a.824.824 0 0 0 .32-.42 1.05 1.05 0 0 0 .24-.97 2.275 2.275 0 0 0-.22-.85 1.4 1.4 0 0 1-.02-1.23c.04-.11.09-.22.13-.34a.667.667 0 0 0-.23-.79 1.681 1.681 0 0 1-.84-1.11.466.466 0 0 0-.3-.28c-.12-.06-.25-.09-.38-.14a.694.694 0 0 1-.43-.53 2.014 2.014 0 0 1-.06-.88 1.114 1.114 0 0 0-.17-.92 1.548 1.548 0 0 1 .03-1.42.5.5 0 0 1 .33-.25 3.132 3.132 0 0 1 1.32-.21 2.671 2.671 0 0 0 1.05-.14 2.34 2.34 0 0 1 .86-.16.7.7 0 0 0 .38-.13 4.373 4.373 0 0 1 .49-.23.7.7 0 0 0 .47-.71.527.527 0 0 0-.23-.51 1.229 1.229 0 0 1-.53-.55 1.336 1.336 0 0 0-.31-.26.2.2 0 0 1 .03-.35.379.379 0 0 0 .29-.41c.06-.33.18-.36.48-.25a.3.3 0 0 0 .45-.16.782.782 0 0 0 .1-.89c-.05-.05.01-.13.08-.16a.168.168 0 0 1 .13-.04.787.787 0 0 0 .84-.46 3.276 3.276 0 0 1 .43-.48.342.342 0 0 1 .14-.15c.64-.13 1.05-.84 1.74-.83a14.238 14.238 0 0 0 1.56-.65c.16-.1.16-.21.02-.34-.03-.03-.08-.04-.12-.08-.13-.12-.11-.29.05-.33a5.628 5.628 0 0 1 1.56-.32 1.257 1.257 0 0 0 .33-.05c.15-.04.15-.14.08-.28a.188.188 0 0 1 .13-.28 1.5 1.5 0 0 1 .73.01.256.256 0 0 1 .08.37c-.08.09-.18.15-.25.24a.29.29 0 0 0 .07.48 1.333 1.333 0 0 0 .86.01.5.5 0 0 0 .19-.19 5.888 5.888 0 0 1 .5-.6.423.423 0 0 1 .67-.02c.09.07.16.17.25.24.07.06.15.14.23.04a.322.322 0 0 0 .03-.35 1.493 1.493 0 0 0-.27-.23 1.072 1.072 0 0 1-.3-.39.191.191 0 0 1 .15-.31c.15 0 .31.02.46.02a2.469 2.469 0 0 0 .54-.05.73.73 0 0 0 .5-.97 1.2 1.2 0 0 1 .04-.93 4.46 4.46 0 0 1 .46-.99c.26-.4.53-.81.77-1.23a1.989 1.989 0 0 1 1.14-.85.582.582 0 0 1 .62.22 1.088 1.088 0 0 0 .74.44.381.381 0 0 1 .24.32.557.557 0 0 1-.18.71 4.936 4.936 0 0 0-.53.58.561.561 0 0 0-.17.38.145.145 0 0 0 .12.03 1.5 1.5 0 0 1 1.53.11.638.638 0 0 1 .29 1.02c-.23.35-.38.72-.6 1.08a.682.682 0 0 0 .97-.26 2.207 2.207 0 0 0 .12-.27c.18-.4.18-.4.59-.36a1.352 1.352 0 0 0 .4-.03.672.672 0 0 1 .52.04.528.528 0 0 0 .39.02 1.143 1.143 0 0 1 1.28.43.618.618 0 0 0 .24.13l.01.01a.867.867 0 0 0 .24.53 1.206 1.206 0 0 1 .33.78c.03.23.11.33.32.14.07-.07.17 0 .21.09a.788.788 0 0 1 .1.28 1.119 1.119 0 0 0 .14.49.959.959 0 0 1 .1.99 1.187 1.187 0 0 0-.01.79 1.264 1.264 0 0 1-.1.87 3.517 3.517 0 0 1-.77 1.22 3.239 3.239 0 0 0-.62.66.672.672 0 0 1-.29.17 3.013 3.013 0 0 0-1.28 1.38 1.168 1.168 0 0 1-.44.56 1.744 1.744 0 0 0-.64.84 2.494 2.494 0 0 1-.16.33.56.56 0 0 1-.53.39.639.639 0 0 0-.66.5.8.8 0 0 1-.39.5.92.92 0 0 0-.45.61c-.11.3-.12.47-.02.44a.362.362 0 0 0 .2-.36.355.355 0 0 1 .37-.34 2.813 2.813 0 0 0 1.54-.44 1.191 1.191 0 0 0 .5-.36.232.232 0 0 1 .16-.12.4.4 0 0 0 .32-.04 3.629 3.629 0 0 0 .7-.71c-.2.07-.4.15-.6.21a.225.225 0 0 1-.3-.2 1.022 1.022 0 0 1 .35-.97.455.455 0 0 1 .39-.05.8.8 0 0 0 .53 0c.27-.08.29-.05.28.27a.58.58 0 0 0 .52.71c.36.05.51-.08.61-.5a.43.43 0 0 1 .08-.27 1.824 1.824 0 0 1 .43 1.41.621.621 0 0 0 .04.5.108.108 0 0 0 .11.06.217.217 0 0 0 .09-.08.082.082 0 0 0 .01-.07c.01-.53.06-.63.49-.64a1.416 1.416 0 0 0 .83-.24.781.781 0 0 1 .71-.07c.2.07.39.13.59.18a3.04 3.04 0 0 0 .99.18 1.933 1.933 0 0 1 .46.08.187.187 0 0 1 .1.29c-.04.09-.11.16-.14.25a.509.509 0 0 0 .16.65 1.329 1.329 0 0 0 .41.25 4.633 4.633 0 0 0 2.63.24 1.089 1.089 0 0 0 .25-.1.46.46 0 0 0 .32-.57 1.419 1.419 0 0 0-.05-.22 2.2 2.2 0 0 1 .05-1.11c.03-.12.04-.32.14-.31.25.04.32-.31.53-.26a1.167 1.167 0 0 1 .76.26 3.293 3.293 0 0 0 1.23.72.42.42 0 0 0 .33 0 1.137 1.137 0 0 1 1.31.48c.22.31.46.61.68.92a.686.686 0 0 1 .12.56 3.094 3.094 0 0 0 .04 1.48 1.073 1.073 0 0 1-.2 1.04c-.07.08-.14.14-.2.21a.649.649 0 0 0-.04.88 3.307 3.307 0 0 1 .4.85 3.447 3.447 0 0 0 .68 1.1.952.952 0 0 0 .48.24c.14.06.12.4.33.27a.953.953 0 0 0 .22-.45 3.082 3.082 0 0 0 .36-1.35 3.437 3.437 0 0 1 .44-1.32.116.116 0 0 1 .21.02 4.774 4.774 0 0 0 .48.99.68.68 0 0 0 .69.36.423.423 0 0 0 .4-.21.668.668 0 0 1 1-.26.659.659 0 0 0 .7.06.876.876 0 0 1 .53-.05 3 3 0 0 0 .6-.01.47.47 0 0 1 .67.26c.09.21.29.04.43.01.23-.05.26-.1.21-.36a2.689 2.689 0 0 1 .1-1.59.249.249 0 0 0-.12-.08c-.17-.03-.39.08-.45-.2a.621.621 0 0 1 .46-.7c.18-.02.36-.01.53-.04.29-.04.37-.17.35-.51a1.914 1.914 0 0 1-.04-.21.264.264 0 0 1 .29-.26.417.417 0 0 1 .18.08 1.907 1.907 0 0 0 1.22.34h.33a5.351 5.351 0 0 1 2.45.69 1.783 1.783 0 0 0 1.15.3 2.012 2.012 0 0 1 1.35.33 1.2 1.2 0 0 1 .55.89.324.324 0 0 1-.33.42.582.582 0 0 0-.19.03.149.149 0 0 0-.1.17.188.188 0 0 0 .08.11.185.185 0 0 0 .12.05.972.972 0 0 1 .77.4.718.718 0 0 0 .71.33.421.421 0 0 1 .41.2c.08.09.15.18.23.27a.52.52 0 0 1 .08.73.163.163 0 0 0 .04.25.589.589 0 0 0 .63.13 4.91 4.91 0 0 1 1.65-.26c.42-.02.85-.06 1.27-.12a4.5 4.5 0 0 1 1.27.05 1.311 1.311 0 0 1 1.05.71c.13.23.27.46.38.7a1.406 1.406 0 0 1 .05 1.03 2.925 2.925 0 0 0-.13.42.307.307 0 0 0 .17.42 2.7 2.7 0 0 1 1.04.67.225.225 0 0 0 .36 0 1.652 1.652 0 0 1 1.4-.55 1.5 1.5 0 0 0 .2-.02.361.361 0 0 1 .42.15.6.6 0 0 0 .72.23.955.955 0 0 1 .72.09.728.728 0 0 0 1.07-.27.712.712 0 0 1 .44-.32c.06.07.11.13.17.19.07.34.13.68.19 1.02a.385.385 0 0 0 .21.28 1.83 1.83 0 0 1 .82.85.358.358 0 0 0 .58.09 1.18 1.18 0 0 0 .22-1.65.517.517 0 0 1-.14-.84.882.882 0 0 0 .02-.29.38.38 0 0 1 .37-.36 1.755 1.755 0 0 1 .46.05 4.031 4.031 0 0 1 .46.14 6.252 6.252 0 0 0 2.58.25 1.485 1.485 0 0 1 1.07.3 16.753 16.753 0 0 0 1.53.92 3.52 3.52 0 0 1 1.03.82 2.71 2.71 0 0 0 .86.7 1.318 1.318 0 0 1 .6.57 2.557 2.557 0 0 0 .81.76 2.026 2.026 0 0 1 .72.76.5.5 0 0 0 .31.26.314.314 0 0 1 .22.34c0 .12.07.18.17.08.16-.16.29-.08.41.05.15.19.28.39.42.58a.675.675 0 0 1 .1.42 4.678 4.678 0 0 0 .28 1.23c.03.07.09.12.16.07a.174.174 0 0 0 .08-.12.59.59 0 0 0-.14-.54.172.172 0 0 1 .12-.27.938.938 0 0 1 .77.18.486.486 0 0 0 .5.12.722.722 0 0 1 .91.42 6.055 6.055 0 0 0 1.27 1.44c.18.16.18.23-.04.38a.889.889 0 0 0-.42.54.9.9 0 0 1-.62.62 1.171 1.171 0 0 1-.26.04.43.43 0 0 0-.41.5.852.852 0 0 1-.32.76.332.332 0 0 0-.04.47.346.346 0 0 1 .08.4.993.993 0 0 1-.52.45.328.328 0 0 1-.19-.04 1.927 1.927 0 0 1-.72-.52 1 1 0 0 0-.57-.38 1.152 1.152 0 0 1-.83-1.05.875.875 0 0 0-.63-.79.634.634 0 0 0-.52.05.648.648 0 0 1-.59.05.6.6 0 0 1-.4-.35 1.441 1.441 0 0 1-.29-1.03.249.249 0 0 0-.28-.15c-.1.09-.2.2-.3.29a.351.351 0 0 0-.07.4.539.539 0 0 0 .07.13.881.881 0 0 1 .22.61 1.414 1.414 0 0 1-.31.81 4.318 4.318 0 0 1-1.06 1.03.745.745 0 0 1-.62.14 2.744 2.744 0 0 0-.39-.09.216.216 0 0 0-.22.14.328.328 0 0 0 .01.29.588.588 0 0 0 .49.35.343.343 0 0 1 .31.32c.08.34.16.68.25 1.01a2.5 2.5 0 0 0 .26.77.545.545 0 0 1 .1.55.414.414 0 0 0 .12.33.828.828 0 0 1-.36.99.336.336 0 0 1-.26-.01 1.415 1.415 0 0 1-.35-.21 1 1 0 0 0-1.21.05c-.81.57-1.66 1.08-2.5 1.58a3.633 3.633 0 0 0-.88.91 6.473 6.473 0 0 1-1.07 1.03 1.783 1.783 0 0 0-.7.95.188.188 0 0 1-.36.06c-.09-.14-.17-.29-.25-.44a.869.869 0 0 0-.66-.46 1.619 1.619 0 0 0-1.48.52c-.1.09-.19.22-.29.31-.13.12-.23.39-.41.29-.16-.08 0-.32-.02-.49a.2.2 0 0 0-.3-.16 1.082 1.082 0 0 0-.58.59.181.181 0 0 1-.27.13.777.777 0 0 0-.52-.02.585.585 0 0 0-.6.58 3.746 3.746 0 0 1-.68 1.61 3.414 3.414 0 0 0-.44 1.08.212.212 0 0 0 .28.27.817.817 0 0 1 .26-.06.439.439 0 0 1 .36.68c-.03.09-.09.17-.13.26a.9.9 0 0 0 .06 1.04 1.113 1.113 0 0 1 .15.99.262.262 0 0 1-.19.19.2.2 0 0 1-.21-.14c-.05-.11-.09-.22-.14-.35a5.71 5.71 0 0 0-.38.52 1.434 1.434 0 0 0-.16 1.48.5.5 0 0 1 .05.13c.19.49.04.8-.43.79a.944.944 0 0 0-.79.32 1.382 1.382 0 0 0-.45 1.32.318.318 0 0 1-.21.4 3.092 3.092 0 0 0-.42.25 1.094 1.094 0 0 0-.48.85 3.142 3.142 0 0 1-1.17 2.02c-.13.14-.3.07-.37-.14a2.6 2.6 0 0 1-.12-.88 2.731 2.731 0 0 0-.17-1.1 2.561 2.561 0 0 1-.1-.51c-.05-.29-.07-.6-.14-.88a23.113 23.113 0 0 1-.37-2.74 6.323 6.323 0 0 1 .23-2.29 1.033 1.033 0 0 1 .39-.59 1.215 1.215 0 0 0 .49-1.16.279.279 0 0 1 .21-.33 3.315 3.315 0 0 0 1.78-1.49 1.762 1.762 0 0 0 .33-.56 2.286 2.286 0 0 1 .66-1.01 4.743 4.743 0 0 0 .97-1.33.943.943 0 0 1 .43-.45c.14-.07.28-.16.42-.24a1.1 1.1 0 0 0 .73-1.04c.11-.51.2-1.02.29-1.53a.989.989 0 0 1 .47-.77.175.175 0 0 0 .08-.19.193.193 0 0 0-.2-.16.987.987 0 0 0-.92.62 1.845 1.845 0 0 0-.14 1.09c.04.25-.01.33-.24.34a.716.716 0 0 0-.58.3c-.3.34-.6.67-.89 1.03a1.378 1.378 0 0 1-.46.41.185.185 0 0 1-.3-.16.685.685 0 0 0-.01-.21 1.427 1.427 0 0 1-.05-1.4c0-.02-.02-.05-.02-.08a.239.239 0 0 0-.23-.1 2.012 2.012 0 0 0-.59-.32c-.22.04-.43.12-.65.17-.11.03-.22.03-.34.05a1.052 1.052 0 0 0-.85.65c-.16.41-.46.73-.64 1.13a1.935 1.935 0 0 1-.6.7 3.4 3.4 0 0 0-.71 1.17.294.294 0 0 0 .11.33c.12.1.26.19.38.3a.284.284 0 0 1-.05.44 1.019 1.019 0 0 1-.77.17.554.554 0 0 0-.57.1 4.039 4.039 0 0 1-1.15.36.414.414 0 0 1-.48-.18.232.232 0 0 1 .07-.36c.13-.08.38.04.38-.21a.582.582 0 0 0-.6-.46.544.544 0 0 1-.51-.05 1.889 1.889 0 0 0-.25-.11 1.084 1.084 0 0 1-.19-.08c-.36-.19-.59-.13-.74.32-.03.06-.07.13-.1.19a.235.235 0 0 1-.34.14.515.515 0 0 0-.57-.03.6.6 0 0 1-.58-.03.472.472 0 0 0-.61.13.252.252 0 0 1-.42-.01.852.852 0 0 0-.68-.26 6.605 6.605 0 0 0-1.4.16 1.576 1.576 0 0 0-.99.71 6.638 6.638 0 0 1-.82.99.976.976 0 0 0-.25.35 3.922 3.922 0 0 1-.98 1.31 8.4 8.4 0 0 0-1.16 1.54 4.287 4.287 0 0 1-.94 1.17c-.41.34-.78.75-1.16 1.13a.3.3 0 0 0 .04.5.511.511 0 0 0 .37.13c.11-.01.22-.05.33-.05a.25.25 0 0 1 .28.25c.01.12.01.25.01.37.02.14-.08.34.1.38.12.01.11-.2.17-.29a.5.5 0 0 1 .14-.15.17.17 0 0 1 .23.07 2.516 2.516 0 0 1 .02.91 2.424 2.424 0 0 0 .81-.53.06.06 0 0 0 .03-.06c-.03-.51.3-.37.55-.37a.84.84 0 0 1 .87.57 1.211 1.211 0 0 0 .43.56.638.638 0 0 1 .28.81 1.767 1.767 0 0 0 .04.82.113.113 0 0 0 .1.07.147.147 0 0 0 .12-.04 1.561 1.561 0 0 0 .17-.64 4.573 4.573 0 0 0 .05-.52.462.462 0 0 1 .36-.54.3.3 0 0 0 .21-.4c-.03-.17-.08-.34-.11-.51a.209.209 0 0 1 .11-.24.2.2 0 0 1 .28.12 1.121 1.121 0 0 1 .09.36 6.657 6.657 0 0 0 .2 1.17 2.666 2.666 0 0 1 .06 1.19 2.989 2.989 0 0 0 .1 1.33c.26 1.06.51 2.12.76 3.18a1.09 1.09 0 0 1-.01.17.734.734 0 0 1-.5-.08.431.431 0 0 0-.52.35c-.13.45-.22.91-.31 1.38a.948.948 0 0 0 .11.64 4.583 4.583 0 0 0 .49.9.666.666 0 0 1 .17.47.328.328 0 0 1-.06.21c-.09.08-.15-.02-.2-.1a1.127 1.127 0 0 0-.12-.18c-.21-.21-.39-.17-.54.11a.149.149 0 0 0-.03.07.465.465 0 0 1-.29.37c-.12.01-.22-.19-.24-.48 0-.1 0-.2.01-.3.05-.47.09-.95.17-1.42a1.956 1.956 0 0 0-.04-1.02 1.574 1.574 0 0 1-.02-.96 5.16 5.16 0 0 0 .1-1.71 3.381 3.381 0 0 1-.01-.45 1.832 1.832 0 0 0-.26-1.35 2.288 2.288 0 0 1-.19-.56 3.77 3.77 0 0 0-.73 1.62 2.809 2.809 0 0 0-.03.96 2.974 2.974 0 0 1-.08 1.48 1.462 1.462 0 0 0-.09.36 2.216 2.216 0 0 1-.56 1.32 6.62 6.62 0 0 0-1.05 1.9 4.014 4.014 0 0 1-.76 1.31c-.43.57-.86 1.15-1.28 1.73a1.037 1.037 0 0 0-.15.25 3 3 0 0 1-1.05 1.23 1.367 1.367 0 0 1-1.75.15c-.34-.23-.35-.2-.64.08-.24.25-.51.47-.76.72a5.136 5.136 0 0 0-.38.42 1.1 1.1 0 0 0-.28.81.79.79 0 0 1-.31.7 5.762 5.762 0 0 1-1.19.96.515.515 0 0 0-.12.9 10.551 10.551 0 0 1 1.01 1.49 2.18 2.18 0 0 1 .38 1.26c0 .24.03.5.04.74a.987.987 0 0 1-.59 1.05 8.64 8.64 0 0 0-1.21.62 1.735 1.735 0 0 1-.65.17.236.236 0 0 1-.26-.26 2.252 2.252 0 0 1 .18-.94.973.973 0 0 0-.13-1.04 1.739 1.739 0 0 1-.11-.18.21.21 0 0 1 .03-.27c.06-.07.15-.11.21-.18a.332.332 0 0 0 .08-.4.567.567 0 0 0-.64-.51c-.09 0-.18.05-.27.05a.524.524 0 0 1-.44-.73 2.755 2.755 0 0 0 .3-1.06.294.294 0 0 0-.2-.34 2.068 2.068 0 0 0-2.35.57 1.119 1.119 0 0 1-.58.36.117.117 0 0 1-.11-.05.128.128 0 0 1-.02-.13.545.545 0 0 0 .1-.61.418.418 0 0 1 .09-.41 6.489 6.489 0 0 0 .36-.55.481.481 0 0 0-.09-.6.35.35 0 0 0-.5.01 9.871 9.871 0 0 1-1.37 1.3.317.317 0 0 0-.08.12.9.9 0 0 1-.92.62.328.328 0 0 0-.38.21.6.6 0 0 0 .06.63.333.333 0 0 0 .09.11 2.39 2.39 0 0 1 .87 1.01.348.348 0 0 0 .54.07c.14-.11.27-.26.42-.38a.464.464 0 0 1 .61-.09 1.724 1.724 0 0 0 .91.24.314.314 0 0 1 .33.3.368.368 0 0 1-.27.44 3.724 3.724 0 0 0-.64.22.668.668 0 0 0-.48.37c-.14.29-.45.32-.59.59-.09.14-.22.25-.32.39-.32.52-.45.71.16 1.04a1.148 1.148 0 0 1 .5.67 3.974 3.974 0 0 1 .15.49 2.6 2.6 0 0 0 .54 1.19 2.717 2.717 0 0 1 .27.42.154.154 0 0 1-.07.24c-.13.06-.19.15-.09.28a3.212 3.212 0 0 1 .21.3.259.259 0 0 1-.04.33c-.16.13-.32.26-.47.39a.41.41 0 0 0 .27.33.743.743 0 0 1 .26.9c-.09.28-.19.56-.3.83a.917.917 0 0 1-.14.26 9.773 9.773 0 0 0-1.39 2.44 3.229 3.229 0 0 1-.97 1.3.212.212 0 0 0-.07.03 10.109 10.109 0 0 1-1.24 1.21 1.758 1.758 0 0 1-1 .55c-.24.05-.48.11-.72.17a.741.741 0 0 0-.4.25c-.15.16-.17.15-.31-.12-.04-.06-.11-.16-.14-.1a2.459 2.459 0 0 0-.57.45.458.458 0 0 1-.39.26c-.35.11-.69.21-1.04.31-.13.04-.26.09-.38.13a.436.436 0 0 0-.32.5.35.35 0 0 1-.12.45c-.15.08-.34-.07-.46-.34a1.723 1.723 0 0 1-.07-.21c-.05-.15.06-.39-.16-.44a1.217 1.217 0 0 0-.76-.15 2.582 2.582 0 0 0-1.56 1.2 1.863 1.863 0 0 1-.23.26 1.427 1.427 0 0 0-.39.93.491.491 0 0 0 .1.42 10.517 10.517 0 0 0 1.4 1.89 4.1 4.1 0 0 1 .88 1.02 2.054 2.054 0 0 1 .2.39 5.536 5.536 0 0 1 .27 2.43.185.185 0 0 1-.02.07 1.3 1.3 0 0 1-.82 1.47 2.389 2.389 0 0 1-.84.46.566.566 0 0 0-.43.32 2.036 2.036 0 0 1-.7.78c-.08.05-.14.13-.21.18-.14.11-.25.36-.45.22a.651.651 0 0 1-.13-.55c0-.13.01-.25.02-.38a.644.644 0 0 0-.48-.61.132.132 0 0 0-.09.09c-.07.11-.14.1-.22.01a1.7 1.7 0 0 0-.57-.62.52.52 0 0 1-.17-.3 2.389 2.389 0 0 0-.77-1.02.733.733 0 0 0-.49-.2.441.441 0 0 1-.47-.43.515.515 0 0 0-.09-.2.282.282 0 0 0-.46.05.394.394 0 0 0-.05.14 8.522 8.522 0 0 1-.55 2.14 4.428 4.428 0 0 0-.14.58.6.6 0 0 0 .33.73.539.539 0 0 1 .33.42c.11.34.25.65.35.98a1.071 1.071 0 0 0 .61.74 5.161 5.161 0 0 1 1.54 1.3 1.225 1.225 0 0 1 .32.88c0 .17.01.35 0 .53a1.588 1.588 0 0 0 .35 1.24 1.275 1.275 0 0 1 .07.12 1.033 1.033 0 0 1 .07 1.12.337.337 0 0 1-.13.23 8.072 8.072 0 0 0-1.32-.96 3.477 3.477 0 0 1-.94-1.04 4.679 4.679 0 0 1-.67-2.16 1.482 1.482 0 0 0-.22-.7c-.29-.45-.59-.88-.89-1.31a.622.622 0 0 0-.31-.27.392.392 0 0 1-.25-.07.581.581 0 0 1-.06-.35c.02-.22.06-.44.1-.67a3.434 3.434 0 0 0 .08-.96 2.185 2.185 0 0 1 .15-.8.182.182 0 0 0-.16-.26c-.14-.02-.22-.12-.13-.25a1.368 1.368 0 0 0 .03-1.42 7.575 7.575 0 0 1-.63-2.58.72.72 0 0 0-.34-.6.311.311 0 0 0-.43 0c-.27.24-.53.46-.8.7a.793.793 0 0 1-1.05-.02.418.418 0 0 1-.13-.34c.03-.18.06-.39.11-.58a1.777 1.777 0 0 0-.46-1.83.428.428 0 0 1-.19-.3.871.871 0 0 0-.5-.79 2.416 2.416 0 0 1-.89-1.69 1.325 1.325 0 0 0-.28-.75.267.267 0 0 0-.46 0 1.881 1.881 0 0 1-1.42.85 1.8 1.8 0 0 1-.92.03.778.778 0 0 0-.92.65 1.407 1.407 0 0 1-.9 1.19 1.938 1.938 0 0 0-1 .84 9.983 9.983 0 0 1-1.28 1.32.61.61 0 0 1-.15.13 8.712 8.712 0 0 0-.7.8 2.158 2.158 0 0 0-.84.58.677.677 0 0 1-.36.2.651.651 0 0 0-.39.76c.04.41.07.81.14 1.2a1.653 1.653 0 0 1-.07.96 4.279 4.279 0 0 0-.3 1.59.547.547 0 0 1-.26.56.137.137 0 0 0-.11.08 12.318 12.318 0 0 1-1 1.37 1.193 1.193 0 0 1-.21.29.4.4 0 0 1-.65 0 2.064 2.064 0 0 1-.54-.93c-.19-.62-.4-1.22-.61-1.82a1.134 1.134 0 0 0-.21-.39 2.247 2.247 0 0 1-.5-1.12 10.873 10.873 0 0 0-1.01-2.53 3.364 3.364 0 0 1-.39-1.33 2.864 2.864 0 0 0-.09-.51c-.12-.67-.24-1.32-.35-1.99a.543.543 0 0 1 0-.22 2.353 2.353 0 0 0-.07-1.39c-.05-.24-.07-.49-.12-.78a1.035 1.035 0 0 0-.23.56 1.008 1.008 0 0 1-1.41.68 4.078 4.078 0 0 1-1.07-1.22.21.21 0 0 1 .13-.28c.17-.05.35-.08.52-.14a.279.279 0 0 0 .12-.17.124.124 0 0 0-.13-.12.653.653 0 0 0-.14 0 1.018 1.018 0 0 1-1.11-.53.522.522 0 0 1-.08-.11 4.943 4.943 0 0 1-.7-.67 9.048 9.048 0 0 0-.51-.87.542.542 0 0 0-.63-.32c-.22.03-.44.05-.67.09a4.147 4.147 0 0 1-.79.03 4.243 4.243 0 0 0-1.33.08 3.138 3.138 0 0 1-1.33-.01c-.24-.04-.48-.08-.73-.13-.58-.11-1.18-.23-1.77-.36a.738.738 0 0 1-.58-.56 3.618 3.618 0 0 0-.2-.55c-.13-.28-.34-.34-.54-.13a1.488 1.488 0 0 1-1.45.35 2.411 2.411 0 0 1-1.44-.73 2.246 2.246 0 0 0-.73-.51.759.759 0 0 1-.47-.5c-.21-.56-.57-1.01-.82-1.54a.4.4 0 0 0-.43-.29.683.683 0 0 1-.53-.38.407.407 0 0 0-.27.31c-.54.7-.55.61-.19 1.5a4.866 4.866 0 0 0 1.03 1.57 1.332 1.332 0 0 1 .44 1.04.594.594 0 0 0 .13.41.193.193 0 0 0 .34 0c.08-.12.13-.25.22-.37a.212.212 0 0 1 .34.06.73.73 0 0 1 .09.35 5.425 5.425 0 0 1-.04.9.486.486 0 0 0 .48.57 9.731 9.731 0 0 1 1.2-.11 1.19 1.19 0 0 0 .85-.52c.36-.48.75-.92 1.14-1.37a.122.122 0 0 1 .12-.05.311.311 0 0 1 .13.15 4.97 4.97 0 0 1 .01.67 1.325 1.325 0 0 0 .57 1.19 2.209 2.209 0 0 0 .8.39 1.242 1.242 0 0 1 .86.65 1.4 1.4 0 0 0 .26.34.664.664 0 0 1 .14.91 1.362 1.362 0 0 1-.25.44 1.11 1.11 0 0 0-.32.79.256.256 0 0 1-.28.25.563.563 0 0 0-.64.64 1.034 1.034 0 0 0 .02.3.347.347 0 0 1-.24.4 1.048 1.048 0 0 0-.77.74.407.407 0 0 1-.31.26.963.963 0 0 0-.71.62.453.453 0 0 1-.45.28 3.7 3.7 0 0 0-1.29.35.939.939 0 0 0-.62.53 1.27 1.27 0 0 1-.75.71 9.656 9.656 0 0 1-1.26.49 1.26 1.26 0 0 0-.69.41.941.941 0 0 1-.71.38.549.549 0 0 0-.37.14 1.824 1.824 0 0 1-1.01.38 1.656 1.656 0 0 0-.99.4 1.376 1.376 0 0 1-1.02.26.678.678 0 0 1-.72-.64c-.08-.36-.16-.72-.25-1.08a3.332 3.332 0 0 0-.18-.56.78.78 0 0 1-.07-.58 2 2 0 0 0-.52-1.83 4.111 4.111 0 0 1-.75-1.32 1.916 1.916 0 0 0-.93-1.21 1.148 1.148 0 0 1-.67-1.04 4.573 4.573 0 0 1-.05-.52 3.171 3.171 0 0 0-.34-1.43 1.464 1.464 0 0 0-.66-.82 1.157 1.157 0 0 1-.58-.86 2.317 2.317 0 0 0-.36-.8c-.36-.6-.71-1.21-1.06-1.82a1.2 1.2 0 0 0-.28-.41.565.565 0 0 1-.2-.64 2.312 2.312 0 0 0-.11-1.11c-.12-.4-.23-.81-.36-1.21a.786.786 0 0 1 .08-.77 1.946 1.946 0 0 0 .35-.88 5.42 5.42 0 0 1 .62-1.73 2.442 2.442 0 0 0 .36-1.7c-.07-.39.1-.79.03-1.18a1.482 1.482 0 0 0-.46-.03.766.766 0 0 0-.97.25 1.545 1.545 0 0 1-1.07.34.642.642 0 0 1-.47-.27 2.428 2.428 0 0 0-.8-.53.3.3 0 0 0-.45.18.765.765 0 0 1-.69.5.485.485 0 0 1-.44-.15 1.223 1.223 0 0 0-1.16-.42c-.18.02-.25-.06-.13-.25a1.616 1.616 0 0 1-.58-1.1.516.516 0 0 0-.29-.29c-.33-.22-.34-.32-.13-.63a.687.687 0 0 0-.12-1.05.372.372 0 0 1-.14-.5 4.675 4.675 0 0 1 .3-.59.207.207 0 0 1 .29-.11 2.892 2.892 0 0 0 1.24.09.6.6 0 0 0 .47-.26.227.227 0 0 0 .09-.18c.03-.41.03-.42.31-.43a2.414 2.414 0 0 1 .8.07.743.743 0 0 0 .86-.23c.15-.15.33-.26.49-.4a2.122 2.122 0 0 1 1.19-.44c.23-.02.44-.02.67-.03a1.11 1.11 0 0 1 .88.24 7.156 7.156 0 0 0 .92.58 2.208 2.208 0 0 0 1.73.4 3.161 3.161 0 0 1 .87-.03 1.731 1.731 0 0 0 1.36-.83.306.306 0 0 0 .07-.2 1.622 1.622 0 0 0-.58-1.29 2.55 2.55 0 0 1-.68-.46.209.209 0 0 1-.07-.26.247.247 0 0 1 .16-.1 1.25 1.25 0 0 1 .66.11 2.671 2.671 0 0 0 1.23.31 1.254 1.254 0 0 1 .8.36 1.051 1.051 0 0 0 .87.26.909.909 0 0 1 1.1.61.6.6 0 0 0 .31.28 2.224 2.224 0 0 1 .86.7.288.288 0 0 0 .51.01.749.749 0 0 0 .13-.18c.29-.55.41-.33.65.05a2.016 2.016 0 0 1 .18.32 1.316 1.316 0 0 0 .79.85.269.269 0 0 1 .12.17.1.1 0 0 1-.1.13.546.546 0 0 0-.41.45c-.05.2-.08.39-.12.58a.582.582 0 0 1-.23.44.452.452 0 0 0-.23.55c.04.23.05.45.09.67a.647.647 0 0 0 .51.62 1.3 1.3 0 0 1 .8.48 1.3 1.3 0 0 0 1.36.42c.29-.08.57-.15.85-.24.17-.05.38.11.49-.12a.964.964 0 0 0-.06-.58 4.068 4.068 0 0 1-.09-1.04 1.141 1.141 0 0 0-.14-.92 3.323 3.323 0 0 1-.06-.57c-.09-.16-.11-.3-.33-.29-.2.02-.27-.11-.29-.31a1.768 1.768 0 0 1 .15-.83c.21.07.42.14.63.2a.446.446 0 0 0 .39-.01.37.37 0 0 0 .15-.55c-.13-.23-.28-.44-.42-.67-.17-.34-.44-.23-.61-.05a.741.741 0 0 0-.16.41.236.236 0 0 1-.1.16.194.194 0 0 1-.19-.18 1.307 1.307 0 0 1-.1-.8.66.66 0 0 0-.4-.92.953.953 0 0 1-.6-.83 1.445 1.445 0 0 0-.44-.74c-.1-.11-.2-.2-.3-.31a.215.215 0 0 1 .09-.3 1.5 1.5 0 0 1 .2-.02.478.478 0 0 0 .45 0 .871.871 0 0 0 .08-.43.29.29 0 0 1 .22-.25 1.3 1.3 0 0 0 .5-.21.352.352 0 0 1 .26-.05 8.857 8.857 0 0 1 1.44.25.108.108 0 0 0 .06.01.232.232 0 0 0 .22-.3.728.728 0 0 0-.12-.25 3.29 3.29 0 0 1-.77-1.13 1.989 1.989 0 0 0-.23-.36.786.786 0 0 0-.81-.42 1.2 1.2 0 0 1-.65-.09.385.385 0 0 0-.5.09 1.421 1.421 0 0 1-.89.47.619.619 0 0 0-.64.45.192.192 0 0 1-.28.1 2.137 2.137 0 0 1-.3-.17.241.241 0 0 1-.04-.38c.05-.05.12-.08.16-.13a.7.7 0 0 0 .13-.17 1.112 1.112 0 0 0-.55-1.08 1.219 1.219 0 0 0-.27 0 .391.391 0 0 1-.36-.28 1.091 1.091 0 0 0-.19-.39.678.678 0 0 1-.13-.93 1.155 1.155 0 0 0 .11-.71 1 1 0 0 1 .15-.71 2.351 2.351 0 0 0 .19-.39c.2-.49.33-.5.62-.07.07.1.12.21.19.31a.18.18 0 0 0 .22.11.214.214 0 0 0 .14-.23c-.02-.15-.05-.3-.07-.45a.368.368 0 0 1 .15-.38 1.613 1.613 0 0 0 .44-.46.628.628 0 0 1 .31-.27 1.526 1.526 0 0 0 .64-.52.545.545 0 0 1 .61-.2.575.575 0 0 0 .33.04c.5-.32.95.13 1.42.14a.571.571 0 0 1 .27.21c.15.15.29.31.44.46a.364.364 0 0 0 .14.14 1.017 1.017 0 0 1 .83.39.384.384 0 0 0 .5-.06 1.132 1.132 0 0 1 1.17-.38.982.982 0 0 0 .33-.05.55.55 0 0 1 .69.3.659.659 0 0 0 .51.3.392.392 0 0 0 .49-.12.361.361 0 0 1 .44.01.634.634 0 0 0 .81-.63.251.251 0 0 0-.11-.26c-.19-.11-.4-.21-.6-.32a1.217 1.217 0 0 1-.55-.63.635.635 0 0 0-.62-.46c-.33-.03-.36-.08-.44-.45a3.706 3.706 0 0 0-.09-.5 1.453 1.453 0 0 1 .25-1.4 2.2 2.2 0 0 0 .43-.76l.03-.15a.312.312 0 0 0-.04-.28.2.2 0 0 0-.25.02c-.09.07-.17.15-.26.23a.781.781 0 0 1-1.05-.04 1.808 1.808 0 0 1-.44-1.06.36.36 0 0 1 .4-.39 3.077 3.077 0 0 1 .38.16.533.533 0 0 0 .76-.53 1.5 1.5 0 0 0 0-.3.343.343 0 0 0-.28-.36c-.14-.02-.27-.01-.4-.03a.69.69 0 0 1-.63-.66 2.311 2.311 0 0 1 .05-1.11 3.3 3.3 0 0 1 .88-1.66.1.1 0 0 0 .04-.05 1.285 1.285 0 0 0 .03-1.9 1.172 1.172 0 0 1-.32-.94.848.848 0 0 1 .21-.6 1.764 1.764 0 0 0 .27-.33 1.177 1.177 0 0 0 .1-1.32 1.434 1.434 0 0 1-.14-.34.407.407 0 0 1 .14-.52.385.385 0 0 0 .16-.44c-.03-.2-.07-.4-.11-.59a2.633 2.633 0 0 1-.02-.97.691.691 0 0 0-.05-.51.719.719 0 0 1-.01-.71 1.9 1.9 0 0 0 .14-1.31.9.9 0 0 1 .08-.58 4.392 4.392 0 0 0 .36-1.73.4.4 0 0 1 .41-.49 1 1 0 0 0 .94-.71 1.8 1.8 0 0 1 .53-.66c.19-.17.38-.35.56-.53a2.2 2.2 0 0 0 .65-1.03 1.48 1.48 0 0 1 .77-.98 1.292 1.292 0 0 0 .77-.88.525.525 0 0 1 .21-.28.98.98 0 0 0 .29-.87.44.44 0 0 0-.26-.39.726.726 0 0 1-.43-1.1 1.079 1.079 0 0 0-.06-.99 2.195 2.195 0 0 1-.15-1.39.184.184 0 0 1 .27-.13c.19.12.38.25.58.38.05.04.09.11.14.15a8.961 8.961 0 0 1 1.87 1.67c.23.28.35.22.47-.15.06-.21.11-.43.16-.65a.244.244 0 0 0-.07-.27 2.513 2.513 0 0 1-.61-1.23.677.677 0 0 0-.76-.55.176.176 0 0 1-.22-.2 1.57 1.57 0 0 1 .22-1.12.448.448 0 0 0 .06-.29 7.932 7.932 0 0 1 .08-1.19c.03-.29.02-.31-.27-.36-.27-.05-.34-.13-.27-.38a.909.909 0 0 0 .07-.57.665.665 0 0 1 .26-.65c.14-.12.28-.24.41-.37a2.726 2.726 0 0 0 .72-1.41c.11-.59.24-1.17.33-1.76a4.06 4.06 0 0 1 .34-.98.339.339 0 0 1 .44-.24 3.9 3.9 0 0 0 1.13.09 1.474 1.474 0 0 1 .65.15 1.02 1.02 0 0 1 .61.95 5.027 5.027 0 0 1-.52 2.67.64.64 0 0 0 .04.74 3.256 3.256 0 0 1 .43 2.95.98.98 0 0 0-.02.45 6.929 6.929 0 0 1 .05 1.93c-.03.2-.01.4-.02.6a1.187 1.187 0 0 0 .31.95c.04.06.09.12.13.17a.859.859 0 0 1 .17.96 2.589 2.589 0 0 0-.2 1.16 1.118 1.118 0 0 1-.2.69 6.866 6.866 0 0 0-.69 1.28.448.448 0 0 1-.21.27.311.311 0 0 0-.17.3.543.543 0 0 1-.31.52.443.443 0 0 1-.67.04c-.06-.06-.13-.06-.16.03a.258.258 0 0 0 .01.28.274.274 0 0 0 .3.13 1.6 1.6 0 0 1 .99.1c.23.09.33.03.39-.24a.935.935 0 0 1 .39-.58c.13-.11.24-.22.38-.33a1.152 1.152 0 0 0 .44-.8 1.511 1.511 0 0 1 .38-.85 1.319 1.319 0 0 0 .23-1.51 1.7 1.7 0 0 1-.16-.86.867.867 0 0 1 .4-.73 2.9 2.9 0 0 1 1.61-.46 1.312 1.312 0 0 0 .07.51 2.259 2.259 0 0 1 .47 1.41.1.1 0 0 0 .15.09.418.418 0 0 0 .29-.43c-.08-.34-.15-.67-.25-1a.722.722 0 0 0-.2-.29 1.092 1.092 0 0 0-.53-.28zm.66 3.15c-.03-.14-.07-.28-.11-.42-.02-.05-.06-.07-.09-.04a.22.22 0 0 0-.02.14.348.348 0 0 0 .23.31.767.767 0 0 0 .3.38.236.236 0 0 0 .3-.03c.09-.17-.08-.17-.16-.2-.15-.06-.3-.09-.45-.14zM7.31 103.95a1.489 1.489 0 0 0 .19-.75.151.151 0 0 0-.12-.15.146.146 0 0 0-.14.12.784.784 0 0 0-.02.14c.03.19.05.37.09.64zM91.45 40.3a.287.287 0 0 0-.06-.11 4.047 4.047 0 0 0-.34-.23.1.1 0 0 0-.16.04.209.209 0 0 0 .02.13.449.449 0 0 0 .41.29.123.123 0 0 0 .13-.12zm-17.81 97.28a1.091 1.091 0 0 0-.94.1c-.26.15-.32.12-.5-.16a.633.633 0 0 0-.47-.36 1.294 1.294 0 0 1-.38-.12.7.7 0 0 0-.53-.02 3.519 3.519 0 0 1-.58.15.271.271 0 0 1-.3-.1.657.657 0 0 0-.66-.27 1.1 1.1 0 0 1-.26-.02.429.429 0 0 1-.36-.3 4.558 4.558 0 0 1-.22-.78 1.944 1.944 0 0 0-.49-1.12 2.187 2.187 0 0 1-.17-2.05.4.4 0 0 1 .6-.24 2.376 2.376 0 0 0 .38.11c.38.07.52.21.7-.4a.983.983 0 0 1 .85-.74 1.008 1.008 0 0 0 .77-.52 4.945 4.945 0 0 0 .35-.45 1.645 1.645 0 0 1 1.08-.81.645.645 0 0 0 .33-.22 6.028 6.028 0 0 0 .66-.93 1.719 1.719 0 0 1 .31-.39.375.375 0 0 1 .5-.07.7.7 0 0 1 .26.22 2.733 2.733 0 0 0 1.21 1.03.392.392 0 0 1 .1.08.17.17 0 0 1-.01.26 1.309 1.309 0 0 0-.62.63.452.452 0 0 1-.24.12.269.269 0 0 0-.21.32 3.006 3.006 0 0 0-.22.52 1.618 1.618 0 0 0 .25.53.475.475 0 0 1 .09.19 1.6 1.6 0 0 0 .64 1.09.352.352 0 0 1 .1.19.288.288 0 0 1-.05.2.229.229 0 0 1-.17.08.786.786 0 0 0-.79.84 1.75 1.75 0 0 1-.69 1.23.447.447 0 0 0-.16.52.585.585 0 0 1 .04.36 3.586 3.586 0 0 0-.2 1.3zm-8.57-1.33a.79.79 0 0 0-.4-.44.183.183 0 0 1-.03-.21.372.372 0 0 1 .63-.05 3.176 3.176 0 0 0 .47.82c.13.14.07.31-.14.37a.417.417 0 0 0-.31.35 5.325 5.325 0 0 0-.11 1.26c0 1.03-.02.88-.87.92a.527.527 0 0 1-.48-.19 12.042 12.042 0 0 0-1.3-1.18.948.948 0 0 1-.2-.2 10.573 10.573 0 0 0-.98-1.23 1.882 1.882 0 0 1-.37-.7 4.133 4.133 0 0 0-.89-1.65 2.421 2.421 0 0 1-.59-1.06 1.656 1.656 0 0 0-.8-1.06.777.777 0 0 1-.32-.37 3.276 3.276 0 0 0-.92-1.07 5 5 0 0 1-.78-.81.97.97 0 0 1-.21-.46c-.02-.19.13-.4.27-.32a4.131 4.131 0 0 0 1.5.33.676.676 0 0 1 .48.38 3.1 3.1 0 0 0 1.17 1.21 1.421 1.421 0 0 1 .44.44 1.97 1.97 0 0 0 1.1.8.461.461 0 0 1 .42.3.331.331 0 0 0 .21.15 1.636 1.636 0 0 1 .81.79.279.279 0 0 0 .2.18.441.441 0 0 1 .3.57.185.185 0 0 0-.02.07.524.524 0 0 0 .37.79.491.491 0 0 1 .33.34c.02.05.04.1.06.14a1.073 1.073 0 0 0 .96.79zM58.81 7.62a.634.634 0 0 0 .17-.41.373.373 0 0 1 .61-.19 1.435 1.435 0 0 1 .31.38 3.023 3.023 0 0 1 .43 1.54.576.576 0 0 1-.05.29 3.051 3.051 0 0 0-.2 1.24.471.471 0 0 1-.36.6c-.08.01-.09.12-.06.19.04.09.1.16.14.25a2.668 2.668 0 0 1 .2.46 1.072 1.072 0 0 1-1.1 1.47 1.1 1.1 0 0 1-.51-.17c-.43-.37-.92-.61-1.37-.94a.713.713 0 0 1-.21-.17.23.23 0 0 0-.4-.06.226.226 0 0 1-.35-.07 2.263 2.263 0 0 1-.57-1.39.565.565 0 0 0-.55-.7 2.061 2.061 0 0 1-.26-.03.283.283 0 0 1-.12-.38c.36-.31.5-.81.86-1.12a.367.367 0 0 0 .14-.39.852.852 0 0 1 .31-.85 1.375 1.375 0 0 1 1.2-.52 1.14 1.14 0 0 0 .71-.19.6.6 0 0 1 .95.51c.04.19.04.38.08.65zm28.86 128.52a.856.856 0 0 0-.5.05.839.839 0 0 1-.88-.42.48.48 0 0 0-.44-.28.548.548 0 0 1-.41-.22.241.241 0 0 1 .06-.37c.33-.16.66-.31.99-.46a.684.684 0 0 1 .46-.07 3.772 3.772 0 0 1 1.05.46.6.6 0 0 1 .24.51c0 .15-.03.3-.03.45a.453.453 0 0 0 .14.4 2.941 2.941 0 0 1 .54.67.3.3 0 0 0 .52.02 2.924 2.924 0 0 0 .32-.38 1.207 1.207 0 0 1 .64-.52.545.545 0 0 0 .31-.27.643.643 0 0 1 1-.19c.15.1.34.14.49.25a2.074 2.074 0 0 0 1.14.38.961.961 0 0 1 .26.08.373.373 0 0 1 .27.38c.01.1.03.2.03.3.03 1.39.05 2.79.08 4.18.01.31.04.6.05.9a.244.244 0 0 1-.11.25.193.193 0 0 1-.25-.06 6.156 6.156 0 0 1-.45-.44.546.546 0 0 0-.6-.2c-.29.07-.57.12-.86.17a1.216 1.216 0 0 1-.33 0 .241.241 0 0 1-.18-.33.947.947 0 0 1 .45-.62.35.35 0 0 0 .16-.43 1.825 1.825 0 0 0-1.27-1.73c-.5-.14-.96-.38-1.48-.5a3.813 3.813 0 0 1-1.01-.54.292.292 0 0 0-.42.05.617.617 0 0 1-.22.15.22.22 0 0 1-.3-.11 1.814 1.814 0 0 0-.57-.9.152.152 0 0 1 .05-.24c.3-.08.6-.15.91-.23a.137.137 0 0 0 .15-.14zm4.94-107.13a.613.613 0 0 1-.06.04c-.13.21-.13.61-.45.57a.985.985 0 0 1-.95-.58 1.457 1.457 0 0 0-.49-.69 1.123 1.123 0 0 1-.41-.75.257.257 0 0 1 .05-.27.536.536 0 0 0 .12-.61 1 1 0 0 1 .13-.91.439.439 0 0 0 .06-.41.305.305 0 0 1 .11-.39 3.2 3.2 0 0 0 .73-.64.733.733 0 0 1 .23-.16.207.207 0 0 1 .3.08 6.429 6.429 0 0 0 1.14 1.35.828.828 0 0 1 .13.41.105.105 0 0 0 .15.09.214.214 0 0 0 .13-.15c0-.22-.02-.45-.02-.67a.593.593 0 0 1 .55-.77.27.27 0 0 1 .3.09c.13.16.27.32.41.49a.568.568 0 0 0 .65.26.653.653 0 0 1 .83.28 4.75 4.75 0 0 0 .62.56 2.13 2.13 0 0 1 .31.29.192.192 0 0 1-.01.31.663.663 0 0 0-.37.72.967.967 0 0 1-.39.75.586.586 0 0 1-.63.11c-.19-.07-.23.04-.2.23a.217.217 0 0 1-.19.26 1.171 1.171 0 0 0-.58.1.262.262 0 0 1-.31-.11.524.524 0 0 0-.74-.05c-.16.07-.3.2-.47.29-.32.18-.35.17-.68-.12zm2.01-3.63a.064.064 0 0 0-.06.09.514.514 0 0 0 .24.4.063.063 0 0 0 .06 0 .066.066 0 0 0 .04-.05.614.614 0 0 0-.28-.44zm.08 1.76a1.032 1.032 0 0 0 .12.65.048.048 0 0 0 .06.02.07.07 0 0 0 .05-.04.93.93 0 0 0-.23-.63zm-6.15 73.94c.01-.03.02-.04.03-.07a.27.27 0 0 0 .05-.27.165.165 0 0 0-.22-.08c-.28.08-.56.14-.84.24a2.022 2.022 0 0 0-.97.43.379.379 0 0 1-.31.08c-.22-.01-.44-.01-.67-.01a.236.236 0 0 0-.05-.05.371.371 0 0 1 .11-.47 5.224 5.224 0 0 0 1.21-1.05.752.752 0 0 1 .6-.27 3.427 3.427 0 0 0 1.06-.13 1.067 1.067 0 0 1 .66.03c.29.09.43 0 .51-.32a1.473 1.473 0 0 1 .34-.71 1.71 1.71 0 0 0 .26-.6.805.805 0 0 1 .16-.32.233.233 0 0 1 .18-.06.116.116 0 0 1 .06.17.578.578 0 0 1-.05.14.281.281 0 0 0-.01.28c.11.13.21.01.31-.03a3.829 3.829 0 0 0 1.07-.98 4.743 4.743 0 0 0 .84-1.68.89.89 0 0 0 .05-.51 2.326 2.326 0 0 1 .18-1.43c.07-.23.14-.24.42-.17.18.04.18.04.17-.21a.218.218 0 0 1 .04-.21.21.21 0 0 1 .25-.01.371.371 0 0 1 .2.36 2.607 2.607 0 0 0 .27.99 3.447 3.447 0 0 1 .14.42 1.217 1.217 0 0 1-.07 1.07 2.811 2.811 0 0 1-.57 1.01.387.387 0 0 0-.11.4 2.1 2.1 0 0 1-.2 1.44.915.915 0 0 0-.05.59 1.046 1.046 0 0 1-.25.89c-.18.25-.26.26-.57.13-.24-.12-.26-.11-.42.16-.06.1-.13.31-.2.23-.28-.28-.44.03-.65.1a1.45 1.45 0 0 1-.8 0c-.1-.02-.21-.15-.3-.03a.8.8 0 0 0-.02.28.386.386 0 0 1-.1.19 2.009 2.009 0 0 0-.45.55.393.393 0 0 1-.72-.03 1.264 1.264 0 0 1-.13-.26.328.328 0 0 0-.44-.22zM56.61-.01a.53.53 0 0 1 .44.3 4.2 4.2 0 0 1 .46 1.16 1.912 1.912 0 0 0 .69 1.07 1.826 1.826 0 0 1 .16.13 1.917 1.917 0 0 1 .18.22.5.5 0 0 1-.16.75 1.081 1.081 0 0 1-.18.11.462.462 0 0 0-.25.48 4.167 4.167 0 0 0 .08.59c.03.17.09.33.12.5a.592.592 0 0 1-.49.8.585.585 0 0 1-.13.02 2.215 2.215 0 0 0-1.43.54c-.21.15-.42.29-.62.45a.474.474 0 0 1-.63-.01c-.28-.2-.56-.41-.82-.62a.74.74 0 0 1-.23-.27 1 1 0 0 0-.33-.45.36.36 0 0 1-.11-.51 1.248 1.248 0 0 1 .64-.74 1 1 0 0 0 .53-1.02.354.354 0 0 0-.08-.26.707.707 0 0 1-.12-.93 1.342 1.342 0 0 1 .99-1.01 1.623 1.623 0 0 0 .72-.38.562.562 0 0 0 .26-.62.276.276 0 0 1 .31-.3zm6.07 11.74a.2.2 0 0 0 .11-.04.653.653 0 0 1 .22-.34 1.081 1.081 0 0 1 .45.1.259.259 0 0 1 .14.15c.04.41.43.6.49 1.01a.682.682 0 0 0 .34.44.974.974 0 0 1 .36.84 2.239 2.239 0 0 1-.22 1.3.746.746 0 0 1-.34.34c-.51.16-1.02.34-1.53.5a.5.5 0 0 1-.27 0 2.986 2.986 0 0 0-.79.01.617.617 0 0 0-.57.32 3.036 3.036 0 0 1-.74.65c-.23.19-.47.07-.56-.24a1.067 1.067 0 0 1 .05-.73c.33-.75.46-1.56.72-2.32.17-.49.3-.97.43-1.46a10.663 10.663 0 0 1 .6-1.5c.05-.11.13-.11.21-.03s.13.15.18-.02a.108.108 0 0 1 .01-.06c.1-.36.2-.47.37-.43a.7.7 0 0 1 .5.63c-.02.15-.06.3-.08.44s-.05.28-.08.44zm16.17 123.43a1.244 1.244 0 0 1-.39.4 1.23 1.23 0 0 0-.47.27.922.922 0 0 0 .28.49 1.259 1.259 0 0 1 .3.81.934.934 0 0 0 .39.67 1.1 1.1 0 0 1 .21 1.03.313.313 0 0 1-.22.26.242.242 0 0 1-.29-.12.494.494 0 0 1-.15-.24.363.363 0 0 0-.4-.31.291.291 0 0 1-.28-.27 1.758 1.758 0 0 0-.31-.73 1.394 1.394 0 0 1-.14-.64.162.162 0 0 0-.13-.16.2.2 0 0 0-.22.12.736.736 0 0 0-.04.44 9.148 9.148 0 0 1-.02 1.57.384.384 0 0 1-.43.43.415.415 0 0 1-.42-.53c.02-.25.06-.5.07-.74a.8.8 0 0 0-.27-.72.614.614 0 0 1-.16-.85 6.671 6.671 0 0 0 .32-1.05 11.159 11.159 0 0 0 .43-1.63.4.4 0 0 1 .12-.26 1.479 1.479 0 0 1 1.21-.49 8 8 0 0 0 1.45.25 1.011 1.011 0 0 0 .97-.39 1.367 1.367 0 0 1 .33-.25.173.173 0 0 1 .18.03.293.293 0 0 1 .08.19 1.333 1.333 0 0 1-.96 1.03 1.348 1.348 0 0 1-.53-.01 6.537 6.537 0 0 0-2.07-.04.654.654 0 0 0-.48.92 1.131 1.131 0 0 0 .48.51.2.2 0 0 0 .25-.03 4.089 4.089 0 0 1 1.56-.57.165.165 0 0 1 .07 0 .2.2 0 0 1 .19.18.234.234 0 0 1-.08.18 3.182 3.182 0 0 1-.37.18c-.02.02-.04.05-.06.07zm18.41-45.8a.273.273 0 0 1 .06.12.781.781 0 0 0 .28.84.167.167 0 0 1 0 .25 1.015 1.015 0 0 1-.73.35 1.064 1.064 0 0 0-1.05.87.926.926 0 0 1-.08.2.2.2 0 0 1-.25.07c-.24-.13-.47-.26-.71-.4a.786.786 0 0 0-.71-.1c-.04.02-.09.02-.13.04-.16.07-.39-.17-.46.11-.06.2.18.25.27.37a.2.2 0 0 1-.04.31c-.11.09-.23.16-.34.24-.22.15-.33.09-.38-.17a.772.772 0 0 1-.02-.15 3.675 3.675 0 0 1-.11-.81c.08-.34.38-.55.46-.9a.191.191 0 0 1 .23-.11c.36.1.49-.11.53-.47a1.425 1.425 0 0 1 .11-.35 2.682 2.682 0 0 0 .12-1.32 1.514 1.514 0 0 1-.02-.3.253.253 0 0 1 .4-.22 1.19 1.19 0 0 1 .2.19c.09.11.16.24.24.36a2.834 2.834 0 0 0 1.27 1.06.515.515 0 0 0 .67-.04.154.154 0 0 1 .19-.04zm-32.49 50.81c.18-.25.29-.43.42-.6a.407.407 0 0 1 .35-.19 2.274 2.274 0 0 1 1.79.6.811.811 0 0 0 .56.22c.2 0 .4.01.6.01a.475.475 0 0 0 .38-.12.463.463 0 0 1 .66-.12 4.444 4.444 0 0 0 .52.15 1.818 1.818 0 0 0 .92.11.859.859 0 0 1 .59.05.152.152 0 0 1 .07.12.2.2 0 0 1-.06.12 1.149 1.149 0 0 1-.57.17.133.133 0 0 0-.06.1.144.144 0 0 0 .07.11.286.286 0 0 0 .19.06 5.76 5.76 0 0 1 1.62.41.25.25 0 0 1 .19.27.323.323 0 0 1-.14.25.183.183 0 0 1-.24.02.472.472 0 0 0-.51-.04.762.762 0 0 1-.59-.06 2.36 2.36 0 0 0-.79-.11 13.22 13.22 0 0 1-1.4-.12 1.583 1.583 0 0 1-.74-.32 1.087 1.087 0 0 0-.96-.2 1.642 1.642 0 0 1-.93-.07 3.9 3.9 0 0 0-.59-.14.613.613 0 0 1-.43-.17 1.833 1.833 0 0 0-.92-.51zm12.64-18.54a5.3 5.3 0 0 1-.93-2.03.334.334 0 0 1 .11-.39.478.478 0 0 0 .25-.48c.02-.28.04-.55.05-.82.02-.15.01-.3.04-.44a.478.478 0 0 1 .62-.49 2.444 2.444 0 0 0 .66.09c.18-.03.25.07.22.26a1.364 1.364 0 0 0 .07.8 1.127 1.127 0 0 1-.15 1.11 1.336 1.336 0 0 1-.2.21 1.074 1.074 0 0 0-.22 1.1c.06.16.1.33.17.48.04.09.13.17.22.09a.527.527 0 0 1 .78.01.944.944 0 0 0 .85.11.144.144 0 0 1 .19.14.2.2 0 0 1-.13.23.611.611 0 0 1-.13.03.179.179 0 0 0-.12.28 1.963 1.963 0 0 1 .18.39c.04.19-.05.28-.23.24l-.04-.04a.534.534 0 0 0-.19-.18c-.21-.04-.49.04-.35-.38-.13-.13-.18-.53-.47-.19a.186.186 0 0 1-.17-.03.577.577 0 0 0-.83-.13.534.534 0 0 1-.26.03h.01zm2.47 5.94v-.22a.259.259 0 0 0-.29-.25 2.022 2.022 0 0 1-.84.19.787.787 0 0 0-.32.35.119.119 0 0 1-.18.01.2.2 0 0 1-.06-.12.842.842 0 0 1 .22-.69 7.3 7.3 0 0 1 .9-.64.273.273 0 0 1 .36.11c.14.18.26.11.41.01a3.436 3.436 0 0 1 .74-.5.48.48 0 0 0 .21-.43.151.151 0 0 1 .26-.09 1.194 1.194 0 0 1 .51.91 7.624 7.624 0 0 0 .14.81 1.14 1.14 0 0 1-.06.73.627.627 0 0 1-.21.28c-.13.04-.13-.15-.19-.25s-.12-.18-.21-.1a.37.37 0 0 0-.12.25c.01.2.08.39.1.59a.268.268 0 0 1-.34.31c-.11-.03-.22-.08-.32-.11a.928.928 0 0 1-.71-1.15zm20.87-98.03a3.062 3.062 0 0 1-1.36-.59c-.12-.07-.21-.19-.33-.26a.846.846 0 0 1-.48-.66 2.807 2.807 0 0 0-.43-.93.507.507 0 0 1-.1-.34c.01-.08.1-.15.13-.1a1.817 1.817 0 0 0 1.37.47.422.422 0 0 1 .33.21.36.36 0 0 0 .33.22 2.833 2.833 0 0 1 1.5.59.333.333 0 0 1 .15.3 1.007 1.007 0 0 1-.85 1.07.744.744 0 0 1-.26.02zM126 39.5a1.439 1.439 0 0 1 1.29.56c.39.42.39.76-.17.99a1.805 1.805 0 0 1-1.36.21.482.482 0 0 0-.45.11.772.772 0 0 1-.43.15.533.533 0 0 1-.46-.82 1.711 1.711 0 0 1 1.58-1.2zm-80.55 87.92a1.206 1.206 0 0 1-.94 1.25.584.584 0 0 1-.64-.42 3.083 3.083 0 0 1-.13-1.62c.06-.39.14-.78.21-1.17.05-.32.19-.41.37-.2a4.66 4.66 0 0 1 1.11 1.93c.02.1.01.2.02.23zm47.89-93.47a3.731 3.731 0 0 1-.46.04.214.214 0 0 1-.15-.13.137.137 0 0 1 .05-.19 1.057 1.057 0 0 0 .64-.8.738.738 0 0 1 .47-.59.984.984 0 0 1 .9.07 2.265 2.265 0 0 1 .98 1.62c.03.35-.12.54-.42.49a7.246 7.246 0 0 1-1.43-.4.9.9 0 0 0-.58-.11zm-7.72 67.45a.584.584 0 0 0 .2.19.811.811 0 0 1 .52.62.864.864 0 0 1-.04.72c-.08.23-.17.46-.23.7a1.984 1.984 0 0 1-.39.68.411.411 0 0 1-.69-.24 1.9 1.9 0 0 1 .03-.67c.12-.46.12-.47-.28-.67a.475.475 0 0 1-.24-.41.364.364 0 0 1 .1-.34 2.125 2.125 0 0 1 .97-.63.236.236 0 0 1 .05.05zm-32-92.36a1.209 1.209 0 0 1-.18-.05.213.213 0 0 1-.16-.21.171.171 0 0 1 .14-.13c.26-.12.28-.18.1-.31a1.779 1.779 0 0 1-.42-.65.725.725 0 0 1-.06-.5.286.286 0 0 1 .3-.31.62.62 0 0 1 .27.02 9.214 9.214 0 0 1 1.17.51.5.5 0 0 1 .17.79 1.424 1.424 0 0 1-1.33.84zM78.1 110.95a8.622 8.622 0 0 1-.37 1.55c-.1.3-.23.58-.35.88-.08.17-.19.17-.31.02a1.626 1.626 0 0 1-.21-1.96c.13-.2.24-.42.36-.62a.978.978 0 0 1 .35-.35c.27-.16.54.02.53.48zm1.81 14.38c-.28-.21-.45 0-.63.27-.14.21-.27.19-.44.02a.568.568 0 0 1-.09-.79c.09-.14.01-.23-.12-.28a1.18 1.18 0 0 0-.2-.04.257.257 0 0 1-.24-.29c0-.25-.01-.5 0-.75 0-.18.11-.26.27-.18a1.111 1.111 0 0 1 .78.63.281.281 0 0 0 .38.21c.08-.04.13-.16.23-.11a.259.259 0 0 1 .1.32.451.451 0 0 0 .22.49.236.236 0 0 1 .1.31.3.3 0 0 1-.36.19zm-12.6-8.9a.542.542 0 0 1 .15-.4 1.469 1.469 0 0 1 1.51-.57.34.34 0 0 1 .22.51 8.282 8.282 0 0 1-.45.83.759.759 0 0 1-1.05.34.636.636 0 0 1-.38-.71zm14.95 25.2a.471.471 0 0 1 .15.13.145.145 0 0 1-.05.19 2.16 2.16 0 0 1-.76.44 2.027 2.027 0 0 0-1.01.68 1.187 1.187 0 0 1-.71.4.268.268 0 0 1-.31-.29.6.6 0 0 1 .22-.58 6 6 0 0 1 1.28-.76c.39-.1.79-.14 1.19-.21zm6.29-40.55a.643.643 0 0 1 0 .63.524.524 0 0 1-.56.3.458.458 0 0 0-.5.27 2.128 2.128 0 0 1-.16.25.222.222 0 0 1-.35.03 1.638 1.638 0 0 1-.3-.57.256.256 0 0 1 .02-.21.813.813 0 0 1 .55-.49.849.849 0 0 0 .5-.18.609.609 0 0 1 .8-.03zM70.41 30.21a3.3 3.3 0 0 1 .47.08.469.469 0 0 1 .31.57.972.972 0 0 1-.38.67.481.481 0 0 1-.57.02 3.593 3.593 0 0 1-.51-.46.21.21 0 0 1-.01-.27 1.49 1.49 0 0 0 .31-.46.277.277 0 0 1 .38-.15zM82.9 134.52a6.475 6.475 0 0 0-.21-1.33 1.189 1.189 0 0 1 .08-.87.276.276 0 0 1 .26-.19c.12.03.09.16.11.25a.329.329 0 0 0 .27.28c.32.1.31.12.27.46a1.446 1.446 0 0 0-.04.29.309.309 0 0 1-.3.39c-.22.04-.22.23-.18.4.03.12.08.23.12.35.02.07.04.16-.04.18a.328.328 0 0 1-.19-.04c-.05-.06-.11-.12-.15-.17zm-8.48 7.81a5.114 5.114 0 0 0-.96-.2.231.231 0 0 1-.12-.16.362.362 0 0 1 .52-.4.421.421 0 0 0 .37.09 2.021 2.021 0 0 0 .45-.07 1.017 1.017 0 0 1 1 .04.226.226 0 0 1 .12.16.236.236 0 0 1-.08.18c-.42.13-.86.24-1.3.36zm9.5-5.71a2.63 2.63 0 0 1 1.09.17.54.54 0 0 1 .38.38.376.376 0 0 1-.01.21.125.125 0 0 1-.17.07.771.771 0 0 1-.19-.08 1.739 1.739 0 0 0-1.54-.06c-.15.05-.26.11-.35-.06a.406.406 0 0 1 .17-.56.771.771 0 0 1 .26-.07c.13-.01.26 0 .36 0zM52.57.3a1.058 1.058 0 0 1 .63.16.5.5 0 0 1 .19.51.484.484 0 0 1-.36.39 1.3 1.3 0 0 1-.77-.16.409.409 0 0 1-.22-.35.444.444 0 0 1 .2-.43 1.7 1.7 0 0 1 .33-.12zM76.3 124.11a.693.693 0 0 1-.15.61 9.373 9.373 0 0 0-.87 1.02 2.872 2.872 0 0 1-.69.57.126.126 0 0 1-.18-.03.289.289 0 0 1-.02-.2.787.787 0 0 1 .2-.29 6.623 6.623 0 0 0 .97-1.01 1.509 1.509 0 0 0 .41-.66c.03-.11.08-.27.23-.19a.25.25 0 0 1 .1.18zM5.52 100.63a1.446 1.446 0 0 1-.21-.08.308.308 0 0 1-.06-.53 1.41 1.41 0 0 1 .48-.26 5.1 5.1 0 0 0 .96-.3.123.123 0 0 1 .12.01.159.159 0 0 1 .03.13 1.488 1.488 0 0 1-1.32 1.03zm110.3-56.09c-.06-.06-.11-.12-.17-.19a.456.456 0 0 1 .11-.53.438.438 0 0 1 .56-.02c.13.1.26.18.38.28a.559.559 0 0 1 .17.54.362.362 0 0 1-.49.32 2.2 2.2 0 0 1-.56-.4zM36.4 33.73a.316.316 0 0 1 .34.18c.09.19.18.39.26.59a.232.232 0 0 1-.09.26 1.6 1.6 0 0 1-.81.3.182.182 0 0 1-.15-.1 1.419 1.419 0 0 1 .16-1.07.315.315 0 0 1 .29-.16zm41.12 108.44c-.27-.06-.57-.12-.87-.19a.2.2 0 0 1-.05-.26.574.574 0 0 1 .53-.24 2.376 2.376 0 0 1 .38.11 1.32 1.32 0 0 0 1.39-.12.105.105 0 0 1 .12.03.346.346 0 0 1 .02.2.55.55 0 0 1-.43.3c-.35.07-.71.12-1.09.17zm3.08-18.49a.686.686 0 0 0-.19-.46 1.6 1.6 0 0 1-.22-.28.258.258 0 0 1 .12-.36.564.564 0 0 1 .79.52c.04.22.06.44.08.66.02.16-.06.22-.26.19a.349.349 0 0 1-.13-.05zm12.37-92.03c.02-.12.04-.27.07-.41a.333.333 0 0 1 .37-.24.338.338 0 0 1 .29.27.852.852 0 0 1-.26.92.246.246 0 0 1-.42-.15c-.02-.12-.03-.24-.05-.39zM76.26 142.48a1.05 1.05 0 0 1 .9.47.257.257 0 0 1 .04.28.222.222 0 0 1-.28.13 1.73 1.73 0 0 1-.31-.14c-.19-.09-.36-.19-.55-.28a.239.239 0 0 1-.15-.22.235.235 0 0 1 .18-.2c.06-.02.13-.03.17-.04zm1.14-20.85a.962.962 0 0 1 .45.92.321.321 0 0 1-.17.29.227.227 0 0 1-.28-.13c-.14-.25-.25-.51-.37-.78-.08-.16-.03-.23.18-.29a1.275 1.275 0 0 1 .2-.01h-.01zm34.71-53.39a.182.182 0 0 1-.05-.11 4.046 4.046 0 0 1 .18-.62.7.7 0 0 1 .6-.39.2.2 0 0 1 .18.25.473.473 0 0 1-.1.25c-.25.22-.5.42-.74.62a.165.165 0 0 1-.07 0zM56.77 21.51c-.06-.02-.14-.05-.23-.08a.2.2 0 0 1-.07-.3c.21-.2.43-.4.67-.59.09-.06.17.03.2.13a.7.7 0 0 1-.57.84zm43.37 66.25a.236.236 0 0 1-.02.13.913.913 0 0 1-.19.2 5.046 5.046 0 0 0-.91.75.2.2 0 0 1-.18.04.13.13 0 0 1-.02-.19 1.348 1.348 0 0 1 .85-.86 2.388 2.388 0 0 0 .37-.15.235.235 0 0 1 .1.08zm-18.27 49.03a.556.556 0 0 1 .5.18.329.329 0 0 1-.07.5.482.482 0 0 1-.62-.11.422.422 0 0 1-.13-.39.318.318 0 0 1 .32-.18zM43.57 35.81c.01.27-.18.4-.4.27a.519.519 0 0 1 0-.89.162.162 0 0 1 .23.07.878.878 0 0 1 .17.55zm45.1 103.62a.945.945 0 0 1-.14.59.4.4 0 0 1-.29.25c-.11 0-.17-.19-.11-.45a4.31 4.31 0 0 1 .19-.61.209.209 0 0 1 .17-.09.269.269 0 0 1 .14.14.412.412 0 0 1 .04.17zm-8.07-15.75l.19.22c.01.24.03.49.03.73a.266.266 0 0 1-.12.16.117.117 0 0 1-.17-.06c-.12-.28-.25-.57-.36-.86a.19.19 0 0 1 .06-.25.285.285 0 0 1 .18.01 1.8 1.8 0 0 1 .19.05zm8.64-98.02a1.5 1.5 0 0 1 .23 1.5.128.128 0 0 1-.1.09.275.275 0 0 1-.16-.1.378.378 0 0 1-.04-.21c.02-.39.04-.79.07-1.28zm-43.57 2.07c-.11-.06-.17-.09-.23-.12-.08-.06-.23-.03-.25-.19a.482.482 0 0 1 .09-.41c.11-.11.2-.31.38-.22a.4.4 0 0 1 .16.45c-.03.14-.09.27-.15.49zm45.4 46.91a.284.284 0 0 1-.28-.17.571.571 0 0 1 .33-.64.241.241 0 0 1 .27.17.542.542 0 0 1-.32.64zm15.22 5.92a1.25 1.25 0 0 1-.69.89.126.126 0 0 1-.12-.01.173.173 0 0 1-.05-.12 1.829 1.829 0 0 1 .73-.8.3.3 0 0 1 .13.04zM66.17 16.04a.352.352 0 0 1 .4.21.28.28 0 0 1-.02.2.3.3 0 0 1-.42.1.42.42 0 0 1-.38-.26c-.03-.13.17-.25.42-.25zm13.54 106.51a2.532 2.532 0 0 0 .18.55.182.182 0 0 1-.03.14.175.175 0 0 1-.12.04 4.309 4.309 0 0 1-.47-.26.25.25 0 0 1 .08-.41c.11-.04.21-.07.32-.1zm-25.13-.32c-.04.21-.08.5-.15.78-.03.12-.02.34-.19.29-.1-.04-.02-.22 0-.34.05-.31.09-.62.13-.93.01-.07.06-.16.13-.14a.377.377 0 0 1 .08.18v.16zm2.29-100.01c.1 0 .22 0 .32.01a.114.114 0 0 1 .11.15.309.309 0 0 1-.11.16.7.7 0 0 1-.45-.02l-.46-.06a.126.126 0 0 1-.07-.1.145.145 0 0 1 .07-.1 1.171 1.171 0 0 1 .59-.04zm-10.6 9.24a.623.623 0 0 1 .49.1.25.25 0 0 1 .04.13.177.177 0 0 1-.07.11 1.545 1.545 0 0 1-.77-.08.125.125 0 0 1-.05-.12.188.188 0 0 1 .08-.11c.1-.02.22-.02.28-.03zm23.75-8.69c.13-.26.24-.37.36-.31a.541.541 0 0 1 .22.61.11.11 0 0 1-.17.07c-.14-.11-.27-.24-.4-.36zM58.67 133.29a.324.324 0 0 1-.09.08.191.191 0 0 1-.13-.02.563.563 0 0 1-.3-.59.108.108 0 0 1 .11-.06.638.638 0 0 1 .42.52c0 .02-.01.04-.01.07zM89.84 32.15a.114.114 0 0 1-.03.06.194.194 0 0 1-.12.03 1.986 1.986 0 0 1-.5-.84.11.11 0 0 1 .03-.06.039.039 0 0 1 .05-.02 1.637 1.637 0 0 1 .58.76.17.17 0 0 1-.01.07zm-49.6 1.72a.131.131 0 0 1-.1-.16.477.477 0 0 1 .59-.34.178.178 0 0 1 .11.08c.05.08-.01.13-.07.17a1.04 1.04 0 0 1-.53.25zm26.79 102.75a.222.222 0 0 1-.2.25.242.242 0 0 1-.26-.26.218.218 0 0 1 .2-.24.239.239 0 0 1 .26.25zm34.45-49.75a.088.088 0 0 1-.01.07 1.14 1.14 0 0 1-.46.51.114.114 0 0 1-.12-.03.181.181 0 0 1-.02-.13.905.905 0 0 1 .46-.5.07.07 0 0 1 .06-.01.764.764 0 0 1 .09.09zm12.63-13.25a.213.213 0 0 1 .12.03 1.457 1.457 0 0 1 .3.64.133.133 0 0 1-.08.11.139.139 0 0 1-.11-.02.965.965 0 0 1-.3-.64.252.252 0 0 1 .07-.12zm-32.52 67.7a.137.137 0 0 1-.15-.11.237.237 0 0 1 .09-.17 2.226 2.226 0 0 1 .44-.13.118.118 0 0 1 .12.13.3.3 0 0 1-.08.18.708.708 0 0 1-.42.1zM39.68 35.68a.479.479 0 0 1-.39-.43.226.226 0 0 1 .16-.27.2.2 0 0 1 .24.19c.01.17-.01.34-.01.51zm20.06 99.77a.365.365 0 0 1-.1.13.128.128 0 0 1-.12 0 1.51 1.51 0 0 1-.22-.28.253.253 0 0 1 .07-.38.245.245 0 0 1 .24.21c.05.11.09.22.13.32zM54.06 10.41h-.14c-.14-.01-.26-.11-.23-.19a.231.231 0 0 1 .23-.14 3.685 3.685 0 0 1 .45.11.135.135 0 0 1 .05.12.159.159 0 0 1-.09.09 2.432 2.432 0 0 1-.27 0v.01zM98.09 89.1a.249.249 0 0 1 .01.08 1.077 1.077 0 0 1-.51.63.039.039 0 0 1-.05-.02.054.054 0 0 1-.03-.05 1.169 1.169 0 0 1 .47-.69.8.8 0 0 1 .11.05zM65.35 15.91a.136.136 0 0 1-.11-.16.585.585 0 0 1 .28-.37.179.179 0 0 1 .17.02.148.148 0 0 1 .04.19.459.459 0 0 1-.38.32zm-13.6 4.26a.248.248 0 0 1-.18.27.245.245 0 0 1-.18-.27.239.239 0 0 1 .19-.26c.13-.01.16.14.17.26zm12.28 113.76a.343.343 0 0 1 .06.53.13.13 0 0 1-.12.01.389.389 0 0 1-.05-.5.1.1 0 0 1 .11-.04zm21.86 7.32a.171.171 0 0 1-.13-.14.415.415 0 0 1 .18-.43.113.113 0 0 1 .17.05.449.449 0 0 1-.11.46.2.2 0 0 1-.11.06zm4.17-5.47c-.12-.01-.23-.03-.33-.04-.14-.02-.26-.14-.21-.2a.239.239 0 0 1 .24-.04c.11.02.22.04.32.06a.249.249 0 0 1 .15.1c0 .14-.11.09-.17.12zM58.31 22.49a.326.326 0 0 1-.11.12.115.115 0 0 1-.09-.06 5.594 5.594 0 0 1-.12-.56.132.132 0 0 1 .09-.07.1.1 0 0 1 .11.03c.05.19.08.37.12.54zm8.25-2.72a.228.228 0 0 1-.2.25.153.153 0 0 1-.17-.17.189.189 0 0 1 .18-.24.17.17 0 0 1 .19.16zm63.62 58.32a.287.287 0 0 1 .11.06.264.264 0 0 1-.08.33.2.2 0 0 1-.24.06.147.147 0 0 1-.05-.06.424.424 0 0 1 .26-.39zM46.16 24.94a.508.508 0 0 1 .34.17.063.063 0 0 1 0 .06.071.071 0 0 1-.03.06.679.679 0 0 1-.5-.09.1.1 0 0 1-.03-.1.135.135 0 0 1 .09-.09.57.57 0 0 1 .13-.01zm37.1 84.05a.388.388 0 0 1-.27.36.122.122 0 0 1-.1-.06.381.381 0 0 1 .23-.38.136.136 0 0 1 .12.02.085.085 0 0 1 .02.06zm-1.68 26.8c-.02.1-.04.2-.16.18a.7.7 0 0 1-.17-.09.284.284 0 0 1-.09-.1.124.124 0 0 1 .12-.13c.2-.06.29-.01.3.14zm8.2-.79a.311.311 0 0 1-.04.06.3.3 0 0 1-.36-.24.132.132 0 0 1 .07-.09.283.283 0 0 1 .32.2.082.082 0 0 1 .01.07zm-4.51-.88a.327.327 0 0 1 .29.11.191.191 0 0 1 .02.13.2.2 0 0 1-.1.08.287.287 0 0 1-.28-.11.152.152 0 0 1-.03-.13.272.272 0 0 1 .1-.08zm41.78-55.35a.388.388 0 0 1 .17.06.262.262 0 0 1 .18.26.125.125 0 0 1-.1.06.288.288 0 0 1-.32-.26.219.219 0 0 1 .07-.12zM81.91 102.2a.141.141 0 0 1-.12-.16.21.21 0 0 1 .26-.16.119.119 0 0 1 .11.15.225.225 0 0 1-.25.17zm37.92-24.85a.332.332 0 0 1-.04.13.292.292 0 0 1-.4-.12.082.082 0 0 1 0-.07.363.363 0 0 1 .17-.07.225.225 0 0 1 .27.13zm-59.43 59.1a.415.415 0 0 1 .23.38.238.238 0 0 1-.06.11.047.047 0 0 1-.06-.01 4.05 4.05 0 0 1-.21-.35.238.238 0 0 1 .04-.12.108.108 0 0 1 .06-.01zM40.96 34.48a.161.161 0 0 1 .18.15c.01.13-.09.14-.18.13a.174.174 0 0 1-.17-.19.143.143 0 0 1 .17-.09zm6.38-2.66a.451.451 0 0 1 .11.03.13.13 0 0 1 .08.17.185.185 0 0 1-.12.07.234.234 0 0 1-.12-.02.167.167 0 0 1-.08-.11.123.123 0 0 1 .13-.14zm19.59 98.49a.176.176 0 0 1 .16.18.145.145 0 0 1-.14.18.184.184 0 0 1-.13-.21.143.143 0 0 1 .11-.15zm16.61 1.43a.165.165 0 0 1-.05.32.11.11 0 0 1-.11-.14.163.163 0 0 1 .16-.18zm-4.63 3.35c.11.02.21.03.32.06a.159.159 0 0 1 .13.2c-.04.11-.14.08-.22.08a.351.351 0 0 1-.29-.27c.02-.02.04-.05.06-.07zm4.23.34a.13.13 0 0 1-.12.16.2.2 0 0 1-.26-.15.114.114 0 0 1 .11-.14.221.221 0 0 1 .27.13zm-2.64.12c.07.02.12.03.16.04a.176.176 0 0 1 .04.05.214.214 0 0 1-.04.12.288.288 0 0 1-.35.04.051.051 0 0 1-.04-.05.134.134 0 0 1 .03-.12 1.379 1.379 0 0 1 .2-.08zm4.55.2a.169.169 0 0 1-.16.18.174.174 0 0 1-.22-.18.193.193 0 0 1 .19-.15.181.181 0 0 1 .19.15zM51.18 20.63a.171.171 0 0 1-.07.18.107.107 0 0 1-.14-.11.15.15 0 0 1 .08-.18c.08-.04.11.02.13.11zm77.04 58.12a.187.187 0 0 1 .11.21.127.127 0 0 1-.14.13c-.12 0-.14-.1-.13-.21a.147.147 0 0 1 .16-.13zM80.64 141.6a.148.148 0 0 1-.21.09.1.1 0 0 1-.06-.16.226.226 0 0 1 .16-.08.115.115 0 0 1 .11.15zm2.26-7.08c.04.05.1.11.15.17a.247.247 0 0 1-.29.06.187.187 0 0 1-.09-.28c.07-.08.15.01.23.05zm-25.62-2.83a.657.657 0 0 1-.12.06.2.2 0 0 1-.19-.23.125.125 0 0 1 .1-.06.327.327 0 0 1 .21.23zM43.4 30.17a.13.13 0 0 1-.1-.16.1.1 0 0 1 .15-.08.178.178 0 0 1 .08.11.116.116 0 0 1-.13.13zm34.27 98.53a.115.115 0 0 1-.16.06.1.1 0 0 1-.04-.17.288.288 0 0 1 .16 0 .318.318 0 0 1 .04.11zm12.8-54.74a.121.121 0 0 1 .07.17.192.192 0 0 1-.23.09.082.082 0 0 1-.05-.12.236.236 0 0 1 .21-.14zm12.44 11.69a.2.2 0 0 1-.12.21.106.106 0 1 1-.07-.2.39.39 0 0 1 .16-.07.3.3 0 0 1 .03.06zm-23.29 56.01a.146.146 0 0 1-.15.12.111.111 0 0 1-.08-.16.125.125 0 0 1 .17-.07.227.227 0 0 1 .06.11zM91.7 96.61a.179.179 0 0 1 .06.18c-.02.08-.07.14-.14.11a.137.137 0 0 1-.06-.18.132.132 0 0 1 .14-.11zm-11.48-64.4a.242.242 0 0 1 .09.08.093.093 0 0 1-.11.12.122.122 0 0 1-.06-.11.217.217 0 0 1 .08-.09zm29.45 9.34a.125.125 0 0 1-.07-.17.1.1 0 0 1 .09-.06.111.111 0 0 1 .08.16.431.431 0 0 1-.1.07zM79.33 143.76a.186.186 0 0 1-.23.18.071.071 0 0 1-.02-.12.481.481 0 0 1 .16-.12c.04-.03.08 0 .09.06zm45.43-64.22a.253.253 0 0 1-.21-.15.1.1 0 0 1-.01-.07.211.211 0 0 1 .11-.04.673.673 0 0 1 .15.14.078.078 0 0 1-.04.12zM65.82 19.3a.14.14 0 0 1-.14.13.1.1 0 0 1-.07-.16.121.121 0 0 1 .16-.09.334.334 0 0 1 .05.12zm-1.81 113.68a.11.11 0 0 1 .12.12.122.122 0 0 1-.08.09.1.1 0 0 1-.11-.12.15.15 0 0 1 .07-.09zm14.25-4.8a.314.314 0 0 1-.08-.1c.01-.09.07-.12.13-.08a.143.143 0 0 1 .05.11.255.255 0 0 1-.1.07z" fill="#ef5b5b" fill-rule="evenodd"/></svg>