<svg xmlns="http://www.w3.org/2000/svg" width="59.65" height="59.65" viewBox="0 0 59.65 59.65">
  <metadata><?xpacket begin="﻿" id="W5M0MpCehiHzreSzNTczkc9d"?>
<x:xmpmeta xmlns:x="adobe:ns:meta/" x:xmptk="Adobe XMP Core 5.6-c142 79.160924, 2017/07/13-01:06:39        ">
   <rdf:RDF xmlns:rdf="http://www.w3.org/1999/02/22-rdf-syntax-ns#">
      <rdf:Description rdf:about=""/>
   </rdf:RDF>
</x:xmpmeta>
                                                                                                    
                                                                                                    
                                                                                                    
                                                                                                    
                                                                                                    
                                                                                                    
                                                                                                    
                                                                                                    
                                                                                                    
                                                                                                    
                                                                                                    
                                                                                                    
                                                                                                    
                                                                                                    
                                                                                                    
                                                                                                    
                                                                                                    
                                                                                                    
                                                                                                    
                                                                                                    
                           
<?xpacket end="w"?></metadata>
<defs>
    <style>
      .cls-1 {
        fill: #00b1ff;
        fill-rule: evenodd;
      }
    </style>
  </defs>
  <path id="Forma_1" data-name="Forma 1" class="cls-1" d="M1389.3,1884.76l-5.44-5.44a1.768,1.768,0,0,0-2.38-.12,6.173,6.173,0,0,1-8.68-8.68,1.792,1.792,0,0,0-.12-2.39l-5.44-5.43a1.787,1.787,0,0,0-2.53,0l-34.01,34.01a1.787,1.787,0,0,0,0,2.53l5.44,5.44h0a1.774,1.774,0,0,0,2.52,0,1.68,1.68,0,0,0,.18-0.21c0.12-.14.25-0.28,0.38-0.42a6.17,6.17,0,0,1,8.72,8.73,4.907,4.907,0,0,1-.48.43,1.817,1.817,0,0,0-.66,1.3,1.784,1.784,0,0,0,.52,1.35l5.44,5.44a1.787,1.787,0,0,0,2.53,0l34.01-34.02A1.774,1.774,0,0,0,1389.3,1884.76Zm-22.97,11.31a0.41,0.41,0,0,1-.18.35,0.375,0.375,0,0,1-.25.08,0.675,0.675,0,0,1-.14-0.02l-5.55-1.94a33.553,33.553,0,0,1-.42,4.6c-0.03.23-.08,0.45-0.12,0.65l2.89,1.61a0.22,0.22,0,0,1,.12.2v0.98a0.206,0.206,0,0,1-.1.19,0.211,0.211,0,0,1-.13.05,0.235,0.235,0,0,1-.08-0.02l-3.38-1.18a0.767,0.767,0,0,1-1.3,0l-3.38,1.18a0.2,0.2,0,0,1-.21-0.03,0.206,0.206,0,0,1-.1-0.19v-0.98a0.22,0.22,0,0,1,.12-0.2l2.89-1.61c-0.04-.2-0.09-0.42-0.13-0.65a35.364,35.364,0,0,1-.41-4.6l-5.55,1.94a0.419,0.419,0,0,1-.39-0.06,0.41,0.41,0,0,1-.18-0.35v-1.8a0.429,0.429,0,0,1,.22-0.38l1.25-.69v-0.57a0.694,0.694,0,0,1,1.36-.19l1.05-.58v-0.53a0.691,0.691,0,0,1,.69-0.69,0.7,0.7,0,0,1,.66.47l0.93-.52a32.712,32.712,0,0,1,.37-3.59,10.172,10.172,0,0,1,.49-1.91,0.97,0.97,0,0,1,1.94,0,10.172,10.172,0,0,1,.49,1.91,32.712,32.712,0,0,1,.37,3.59l0.93,0.52a0.7,0.7,0,0,1,.66-0.47,0.691,0.691,0,0,1,.69.69v0.53l1.05,0.58a0.694,0.694,0,0,1,1.36.19v0.57l1.25,0.69a0.429,0.429,0,0,1,.22.38v1.8h0Zm11.72-4.76a1.865,1.865,0,0,1-2.64,0l-14.72-14.72a1.863,1.863,0,0,1,2.63-2.64l14.73,14.73A1.871,1.871,0,0,1,1378.05,1891.31Z" transform="translate(-1330.19 -1862.19)"/>
</svg>
