<svg xmlns="http://www.w3.org/2000/svg" width="60" height="59.94" viewBox="0 0 60 59.94">
  <metadata><?xpacket begin="﻿" id="W5M0MpCehiHzreSzNTczkc9d"?>
<x:xmpmeta xmlns:x="adobe:ns:meta/" x:xmptk="Adobe XMP Core 5.6-c142 79.160924, 2017/07/13-01:06:39        ">
   <rdf:RDF xmlns:rdf="http://www.w3.org/1999/02/22-rdf-syntax-ns#">
      <rdf:Description rdf:about=""/>
   </rdf:RDF>
</x:xmpmeta>
                                                                                                    
                                                                                                    
                                                                                                    
                                                                                                    
                                                                                                    
                                                                                                    
                                                                                                    
                                                                                                    
                                                                                                    
                                                                                                    
                                                                                                    
                                                                                                    
                                                                                                    
                                                                                                    
                                                                                                    
                                                                                                    
                                                                                                    
                                                                                                    
                                                                                                    
                                                                                                    
                           
<?xpacket end="w"?></metadata>
<defs>
    <style>
      .cls-1 {
        fill: #00b1ff;
        fill-rule: evenodd;
      }
    </style>
  </defs>
  <path id="Forma_1" data-name="Forma 1" class="cls-1" d="M589.271,1874.63l-11.79-3.78h0a1.166,1.166,0,0,0-.453-0.05,1.017,1.017,0,0,0-.452.17l-6.609,4.21a1.033,1.033,0,0,0-.479.87v11.55l-0.366-.03v-18.65a1.044,1.044,0,0,0-.727-0.99l-21.373-6.86a1.367,1.367,0,0,0-.476-0.04,1.328,1.328,0,0,0-.474.19l-15.623,10.88a1.042,1.042,0,0,0-.445.85v38.63a1.033,1.033,0,0,0,.55.91l15.628,8.36a0.968,0.968,0,0,0,.384.12,0.98,0.98,0,0,0,.384-0.02l21.373-5.27,9.092-2.24,11.787-2.91a1.034,1.034,0,0,0,.8-1l0-33.91A1.043,1.043,0,0,0,589.271,1874.63Zm-56.082,32.07a0.336,0.336,0,0,1-.15.28,0.375,0.375,0,0,1-.2.07,0.272,0.272,0,0,1-.123-0.03l-0.913-.32a0.349,0.349,0,0,1-.231-0.33v-2.83a0.36,0.36,0,0,1,.138-0.28,0.418,0.418,0,0,1,.309-0.06l0.912,0.25a0.347,0.347,0,0,1,.258.33v2.92h0Zm0-5.83a0.324,0.324,0,0,1-.128.26,0.365,0.365,0,0,1-.225.08h-0.065l-0.913-.17a0.345,0.345,0,0,1-.288-0.34v-2.84a0.329,0.329,0,0,1,.116-0.25,0.341,0.341,0,0,1,.272-0.09l0.912,0.09a0.344,0.344,0,0,1,.318.34v2.92h0Zm0-5.83a0.327,0.327,0,0,1-.1.24,0.379,0.379,0,0,1-.248.1h0l-0.913-.01a0.345,0.345,0,0,1-.351-0.34v-2.84a0.341,0.341,0,0,1,.324-0.34l0.913-.08a0.418,0.418,0,0,1,.267.09,0.352,0.352,0,0,1,.114.26v2.92Zm0-5.84a0.347,0.347,0,0,1-.292.34l-0.913.16h-0.06a0.372,0.372,0,0,1-.228-0.08,0.331,0.331,0,0,1-.126-0.26v-2.84a0.34,0.34,0,0,1,.262-0.33l0.913-.24a0.369,0.369,0,0,1,.306.06,0.353,0.353,0,0,1,.135.27v2.92h0Zm0-5.83a0.349,0.349,0,0,1-.235.33l-0.913.31a0.463,0.463,0,0,1-.117.02,0.364,0.364,0,0,1-.2-0.06,0.351,0.351,0,0,1-.149-0.28v-2.84a0.352,0.352,0,0,1,.21-0.32l0.913-.39a0.338,0.338,0,0,1,.336.03,0.333,0.333,0,0,1,.159.28v2.92Zm0-5.83a0.335,0.335,0,0,1-.187.3l-0.913.48a0.475,0.475,0,0,1-.165.04,0.392,0.392,0,0,1-.183-0.05,0.337,0.337,0,0,1-.171-0.3v-2.83a0.332,0.332,0,0,1,.166-0.29l0.912-.56a0.353,0.353,0,0,1,.358-0.01,0.345,0.345,0,0,1,.182.3v2.92h0Zm3.078,30.27a0.349,0.349,0,0,1-.15.28,0.367,0.367,0,0,1-.2.06,0.262,0.262,0,0,1-.122-0.02l-1.088-.39a0.346,0.346,0,0,1-.231-0.32v-3.1a0.353,0.353,0,0,1,.138-0.27,0.344,0.344,0,0,1,.309-0.06l1.086,0.3a0.338,0.338,0,0,1,.259.33v3.19h0Zm0-6.38a0.362,0.362,0,0,1-.128.27,0.37,0.37,0,0,1-.226.08c-0.022,0-.043-0.01-0.065-0.01l-1.087-.2a0.345,0.345,0,0,1-.288-0.34v-3.09a0.317,0.317,0,0,1,.116-0.25,0.346,0.346,0,0,1,.272-0.09l1.087,0.1a0.354,0.354,0,0,1,.319.35v3.18Zm0-6.37a0.321,0.321,0,0,1-.1.24,0.335,0.335,0,0,1-.248.1h-1.09a0.36,0.36,0,0,1-.351-0.35v-3.09a0.34,0.34,0,0,1,.324-0.34l1.088-.09a0.335,0.335,0,0,1,.268.09,0.318,0.318,0,0,1,.113.25v3.19Zm0-6.38a0.347,0.347,0,0,1-.292.34l-1.088.19h-0.06a0.379,0.379,0,0,1-.229-0.08,0.345,0.345,0,0,1-.125-0.26v-3.09a0.351,0.351,0,0,1,.262-0.34l1.088-.28a0.4,0.4,0,0,1,.3.06,0.357,0.357,0,0,1,.138.28v3.18h0Zm0-6.37a0.327,0.327,0,0,1-.236.32l-1.087.38a0.47,0.47,0,0,1-.117.02,0.366,0.366,0,0,1-.2-0.06,0.353,0.353,0,0,1-.149-0.29v-3.09a0.337,0.337,0,0,1,.21-0.31l1.087-.47a0.347,0.347,0,0,1,.5.31v3.19Zm0-6.37a0.346,0.346,0,0,1-.187.3l-1.086.57a0.481,0.481,0,0,1-.166.04,0.392,0.392,0,0,1-.183-0.05,0.362,0.362,0,0,1-.171-0.3v-3.09a0.335,0.335,0,0,1,.166-0.29l1.088-.66a0.353,0.353,0,0,1,.358-0.01,0.335,0.335,0,0,1,.181.3v3.19Zm3.709,33.2a0.336,0.336,0,0,1-.15.28,0.366,0.366,0,0,1-.2.06,0.262,0.262,0,0,1-.123-0.02l-1.318-.47a0.346,0.346,0,0,1-.231-0.32v-3.4a0.355,0.355,0,0,1,.139-0.28,0.366,0.366,0,0,1,.306-0.05l1.319,0.35a0.35,0.35,0,0,1,.258.34v3.51h0Zm0-7.03a0.362,0.362,0,0,1-.128.27,0.37,0.37,0,0,1-.225.08c-0.022,0-.044-0.01-0.065-0.01l-1.319-.24a0.344,0.344,0,0,1-.287-0.34v-3.4a0.335,0.335,0,0,1,.115-0.25,0.341,0.341,0,0,1,.271-0.09l1.318,0.13a0.338,0.338,0,0,1,.319.34v3.51h0Zm0-7.02a0.322,0.322,0,0,1-.105.24,0.372,0.372,0,0,1-.246.1h0l-1.318-.01a0.343,0.343,0,0,1-.349-0.34v-3.4a0.357,0.357,0,0,1,.323-0.35l1.319-.1a0.334,0.334,0,0,1,.268.09,0.318,0.318,0,0,1,.113.25v3.52h0Zm0-7.03a0.347,0.347,0,0,1-.293.34l-1.318.22a0.129,0.129,0,0,1-.061.01,0.373,0.373,0,0,1-.227-0.08,0.366,0.366,0,0,1-.125-0.27v-3.4a0.347,0.347,0,0,1,.262-0.33l1.318-.34a0.4,0.4,0,0,1,.3.06,0.361,0.361,0,0,1,.139.28v3.51h0Zm0-7.03a0.349,0.349,0,0,1-.235.33l-1.319.45a0.463,0.463,0,0,1-.118.02,0.37,0.37,0,0,1-.2-0.06,0.35,0.35,0,0,1-.148-0.28v-3.4a0.351,0.351,0,0,1,.209-0.32l1.318-.57a0.394,0.394,0,0,1,.335.03,0.334,0.334,0,0,1,.161.29v3.51h0Zm0-7.02a0.346,0.346,0,0,1-.187.3l-1.319.68a0.324,0.324,0,0,1-.166.04,0.378,0.378,0,0,1-.181-0.04,0.362,0.362,0,0,1-.171-0.3v-3.4a0.332,0.332,0,0,1,.166-0.29l1.317-.8a0.355,0.355,0,0,1,.359-0.01,0.345,0.345,0,0,1,.182.3v3.52Zm4.555,36.77a0.336,0.336,0,0,1-.15.28,0.37,0.37,0,0,1-.2.06,0.518,0.518,0,0,1-.121-0.02l-1.63-.59a0.346,0.346,0,0,1-.231-0.32v-3.77a0.357,0.357,0,0,1,.138-0.28,0.369,0.369,0,0,1,.307-0.05l1.63,0.44a0.347,0.347,0,0,1,.259.33v3.92h0Zm0-7.83a0.327,0.327,0,0,1-.128.26,0.37,0.37,0,0,1-.226.08h-0.065l-1.63-.3a0.353,0.353,0,0,1-.287-0.34v-3.77a0.354,0.354,0,0,1,.116-0.26,0.377,0.377,0,0,1,.27-0.09l1.63,0.16a0.352,0.352,0,0,1,.319.34v3.92h0Zm0-7.83a0.321,0.321,0,0,1-.1.24,0.336,0.336,0,0,1-.249.1h0l-1.63-.01a0.344,0.344,0,0,1-.35-0.34v-3.78a0.347,0.347,0,0,1,.324-0.34l1.628-.13a0.336,0.336,0,0,1,.27.09,0.34,0.34,0,0,1,.113.25v3.92h0Zm0-7.83a0.347,0.347,0,0,1-.294.34l-1.628.27a0.135,0.135,0,0,1-.062.01,0.376,0.376,0,0,1-.227-0.08,0.345,0.345,0,0,1-.125-0.26v-3.77a0.35,0.35,0,0,1,.262-0.34l1.63-.42a0.4,0.4,0,0,1,.3.06,0.358,0.358,0,0,1,.139.28v3.91h0Zm0-7.83a0.348,0.348,0,0,1-.236.33l-1.63.56a0.47,0.47,0,0,1-.118.02,0.365,0.365,0,0,1-.2-0.06,0.353,0.353,0,0,1-.149-0.29v-3.77a0.337,0.337,0,0,1,.209-0.31l1.63-.71a0.362,0.362,0,0,1,.335.03,0.334,0.334,0,0,1,.161.29v3.91Zm0-7.83a0.349,0.349,0,0,1-.188.31l-1.63.85a0.465,0.465,0,0,1-.166.04,0.391,0.391,0,0,1-.181-0.05,0.362,0.362,0,0,1-.171-0.3v-3.77a0.332,0.332,0,0,1,.166-0.29l1.629-1a0.353,0.353,0,0,1,.358,0,0.337,0.337,0,0,1,.182.3v3.91h0Zm8.657,39.03a0.348,0.348,0,0,1-.295.34l-3.761.62c-0.021,0-.039.01-0.059,0.01a0.376,0.376,0,0,1-.228-0.08,0.363,0.363,0,0,1-.126-0.27v-4.04a0.347,0.347,0,0,1,.307-0.34l3.763-.47a0.359,0.359,0,0,1,.278.09,0.332,0.332,0,0,1,.12.26v3.88h0Zm0-7.77a0.34,0.34,0,0,1-.322.34l-3.763.32h-0.03a0.349,0.349,0,0,1-.354-0.34v-4.01a0.35,0.35,0,0,1,.337-0.35l3.763-.16a0.345,0.345,0,0,1,.258.09,0.354,0.354,0,0,1,.11.25v3.86h0Zm0-7.77a0.345,0.345,0,0,1-.352.34l-3.762.02h0a0.34,0.34,0,0,1-.249-0.11,0.324,0.324,0,0,1-.1-0.24v-4.04a0.321,0.321,0,0,1,.108-0.24,0.318,0.318,0,0,1,.257-0.1l3.763,0.14a0.343,0.343,0,0,1,.339.34v3.89Zm0-7.78a0.346,0.346,0,0,1-.354.35h-0.027l-3.761-.29a0.358,0.358,0,0,1-.325-0.35v-4.04a0.316,0.316,0,0,1,.118-0.25,0.354,0.354,0,0,1,.277-0.09l3.761,0.45a0.348,0.348,0,0,1,.311.34v3.88h0Zm0-7.77a0.347,0.347,0,0,1-.125.27,0.375,0.375,0,0,1-.229.08h-0.056l-3.762-.6a0.349,0.349,0,0,1-.3-0.34v-4.04a0.34,0.34,0,0,1,.131-0.27,0.38,0.38,0,0,1,.294-0.07l3.761,0.75a0.343,0.343,0,0,1,.283.34v3.88Zm0-7.77a0.323,0.323,0,0,1-.136.27,0.355,0.355,0,0,1-.218.08c-0.027,0-.056-0.01-0.083-0.01l-3.761-.9a0.353,0.353,0,0,1-.269-0.34v-4.04a0.358,0.358,0,0,1,.139-0.28,0.376,0.376,0,0,1,.31-0.05l3.761,1.05a0.358,0.358,0,0,1,.256.34v3.88h0Zm6.731,37.75a0.356,0.356,0,0,1-.295.34l-3.243.53a0.121,0.121,0,0,1-.059.01,0.373,0.373,0,0,1-.227-0.08,0.367,0.367,0,0,1-.126-0.27v-3.74a0.346,0.346,0,0,1,.308-0.34l3.242-.41a0.391,0.391,0,0,1,.278.08,0.351,0.351,0,0,1,.121.26v3.62h0Zm0-7.23a0.34,0.34,0,0,1-.323.34l-3.242.28h-0.03a0.35,0.35,0,0,1-.239-0.09,0.356,0.356,0,0,1-.115-0.26v-3.74a0.343,0.343,0,0,1,.338-0.34l3.243-.15a0.356,0.356,0,0,1,.258.1,0.322,0.322,0,0,1,.11.25v3.61Zm0-7.23a0.354,0.354,0,0,1-.353.35l-3.242.01h0a0.337,0.337,0,0,1-.249-0.1,0.324,0.324,0,0,1-.1-0.24v-3.75a0.36,0.36,0,0,1,.108-0.25,0.348,0.348,0,0,1,.259-0.09l3.241,0.12a0.351,0.351,0,0,1,.341.34v3.61h0Zm0-7.22a0.347,0.347,0,0,1-.354.34h-0.029l-3.242-.25a0.358,0.358,0,0,1-.325-0.35v-3.74a0.347,0.347,0,0,1,.12-0.26,0.382,0.382,0,0,1,.275-0.08l3.243,0.38a0.359,0.359,0,0,1,.311.35v3.61h0Zm0-7.23a0.366,0.366,0,0,1-.354.35c-0.02,0-.038-0.01-0.056-0.01l-3.243-.51a0.357,0.357,0,0,1-.3-0.34v-3.75a0.361,0.361,0,0,1,.13-0.27,0.383,0.383,0,0,1,.294-0.07l3.243,0.65a0.343,0.343,0,0,1,.283.34v3.61Zm0-7.22a0.356,0.356,0,0,1-.135.27,0.423,0.423,0,0,1-.218.07,0.242,0.242,0,0,1-.084-0.01l-3.243-.78a0.334,0.334,0,0,1-.269-0.33v-3.75a0.336,0.336,0,0,1,.141-0.27,0.342,0.342,0,0,1,.308-0.06l3.243,0.91a0.346,0.346,0,0,1,.256.33v3.62h0Zm5.848,35.16a0.347,0.347,0,0,1-.294.34l-2.825.47h-0.06a0.376,0.376,0,0,1-.227-0.08,0.342,0.342,0,0,1-.125-0.26v-3.49a0.357,0.357,0,0,1,.307-0.35l2.824-.35a0.394,0.394,0,0,1,.279.08,0.347,0.347,0,0,1,.12.26v3.38h0Zm0-6.75a0.347,0.347,0,0,1-.323.34l-2.824.24h-0.032a0.356,0.356,0,0,1-.239-0.09,0.349,0.349,0,0,1-.113-0.25v-3.5a0.348,0.348,0,0,1,.337-0.34l2.824-.12a0.347,0.347,0,0,1,.259.09,0.358,0.358,0,0,1,.11.25v3.38h0Zm0-6.76a0.353,0.353,0,0,1-.353.35l-2.824.01h0a0.375,0.375,0,0,1-.248-0.1,0.344,0.344,0,0,1-.1-0.24v-3.5a0.317,0.317,0,0,1,.108-0.24,0.354,0.354,0,0,1,.258-0.1l2.824,0.1a0.354,0.354,0,0,1,.34.35v3.37Zm0-6.75a0.355,0.355,0,0,1-.114.26,0.4,0.4,0,0,1-.24.09,0.031,0.031,0,0,1-.027-0.01l-2.825-.22a0.341,0.341,0,0,1-.324-0.34v-3.49a0.349,0.349,0,0,1,.119-0.26,0.387,0.387,0,0,1,.277-0.08l2.823,0.34a0.341,0.341,0,0,1,.311.34v3.37h0Zm0-6.75a0.332,0.332,0,0,1-.124.26,0.326,0.326,0,0,1-.23.08h-0.056l-2.825-.45a0.348,0.348,0,0,1-.3-0.34v-3.49a0.36,0.36,0,0,1,.129-0.27,0.387,0.387,0,0,1,.295-0.07l2.825,0.56a0.36,0.36,0,0,1,.282.34v3.38h0Zm0-6.75a0.354,0.354,0,0,1-.136.27,0.339,0.339,0,0,1-.218.07,0.245,0.245,0,0,1-.084-0.01l-2.824-.67a0.353,0.353,0,0,1-.268-0.34v-3.49a0.356,0.356,0,0,1,.14-0.28,0.372,0.372,0,0,1,.309-0.05l2.825,0.79a0.347,0.347,0,0,1,.255.33v3.38h0Zm11.736,37.62a0.349,0.349,0,0,1-.266.33l-9.092,2.24a0.245,0.245,0,0,1-.085.01,0.342,0.342,0,0,1-.217-0.07,0.353,0.353,0,0,1-.135-0.27v-19.61c0-.04.054-3.62,5.187-3.43,4.558,0.16,4.61,3.36,4.61,3.4v17.4h0Zm3.819-6.44a0.34,0.34,0,0,1-.294.34l-1.856.31a0.127,0.127,0,0,1-.06.01,0.373,0.373,0,0,1-.227-0.08,0.362,0.362,0,0,1-.125-0.27v-2.82a0.347,0.347,0,0,1,.307-0.34l1.857-.23a0.318,0.318,0,0,1,.278.08,0.335,0.335,0,0,1,.12.26V1906h0Zm0-5.49a0.34,0.34,0,0,1-.323.34l-1.857.16h-0.03a0.356,0.356,0,0,1-.239-0.09,0.318,0.318,0,0,1-.113-0.25v-2.82a0.335,0.335,0,0,1,.337-0.34l1.857-.09a0.354,0.354,0,0,1,.258.1,0.322,0.322,0,0,1,.11.25v2.74Zm0-5.51a0.345,0.345,0,0,1-.351.34l-1.857.01h0a0.375,0.375,0,0,1-.248-0.1,0.344,0.344,0,0,1-.1-0.24v-2.8a0.359,0.359,0,0,1,.107-0.25,0.355,0.355,0,0,1,.259-0.1l1.855,0.07a0.353,0.353,0,0,1,.341.35V1895h0Zm0-5.47a0.337,0.337,0,0,1-.114.25,0.353,0.353,0,0,1-.24.09h-0.027l-1.857-.14a0.358,0.358,0,0,1-.324-0.35v-2.82a0.329,0.329,0,0,1,.119-0.25,0.35,0.35,0,0,1,.275-0.09l1.857,0.22a0.348,0.348,0,0,1,.311.34v2.75h0Zm0-5.49a0.33,0.33,0,0,1-.125.26,0.322,0.322,0,0,1-.229.08h-0.056l-1.857-.29a0.359,0.359,0,0,1-.3-0.35v-2.82a0.323,0.323,0,0,1,.13-0.26,0.347,0.347,0,0,1,.295-0.07l1.856,0.36a0.36,0.36,0,0,1,.283.34v2.75Zm0-5.49a0.358,0.358,0,0,1-.134.27,0.349,0.349,0,0,1-.219.07,0.236,0.236,0,0,1-.083-0.01l-1.859-.44a0.353,0.353,0,0,1-.267-0.34v-2.82a0.32,0.32,0,0,1,.141-0.27,0.343,0.343,0,0,1,.309-0.06l1.856,0.52a0.346,0.346,0,0,1,.256.33v2.75Zm3.431,26.89a0.339,0.339,0,0,1-.3.33l-1.671.28c-0.019,0-.039.01-0.059,0.01a0.378,0.378,0,0,1-.228-0.08,0.362,0.362,0,0,1-.125-0.27v-2.67a0.348,0.348,0,0,1,.308-0.34l1.67-.21a0.317,0.317,0,0,1,.278.08,0.347,0.347,0,0,1,.12.26v2.61h0Zm0-5.22a0.357,0.357,0,0,1-.323.35l-1.67.14h-0.03a0.349,0.349,0,0,1-.354-0.34v-2.68a0.343,0.343,0,0,1,.338-0.34l1.67-.08a0.355,0.355,0,0,1,.259.1,0.322,0.322,0,0,1,.11.25v2.6Zm0-5.21a0.354,0.354,0,0,1-.353.35h-1.672a0.333,0.333,0,0,1-.248-0.1,0.328,0.328,0,0,1-.1-0.24v-2.68a0.36,0.36,0,0,1,.108-0.25,0.346,0.346,0,0,1,.258-0.09l1.671,0.06a0.35,0.35,0,0,1,.34.34v2.61h0Zm0-5.21a0.334,0.334,0,0,1-.114.25,0.351,0.351,0,0,1-.24.09h-0.028l-1.67-.13a0.341,0.341,0,0,1-.325-0.34v-2.68a0.347,0.347,0,0,1,.12-0.26,0.386,0.386,0,0,1,.276-0.08l1.67,0.2a0.341,0.341,0,0,1,.311.34v2.61h0Zm0-5.22a0.363,0.363,0,0,1-.126.27,0.374,0.374,0,0,1-.228.08h-0.056l-1.671-.27a0.349,0.349,0,0,1-.3-0.34v-2.68a0.326,0.326,0,0,1,.13-0.26,0.344,0.344,0,0,1,.294-0.07l1.67,0.33a0.343,0.343,0,0,1,.284.34v2.6h0Zm0-5.21a0.325,0.325,0,0,1-.136.27,0.355,0.355,0,0,1-.218.08,0.269,0.269,0,0,1-.085-0.02l-1.669-.4a0.334,0.334,0,0,1-.269-0.33v-2.67a0.354,0.354,0,0,1,.141-0.28,0.342,0.342,0,0,1,.308-0.06l1.67,0.47a0.345,0.345,0,0,1,.256.33v2.61h0Zm3.1,25.55a0.348,0.348,0,0,1-.295.34l-1.511.25a0.125,0.125,0,0,1-.059.01,0.374,0.374,0,0,1-.228-0.08,0.363,0.363,0,0,1-.126-0.27v-2.54a0.347,0.347,0,0,1,.308-0.34l1.511-.19a0.391,0.391,0,0,1,.278.08,0.344,0.344,0,0,1,.121.26v2.48h0Zm0-4.96a0.34,0.34,0,0,1-.323.34l-1.512.13h-0.029a0.354,0.354,0,0,1-.239-0.09,0.319,0.319,0,0,1-.115-0.25v-2.54a0.35,0.35,0,0,1,.337-0.35l1.513-.07a0.4,0.4,0,0,1,.258.1,0.354,0.354,0,0,1,.11.25v2.48Zm0-4.96a0.36,0.36,0,0,1-.353.35h-1.512a0.375,0.375,0,0,1-.249-0.1,0.341,0.341,0,0,1-.1-0.24v-2.54a0.366,0.366,0,0,1,.109-0.26,0.389,0.389,0,0,1,.257-0.09l1.512,0.06a0.337,0.337,0,0,1,.34.34V1895h0Zm0-4.96a0.337,0.337,0,0,1-.114.25,0.353,0.353,0,0,1-.24.09h-0.027l-1.511-.12a0.342,0.342,0,0,1-.326-0.34v-2.54a0.359,0.359,0,0,1,.4-0.35l1.511,0.18a0.35,0.35,0,0,1,.311.35v2.48Zm0-4.96a0.345,0.345,0,0,1-.125.26,0.375,0.375,0,0,1-.229.08h-0.056l-1.512-.24a0.358,0.358,0,0,1-.3-0.35v-2.54a0.324,0.324,0,0,1,.131-0.26,0.39,0.39,0,0,1,.294-0.08l1.511,0.31a0.34,0.34,0,0,1,.283.33v2.49h0Zm0-4.97a0.358,0.358,0,0,1-.136.28,0.418,0.418,0,0,1-.218.07,0.236,0.236,0,0,1-.083-0.01l-1.511-.36a0.353,0.353,0,0,1-.27-0.34v-2.54a0.359,0.359,0,0,1,.14-0.28,0.376,0.376,0,0,1,.31-0.05l1.511,0.42a0.346,0.346,0,0,1,.256.33v2.48h0Z" transform="translate(-530 -1861.03)"/>
</svg>
