<svg xmlns="http://www.w3.org/2000/svg" width="51" height="37" viewBox="0 0 51 37">
  <metadata><?xpacket begin="﻿" id="W5M0MpCehiHzreSzNTczkc9d"?>
<x:xmpmeta xmlns:x="adobe:ns:meta/" x:xmptk="Adobe XMP Core 5.6-c142 79.160924, 2017/07/13-01:06:39        ">
   <rdf:RDF xmlns:rdf="http://www.w3.org/1999/02/22-rdf-syntax-ns#">
      <rdf:Description rdf:about=""/>
   </rdf:RDF>
</x:xmpmeta>
                                                                                                    
                                                                                                    
                                                                                                    
                                                                                                    
                                                                                                    
                                                                                                    
                                                                                                    
                                                                                                    
                                                                                                    
                                                                                                    
                                                                                                    
                                                                                                    
                                                                                                    
                                                                                                    
                                                                                                    
                                                                                                    
                                                                                                    
                                                                                                    
                                                                                                    
                                                                                                    
                           
<?xpacket end="w"?></metadata>
<defs>
    <style>
      .cls-1 {
        fill: #ef5b5b;
        fill-rule: evenodd;
      }
    </style>
  </defs>
  <path class="cls-1" d="M425.98,64.263l-5.439,6.783,2.076,5.814Zm0.02-.008-7.543,4.562L412.63,66.28ZM385.744,93.684A19.694,19.694,0,0,0,396.736,97c10.634,0,19.254-8.283,19.254-18.5a17.884,17.884,0,0,0-.327-3.383C410.325,82.017,397.372,96.687,385.744,93.684Zm29.143-21.36A19.225,19.225,0,0,0,396.736,60c-10.634,0-19.254,8.283-19.254,18.5a17.836,17.836,0,0,0,.495,4.177c-1.458.214-2.977-1.21-2.977-1.21a10.918,10.918,0,0,0,3.918,4.049c0.007,0.016.014,0.032,0.02,0.049a14.048,14.048,0,0,0,2,.95,12.946,12.946,0,0,0,2.807.759C390.393,88.378,400.339,85.5,414.887,72.324Z" transform="translate(-375 -60)"/>
</svg>
