<svg xmlns="http://www.w3.org/2000/svg" width="60" height="69" viewBox="0 0 60 69">
  <metadata><?xpacket begin="﻿" id="W5M0MpCehiHzreSzNTczkc9d"?>
<x:xmpmeta xmlns:x="adobe:ns:meta/" x:xmptk="Adobe XMP Core 5.6-c142 79.160924, 2017/07/13-01:06:39        ">
   <rdf:RDF xmlns:rdf="http://www.w3.org/1999/02/22-rdf-syntax-ns#">
      <rdf:Description rdf:about=""/>
   </rdf:RDF>
</x:xmpmeta>
                                                                                                    
                                                                                                    
                                                                                                    
                                                                                                    
                                                                                                    
                                                                                                    
                                                                                                    
                                                                                                    
                                                                                                    
                                                                                                    
                                                                                                    
                                                                                                    
                                                                                                    
                                                                                                    
                                                                                                    
                                                                                                    
                                                                                                    
                                                                                                    
                                                                                                    
                                                                                                    
                           
<?xpacket end="w"?></metadata>
<defs>
    <style>
      .cls-1 {
        fill: #00b1ff;
        fill-rule: evenodd;
      }
    </style>
  </defs>
  <path class="cls-1" d="M946.661,1907.45h-2.992v-2.65a2.17,2.17,0,0,0-2.169-2.17h-4.82a2.17,2.17,0,0,0-2.17,2.17v2.65h-2.991a1.521,1.521,0,0,0-1.519,1.53v10.5a1.519,1.519,0,0,0,1.519,1.52h15.142a1.519,1.519,0,0,0,1.518-1.52v-10.5A1.521,1.521,0,0,0,946.661,1907.45Zm-5.351,0h-4.441v-2.46h4.441v2.46ZM960.516,1852a5.68,5.68,0,1,1-5.66,5.68A5.668,5.668,0,0,1,960.516,1852Zm27.846,43.95h-1.218v-7.27h1a0.548,0.548,0,0,0,.54-0.55v-1.8a0.539,0.539,0,0,0-.54-0.54h-7.1a2.76,2.76,0,0,0-1.113-3.21l-5.6-3.58-0.045-7.38a6.485,6.485,0,0,0-6.463-6.45H953.161a6.484,6.484,0,0,0-6.462,6.45l-0.1,20.13a2.729,2.729,0,0,0,2.717,2.75h0.014a2.73,2.73,0,0,0,2.731-2.72l0.1-20.13a0.528,0.528,0,1,1,1.055,0v46.06a3.277,3.277,0,1,0,6.554,0v-26.28h1.415v26.28a3.278,3.278,0,1,0,6.555,0c0-42.91-.058-19.39-0.06-46.04a0.577,0.577,0,0,1,.562-0.58,0.583,0.583,0,0,1,.581.56h0l0.053,8.88a2.735,2.735,0,0,0,1.264,2.29l6.175,3.95v1.36a0.548,0.548,0,0,0,.54.55h1v7.27h-1.218A1.645,1.645,0,0,0,975,1897.6v18.86a1.636,1.636,0,0,0,1.638,1.64h1.218v1.78a1.118,1.118,0,1,0,2.235,0v-1.78h4.819v1.78a1.118,1.118,0,1,0,2.235,0v-1.78h1.217a1.637,1.637,0,0,0,1.639-1.64V1897.6A1.645,1.645,0,0,0,988.362,1895.95Zm-3.453,0h-4.818v-7.27h4.818v7.27h0Z" transform="translate(-930 -1852)"/>
</svg>
